<svg width="41" height="23" viewBox="0 0 41 23" fill="none" xmlns="http://www.w3.org/2000/svg">
<path d="M0.616211 7.24596C0.616211 11.1038 3.79475 14.2312 7.71568 14.2312C7.37761 15.5617 5.48442 18.2227 0.616211 18.2227V22.7132C5.68726 22.8796 15.6265 20.0189 14.8151 7.24596C14.8151 3.38813 11.6366 0.260742 7.71568 0.260742C3.79475 0.260742 0.616211 3.38813 0.616211 7.24596Z" fill="#DFAB5E"/>
<path d="M25.9714 7.24596C25.9714 11.1038 29.15 14.2312 33.0709 14.2312C32.7328 15.5617 30.8396 18.2227 25.9714 18.2227V22.7132C31.0425 22.8796 40.9817 20.0189 40.1704 7.24596C40.1704 3.38813 36.9918 0.260742 33.0709 0.260742C29.15 0.260742 25.9714 3.38813 25.9714 7.24596Z" fill="#DFAB5E"/>
</svg>
