<svg width="21" height="19" viewBox="0 0 21 19" fill="none" xmlns="http://www.w3.org/2000/svg">
<path fill-rule="evenodd" clip-rule="evenodd" d="M4.52588 0.0424409C4.0756 0.0931992 3.6548 0.200567 3.19301 0.382559C2.52034 0.647678 2.27712 0.785196 1.80156 1.16941C1.43706 1.4639 1.28702 1.61834 1.06283 1.92987C0.324369 2.95601 0 4.03543 0 5.46661C0 6.71752 0.247385 7.94886 0.754547 9.22223C1.30732 10.6101 1.80809 11.5231 2.58836 12.5658C3.27099 13.4779 4.36233 14.5665 5.71227 15.6819C6.48729 16.3222 7.3142 16.9453 7.94685 17.3655C8.18501 17.5237 8.56729 17.7804 8.79637 17.936C9.02545 18.0917 9.48969 18.3889 9.82803 18.5965C10.1664 18.8041 10.4509 18.9854 10.4604 18.9994C10.4761 19.0226 11.606 18.3417 12.0251 18.0565C12.1217 17.9907 12.4117 17.7961 12.6695 17.6241C14.1762 16.6187 15.3565 15.685 16.6825 14.4496C17.8908 13.3239 18.6975 12.3069 19.4164 11.0032C19.963 10.0119 20.4674 8.76708 20.7074 7.81726C20.9343 6.91908 21.0512 5.65491 20.9785 4.88423C20.9301 4.37114 20.8086 3.71016 20.7056 3.39987C20.4597 2.65959 20.0074 1.92929 19.4903 1.43765C18.9181 0.89363 18.4622 0.620123 17.6048 0.306494C16.2696 -0.181893 14.6432 -0.0817599 13.2897 0.57219C12.806 0.805891 12.5165 0.981974 12.1862 1.24317C11.6304 1.68268 11.1681 2.21098 10.7343 2.90226C10.6225 3.08039 10.5179 3.22618 10.5018 3.22624C10.4857 3.22629 10.3934 3.10022 10.2967 2.94607C9.70772 2.00685 8.97427 1.26615 8.19998 0.828575C6.98318 0.140902 5.83381 -0.105021 4.52588 0.0424409Z" fill="white"/>
</svg>
