<svg width="41" height="37" viewBox="0 0 41 37" fill="none" xmlns="http://www.w3.org/2000/svg">
<path fill-rule="evenodd" clip-rule="evenodd" d="M8.83623 0.0826481C7.95713 0.181493 7.13556 0.390578 6.23398 0.744984C4.92067 1.26127 4.4458 1.52907 3.51734 2.27728C2.80569 2.85076 2.51275 3.15151 2.07506 3.75816C0.633292 5.75645 0 7.85847 0 10.6455C0 13.0815 0.48299 15.4794 1.47316 17.9591C2.55238 20.6617 3.53009 22.4397 5.05347 24.4702C6.38622 26.2465 8.51693 28.3664 11.1525 30.5384C12.6657 31.7854 14.2801 32.9986 15.5153 33.817C15.9803 34.1251 16.7266 34.6251 17.1739 34.9281C17.6211 35.2311 18.5275 35.8099 19.1881 36.2142C19.8486 36.6185 20.4042 36.9716 20.4227 36.9989C20.4533 37.044 22.6592 35.718 23.4775 35.1626C23.6662 35.0345 24.2324 34.6556 24.7357 34.3206C27.6773 32.3627 29.9818 30.5445 32.5706 28.1388C34.9297 25.9466 36.5047 23.9661 37.9083 21.4272C38.9755 19.4969 39.9603 17.0727 40.4288 15.2231C40.8718 13.474 41.0999 11.0122 40.958 9.51139C40.8636 8.51221 40.6263 7.22504 40.4252 6.6208C39.9452 5.17921 39.0622 3.75704 38.0525 2.79963C36.9353 1.74023 36.0452 1.20761 34.3713 0.596856C31.7645 -0.354213 28.5891 -0.159217 25.9466 1.11426C25.0023 1.56937 24.4369 1.91227 23.7921 2.42092C22.7071 3.27679 21.8044 4.3056 20.9575 5.65177C20.7392 5.99865 20.5349 6.28256 20.5035 6.28267C20.472 6.28278 20.2919 6.03727 20.1031 5.73708C18.9532 3.90808 17.5212 2.46565 16.0095 1.61354C13.6338 0.274389 11.3898 -0.204514 8.83623 0.0826481Z" fill="#00BBC5"/>
</svg>
