<svg width="45" height="45" viewBox="0 0 45 45" fill="none" xmlns="http://www.w3.org/2000/svg">
<rect x="1" y="1" width="43" height="43" stroke="#22C2D1" stroke-width="2"/>
<path fill-rule="evenodd" clip-rule="evenodd" d="M13.6962 14.0421C12.898 14.1463 11.8625 14.6792 11.3536 15.2476C10.9808 15.6641 10.6672 16.2008 10.5081 16.6946C10.2929 17.3629 10.3 17.4161 10.6329 17.6223C11.0444 17.8773 11.6753 18.5762 11.8976 19.0235C12.2556 19.7437 12.3044 19.9917 12.3397 21.2717L12.3724 22.4539H22H31.6276L31.6576 21.2717C31.685 20.1929 31.7023 20.0471 31.8561 19.6049C31.9487 19.3383 32.0995 18.9949 32.191 18.8418C32.4141 18.4683 33.0283 17.8322 33.3703 17.6203C33.7002 17.4159 33.707 17.3626 33.4892 16.6862C33.1129 15.5183 32.194 14.6159 30.9457 14.1884L30.4227 14.0093L22.2505 14.0007C17.7558 13.996 13.9063 14.0146 13.6962 14.0421ZM7.84736 18.3723C7.09614 18.5779 6.546 19.0373 6.19576 19.7516L6 20.1509V23.498V26.8452L6.19651 27.2519C6.42758 27.7302 6.73813 28.0861 7.14618 28.3401C7.59443 28.6192 8.02646 28.7184 8.79464 28.7184H9.46877L9.48781 30.0542C9.5061 31.3394 9.51236 31.3976 9.6527 31.5905C9.84482 31.8547 10.1309 31.995 10.4775 31.995C10.824 31.995 11.1102 31.8547 11.3023 31.5905C11.4426 31.3976 11.4489 31.3394 11.4672 30.0542L11.4862 28.7184H22.0034H32.5205V29.9835C32.5205 31.4242 32.555 31.565 32.9743 31.8372C33.4232 32.1285 34.0361 32.0184 34.3473 31.5905C34.4876 31.3976 34.4939 31.3394 34.5122 30.0542L34.5312 28.7184H35.2101C36.3131 28.7184 36.9844 28.4293 37.5324 27.7182C38.0096 27.099 38 27.186 38 23.4673V20.1509L37.8 19.7368C37.317 18.7369 36.1872 18.1355 35.1478 18.325C34.2802 18.4833 33.6647 18.9305 33.289 19.6755L33.0528 20.144L33.0337 21.9745L33.0146 23.8051H21.9966H10.9785V22.0966C10.9785 20.2094 10.9539 20.042 10.589 19.4475C10.0526 18.5732 8.8443 18.0993 7.84736 18.3723Z" fill="#22C2D1"/>
</svg>
