<svg width="45" height="45" viewBox="0 0 45 45" fill="none" xmlns="http://www.w3.org/2000/svg">
<rect x="1" y="1" width="43" height="43" stroke="#22C2D1" stroke-width="2"/>
<path fill-rule="evenodd" clip-rule="evenodd" d="M20.182 8.01333C19.5505 8.03806 19.223 8.07213 18.5688 8.18121C13.8107 8.97457 9.7363 12.3136 7.95939 16.8757C6.25942 21.2404 6.84506 26.2233 9.50609 30.0359C10.3994 31.3158 11.6352 32.5715 12.8546 33.4385C14.874 34.8742 17.2218 35.7499 19.6193 35.9616C20.1994 36.0128 21.4811 36.0128 22.0579 35.9616C24.7755 35.7203 27.3385 34.6744 29.5425 32.9075C30.4205 32.2037 31.9214 30.572 32.171 30.05C32.4027 29.5654 32.2789 28.9055 31.8936 28.5717C31.6293 28.3426 31.4379 28.2718 31.0807 28.2707C30.5457 28.2691 30.349 28.4041 29.7504 29.1833C29.4186 29.6152 28.6533 30.4109 28.1919 30.8038C26.5202 32.2269 24.4465 33.1456 22.2392 33.4409C21.638 33.5214 20.1706 33.5329 19.6005 33.4617C16.9429 33.1296 14.6283 31.9979 12.7912 30.1322C11.0701 28.3844 9.95468 26.1505 9.58049 23.7022C9.46674 22.9578 9.43958 21.5256 9.52489 20.7687C9.88565 17.5677 11.4818 14.7265 13.9969 12.8082C15.6268 11.565 17.5218 10.7977 19.5818 10.5467C20.1084 10.4826 21.5573 10.482 22.0954 10.5457C25.825 10.9872 29.0255 13.1654 30.848 16.5025C31.1628 17.0789 31.7144 18.3927 31.6633 18.4445C31.6553 18.4526 31.4491 18.475 31.2052 18.4943C30.9613 18.5135 30.6907 18.5533 30.6037 18.5828C29.9222 18.8135 29.5851 19.6161 29.8898 20.2822C30.0054 20.5349 30.0597 20.5882 31.3557 21.7198C31.9408 22.2307 32.4602 22.7042 32.5098 22.772C32.6217 22.9248 32.9272 23.1391 33.1204 23.2003C33.2082 23.2281 33.3934 23.2397 33.5894 23.2296C33.9808 23.2094 34.2035 23.1086 34.4658 22.8326C34.9608 22.312 36.7947 20.1196 36.8795 19.9471C37.1537 19.3893 36.944 18.6725 36.4122 18.3498C36.0924 18.1557 35.9406 18.139 35.1077 18.207C34.7058 18.2398 34.335 18.2613 34.2836 18.2548C34.1982 18.244 34.1718 18.187 33.9711 17.5784C32.5956 13.4077 29.3979 10.1498 25.288 8.73154C23.6471 8.16529 22.0477 7.94034 20.182 8.01333ZM16.7117 17.6776C16.4125 17.715 15.9615 17.8156 15.68 17.9078C15.1852 18.0699 14.4607 18.4604 14.4607 18.5651C14.4607 18.5834 14.5804 18.9051 14.7266 19.2801L14.9925 19.9618L15.3117 19.7589C15.9221 19.371 16.4912 19.2206 17.0775 19.2925C17.7881 19.3795 18.1749 19.8062 18.1749 20.5028C18.1749 20.9427 17.9908 21.4012 17.6032 21.9271C17.3028 22.3348 16.4075 23.2388 15.3278 24.2249L14.3504 25.1174L14.3493 25.7346L14.3482 26.3518H17.3308H20.3133V25.5166V24.6815L18.7328 24.6716L17.1522 24.6617L17.5604 24.321C18.4829 23.551 19.311 22.6461 19.6863 21.9979C20.5013 20.5904 20.2412 18.9411 19.0833 18.1754C18.5769 17.8405 18.0722 17.6965 17.3308 17.6752C17.0625 17.6675 16.7839 17.6686 16.7117 17.6776ZM24.4428 17.8917C24.217 18.2555 22.0192 21.8377 21.6961 22.3683L21.2888 23.0374V23.6691V24.3009H23.1646H25.0405V25.3263V26.3518H25.9784H26.9163V25.3263V24.3009H27.4228H27.9293V23.5603V22.8196H27.4228H26.9163V20.3129V17.8063H25.7061H24.4958L24.4428 17.8917ZM25.0742 19.8572C25.0596 20.1183 25.046 20.8917 25.044 21.5758L25.0405 22.8196H24.1025C23.5867 22.8196 23.1646 22.8062 23.1646 22.7897C23.1646 22.7732 23.4183 22.3417 23.7284 21.8307C24.0604 21.2836 24.449 20.5776 24.6737 20.1135C24.8836 19.68 25.0656 19.3381 25.0781 19.3539C25.0906 19.3696 25.0889 19.5961 25.0742 19.8572Z" fill="#22C2D1"/>
</svg>
