<svg width="45" height="45" viewBox="0 0 45 45" fill="none" xmlns="http://www.w3.org/2000/svg">
<rect x="1" y="1" width="43" height="43" stroke="#22C2D1" stroke-width="2"/>
<path fill-rule="evenodd" clip-rule="evenodd" d="M15.5886 12.0959C15.0304 12.218 14.3489 12.5101 14.3489 12.6274C14.3489 12.6652 14.6458 12.9895 15.0087 13.3479C15.3715 13.7063 15.8346 14.2061 16.0377 14.4585C16.3978 14.9058 16.7999 15.6022 16.7617 15.7124C16.7513 15.7427 16.4069 15.5012 15.9966 15.1757C14.1722 13.729 12.9898 13.1609 11.3983 12.9667C10.0162 12.798 8.97111 13.1866 7.87712 14.2757C7.10994 15.0396 6.61496 15.8163 6.42115 16.5603C6.37017 16.7559 6.35158 16.939 6.37975 16.9671C6.43197 17.0194 7.63576 16.5502 7.90927 16.3709C7.99215 16.3167 8.09623 16.1719 8.14056 16.0494C8.20672 15.8664 8.24371 15.8339 8.34723 15.8678C8.70835 15.9858 8.8858 15.9734 9.05293 15.8186C9.21011 15.673 9.28229 15.6603 10.3386 15.5933C11.946 15.4912 12.0707 15.4962 12.3519 15.6737C12.5653 15.8084 12.6007 15.8144 12.685 15.7302C12.7692 15.646 12.7883 15.6644 12.8646 15.9025C12.9361 16.1257 12.9842 16.1778 13.1605 16.223C13.2972 16.258 13.3943 16.2537 13.4372 16.2108C13.5477 16.1004 13.594 16.1352 13.6144 16.344C13.6324 16.5279 13.6648 16.5544 14.0313 16.6852C14.459 16.8379 14.8524 17.0503 15.0973 17.2608L15.2505 17.3924L14.2868 17.348C12.1324 17.2487 10.5879 17.3161 9.65466 17.5499C8.08199 17.9439 6.93379 18.8601 6.20883 20.2998C5.92997 20.8534 5.60634 21.8536 5.481 22.5488C5.312 23.4858 5.36323 25.4096 5.57221 25.9744C5.61505 26.0903 5.63308 26.0863 5.92617 25.8943C6.27311 25.6671 8.55154 23.474 8.68155 23.242C8.74068 23.1367 8.75281 22.9911 8.72265 22.7496C8.68348 22.4365 8.68945 22.4106 8.79136 22.4497C8.85272 22.4732 9.01693 22.5081 9.15626 22.5272C9.38233 22.5582 9.43948 22.5369 9.68756 22.3295C9.84045 22.2016 10.0285 22.0683 10.1054 22.0331C10.1824 21.998 10.2453 21.9454 10.2453 21.9164C10.2453 21.8873 10.1053 21.64 9.93402 21.3668C9.75073 21.0743 9.65622 20.87 9.70416 20.87C9.74892 20.87 10.014 20.9805 10.2933 21.1156C10.5725 21.2506 10.8998 21.3796 11.0205 21.4023L11.2401 21.4435V21.0946C11.2401 20.9027 11.2553 20.7457 11.2737 20.7457C11.2922 20.7457 11.3894 20.8063 11.4896 20.8804C11.7567 21.0779 11.9496 21.0497 12.7049 20.7024C13.3641 20.3994 13.8762 20.2416 14.4888 20.1527C14.6513 20.1291 14.7842 20.0884 14.7842 20.0623C14.7842 20.0361 14.7418 19.9134 14.6901 19.7896C14.6383 19.6657 14.612 19.5644 14.6315 19.5644C14.6511 19.5644 14.7769 19.6526 14.9112 19.7605L15.1553 19.9567L15.576 19.7649C16.0316 19.5572 16.64 19.3476 16.6777 19.3854C16.736 19.4441 16.7389 25.2708 16.6805 25.2323C16.6463 25.2097 16.4505 25.0808 16.2453 24.9458C15.7379 24.6121 14.9781 24.3536 14.5044 24.3534C13.8005 24.3532 13.2443 24.5734 12.6058 25.1048C12.3548 25.3137 12.2337 25.3841 12.2564 25.3079C12.2756 25.2437 12.3104 25.1073 12.3338 25.0047C12.3571 24.9021 12.457 24.6532 12.5557 24.4515C12.723 24.1096 12.7282 24.0773 12.6331 23.9722C12.3743 23.6862 11.3809 23.5644 10.6679 23.7312C10.2546 23.8279 9.73127 24.0778 9.55978 24.2603L9.42884 24.3998L9.60393 24.5229C9.70024 24.5906 9.87694 24.6958 9.99663 24.7567C10.3051 24.9136 10.9161 25.3925 10.9944 25.5388C11.059 25.6594 11.0552 25.6599 10.8239 25.5608C9.35479 24.9321 8.64692 24.7994 7.81134 24.996C7.07537 25.1692 6.49595 25.7088 6.16686 26.5273C6.00949 26.9186 5.8903 27.6472 5.98362 27.6472C6.15007 27.6472 6.76349 27.1001 6.76349 26.9516C6.76349 26.8733 6.81019 26.8389 6.91651 26.8389C7.00069 26.8389 7.12262 26.782 7.18747 26.7123C7.34639 26.5417 8.52941 26.1651 8.84165 26.1858C8.97577 26.1946 9.11591 26.2434 9.15303 26.2941C9.20109 26.3598 9.26134 26.3713 9.36225 26.334C9.4631 26.2967 9.51346 26.3063 9.53678 26.3671C9.55574 26.4165 9.70913 26.47 9.90051 26.4939C10.0825 26.5167 10.2813 26.5717 10.3423 26.6163C10.4394 26.6874 10.3925 26.7103 9.96063 26.8024C7.50631 27.3261 6.60569 27.9873 6.3241 29.4722C6.24657 29.881 6.25079 30.5254 6.33392 30.9777C6.41065 31.3951 6.7464 32.3104 6.82281 32.3104C6.95991 32.3104 8.03244 30.5436 7.98817 30.3906C7.97213 30.3351 7.9388 30.2407 7.91412 30.1809C7.87737 30.0915 7.90262 30.072 8.05513 30.072C8.19528 30.072 8.28276 30.0173 8.4109 29.8492L8.58089 29.6264L8.38609 29.4254C8.27896 29.3149 8.20721 29.2086 8.22661 29.1892C8.24607 29.1698 8.36545 29.178 8.49198 29.2074C8.61851 29.2367 8.7885 29.2615 8.8697 29.2623C9.00002 29.2636 9.01307 29.2424 8.98093 29.0815C8.9458 28.906 8.95177 28.9004 9.14414 28.9299C9.31052 28.9555 9.39533 28.9175 9.65336 28.7019C9.8236 28.5596 10.1034 28.3726 10.2751 28.2864C10.6637 28.0913 10.6412 28.1168 10.5593 27.9639C10.4945 27.8429 10.4999 27.8391 10.6436 27.9045C10.7783 27.9659 10.8346 27.9469 11.1047 27.7487C11.2738 27.6244 11.4379 27.5228 11.4693 27.5228C11.5006 27.5228 11.5901 27.7817 11.6682 28.098C11.7462 28.4143 12.0982 29.6803 12.4505 30.9114C12.8028 32.1425 13.1527 33.4183 13.2281 33.7466L13.3651 34.3435L14.1213 34.3852C14.5371 34.4081 15.0733 34.4654 15.3127 34.5126C15.552 34.5598 15.758 34.5887 15.7704 34.5769C15.8004 34.5484 14.8345 33.1187 14.7853 33.1187C14.7641 33.1187 14.5664 33.2494 14.3458 33.4093L13.9448 33.6999L14.3075 33.285C14.507 33.0568 14.6609 32.8491 14.6495 32.8234C14.5277 32.5493 14.075 31.813 14.0283 31.813C13.9949 31.813 13.8645 31.8886 13.7386 31.9811L13.5096 32.1493L13.6681 31.9655C14.0011 31.5797 14.0014 31.6368 13.6624 30.9181L13.349 30.2537L13.1511 30.3947L12.9531 30.5357L13.1261 30.3089L13.299 30.0821L13.106 29.5353C12.9998 29.2345 12.9027 28.9782 12.8902 28.9657C12.8777 28.9532 12.7881 28.9939 12.6911 29.0562L12.5147 29.1695L12.6804 28.9479L12.8461 28.7263L12.7278 28.2994C12.6627 28.0646 12.5849 27.7378 12.555 27.5733C12.4895 27.2129 12.4938 27.2118 13.1454 27.4306C13.6352 27.595 13.7272 27.5899 13.7272 27.3985C13.7272 27.2033 13.8354 27.2005 13.9028 27.394C13.9802 27.6159 14.1745 27.7465 14.5064 27.7998C14.6529 27.8233 14.8705 27.9298 15.0299 28.056C15.18 28.1748 15.375 28.2898 15.4632 28.3118C15.5513 28.3337 15.7581 28.4939 15.9227 28.6678L16.2219 28.984L16.3705 28.813C16.4523 28.7189 16.5353 28.642 16.555 28.642C16.5748 28.642 16.5832 28.7887 16.5736 28.9679C16.558 29.2597 16.5716 29.3005 16.7032 29.3565L16.8502 29.4192L16.812 31.6264C16.791 32.8404 16.7489 34.0435 16.7185 34.3C16.688 34.5565 16.6701 34.774 16.6785 34.7833C16.738 34.8494 19.5526 35.5511 20.4732 35.7295C20.8494 35.8023 21.2827 35.8863 21.4362 35.9159C21.5896 35.9457 21.7229 35.9622 21.7324 35.9527C21.7418 35.9433 21.5533 35.4262 21.3134 34.8037C21.0735 34.1813 20.7047 33.1627 20.494 32.5404C20.2832 31.918 20.1025 31.3983 20.0923 31.3853C20.0822 31.3724 19.6531 31.5309 19.1389 31.7377C18.6246 31.9443 18.2051 32.0948 18.2066 32.0721C18.2082 32.0492 18.5929 31.792 19.0615 31.5004C19.7956 31.0437 19.9128 30.949 19.9074 30.8165C19.9012 30.6636 19.3924 28.6334 19.3485 28.5863C19.3268 28.563 19.0982 28.6446 18.3437 28.9453C18.1642 29.0169 18.0173 29.0648 18.0173 29.0518C18.0173 29.0387 18.2971 28.853 18.6391 28.639C19.0383 28.3891 19.2608 28.2111 19.2608 28.1419C19.2608 28.0825 19.2083 27.772 19.1442 27.452C19.0801 27.1319 18.9782 26.5482 18.9177 26.155C18.8572 25.7617 18.8016 25.4322 18.7941 25.4226C18.7867 25.4131 18.5617 25.4896 18.2943 25.5926C18.0268 25.6956 17.8004 25.7723 17.7912 25.7631C17.782 25.7539 17.9994 25.6075 18.2743 25.4377L18.7742 25.1291L18.7397 24.8182C18.7206 24.6472 18.6741 24.1158 18.6362 23.6373C18.5983 23.1588 18.5557 22.7556 18.5415 22.7414C18.5273 22.7272 18.2877 22.8047 18.0092 22.9138C17.7307 23.0228 17.4942 23.1033 17.4836 23.0928C17.4731 23.0823 17.7148 22.9207 18.0206 22.7336L18.5766 22.3933L18.5768 21.2989C18.5768 20.6969 18.5945 20.0353 18.6161 19.8288L18.6554 19.4532L18.8582 19.5379C19.1837 19.6739 19.7944 20.0471 20.2253 20.3733L20.6246 20.6754L20.8552 20.2957C21.0494 19.9761 21.0933 19.935 21.1327 20.0355C21.1585 20.1012 21.1816 20.2529 21.1841 20.3726C21.1892 20.6119 21.382 20.9732 21.5823 21.1187C21.6528 21.17 21.9078 21.3099 22.1489 21.4296C22.5194 21.6135 22.637 21.7142 22.9083 22.0798C23.2661 22.5616 23.5303 22.8013 23.8774 22.9591C24.0615 23.0428 24.1105 23.0997 24.1105 23.23C24.1105 23.4619 24.3807 23.9772 24.6281 24.217L24.8368 24.4192L25.1409 24.168C25.3081 24.0297 25.4671 23.9167 25.494 23.9167C25.5607 23.9167 25.4954 24.1814 25.3125 24.6521C25.1699 25.0191 25.1663 25.0558 25.2583 25.1963C25.3126 25.2791 25.4696 25.4214 25.607 25.5123C25.7909 25.6341 25.8446 25.7039 25.8102 25.7765C25.6911 26.0278 25.7681 26.3175 26.1088 26.9011C26.2984 27.226 26.6347 27.8118 26.8559 28.2029C27.0772 28.594 27.2876 28.9238 27.3236 28.9358C27.4062 28.9634 27.6298 28.3531 27.7144 27.8689C27.9859 26.3157 27.3147 23.3461 26.2878 21.5578C25.2332 19.7211 23.9793 18.8291 21.095 17.8638L20.1002 17.5308L21.0816 17.484L22.0631 17.4371L22.2068 17.1542L22.3506 16.8714L22.5932 17.2183C22.7267 17.409 22.8919 17.5809 22.9603 17.6002C23.0287 17.6194 23.3326 17.6356 23.6356 17.636C24.1119 17.6368 24.2653 17.6664 24.7676 17.8545C25.5077 18.1318 25.6908 18.1361 25.8233 17.8798C25.9392 17.6557 25.9455 17.6597 26.1921 18.1181C26.2954 18.3101 26.4572 18.5239 26.5516 18.5932C26.7002 18.7023 26.7565 18.7104 26.9702 18.6533L27.217 18.5874L27.2572 18.8013C27.2932 18.9933 27.3425 19.0365 27.7401 19.2248C27.9838 19.3401 28.3354 19.5189 28.5216 19.622C28.7078 19.7251 28.8718 19.7978 28.886 19.7837C28.9215 19.7481 28.421 19.0377 27.7167 18.1241C25.9111 15.7816 24.404 14.839 22.4647 14.839C21.4082 14.839 20.3933 15.1454 19.3753 15.7718C19.2088 15.8743 19.0584 15.9582 19.0412 15.9582C18.9871 15.9582 19.3292 15.323 19.6257 14.873C19.7823 14.6352 20.0743 14.2656 20.2745 14.0515C20.539 13.7687 20.6284 13.6304 20.6015 13.5456C20.5235 13.2999 19.9188 12.7874 19.4196 12.544C18.6709 12.179 18.0225 12.035 16.9914 12.0049C16.2999 11.9847 16.0114 12.0034 15.5886 12.0959ZM16.1972 25.6616C16.336 25.7835 16.4511 25.8379 16.5163 25.8125C16.5725 25.7906 16.6463 25.7678 16.6805 25.7618C16.7451 25.7504 16.8749 27.3803 16.8143 27.4409C16.7961 27.4591 16.6747 27.369 16.5444 27.2406C15.8402 26.5472 14.7635 26.1604 13.5251 26.1562C13.3285 26.1555 13.1676 26.1324 13.1676 26.1048C13.1676 26.0771 13.3425 25.9987 13.5562 25.9305C13.8615 25.8331 13.9491 25.7772 13.9647 25.6699C13.9891 25.502 14.0053 25.5014 14.2287 25.6605C14.3879 25.7738 14.4364 25.7798 14.6735 25.7153C14.8198 25.6754 15.1429 25.6473 15.3914 25.6526C15.747 25.6602 15.851 25.642 15.8799 25.5667C15.9296 25.4372 15.9477 25.4426 16.1972 25.6616ZM31.4901 33.6484C30.462 34.638 29.7244 35.1833 28.8048 35.6339C27.5809 36.2337 26.5663 36.4988 25.0897 36.6051C23.2429 36.738 21.277 36.4666 18.0795 35.6376C15.4264 34.9497 15.0921 34.8907 13.8515 34.8907C12.6974 34.8907 12.4409 34.9433 11.5821 35.3561C10.9777 35.6467 10.4095 36.1458 10.0684 36.6857C9.8494 37.0326 9.62358 37.4866 9.62358 37.5801C9.62358 37.5975 9.8415 37.4036 10.1079 37.1491C10.3742 36.8947 10.7309 36.6182 10.9006 36.5347C11.1864 36.3941 11.2755 36.3832 12.1106 36.3874C13.2497 36.393 14.1912 36.5648 17.5199 37.3744C20.1704 38.019 20.5247 38.0977 21.5613 38.2719C23.6736 38.6268 25.6228 38.6001 27.0639 38.1964C27.667 38.0274 28.3766 37.7185 28.8986 37.3977C29.5725 36.9834 30.5249 36.0634 31.0035 35.3642C31.3512 34.8562 32.4197 32.8869 32.3714 32.8427C32.359 32.8313 31.9624 33.1939 31.4901 33.6484Z" fill="#22C2D1"/>
<path fill-rule="evenodd" clip-rule="evenodd" d="M34.6086 5.06172C33.5533 5.17326 32.4187 5.62783 31.5368 6.29242C31.0587 6.65261 30.46 7.2365 30.46 7.34251C30.46 7.37179 31.4602 7.46021 32.6828 7.53899C35.9961 7.7525 35.9865 7.74398 33.1025 7.90937C31.7004 7.98976 30.4029 8.0732 30.2192 8.09477L29.8852 8.13394L29.6753 8.53809C29.4324 9.00596 29.2572 9.53762 29.3251 9.60111C29.3657 9.63916 30.9546 9.75574 33.2136 9.88643C33.5824 9.90776 33.8988 9.94885 33.9167 9.97777C33.9346 10.0067 33.8566 10.0302 33.7435 10.03C33.3514 10.0294 29.1231 10.2916 29.0955 10.3182C29.0802 10.3329 29.0558 10.6798 29.0412 11.0892L29.0146 11.8334L29.1933 11.8347C29.2916 11.8355 29.9735 11.8768 30.7087 11.9267C31.444 11.9765 32.1381 12.0179 32.2512 12.0186C32.3644 12.0193 32.4428 12.0429 32.4255 12.0709C32.4081 12.099 31.6807 12.1593 30.8089 12.2049C29.9371 12.2505 29.194 12.3062 29.1576 12.3288C29.0781 12.3779 29.2518 13.1043 29.4777 13.6676C29.6227 14.0292 29.6358 14.0421 29.9037 14.0866C30.0558 14.112 30.488 14.1527 30.8642 14.1771C31.5296 14.2203 31.538 14.2226 31.175 14.2642C30.9699 14.2877 30.5851 14.31 30.3201 14.3137C30.0513 14.3174 29.8383 14.3473 29.8383 14.3814C29.8383 14.517 30.3109 15.1677 30.7297 15.6088C31.2914 16.2003 31.7529 16.5561 32.4034 16.8991C34.1417 17.8157 36.332 17.8528 38.0519 16.9945C38.8288 16.6068 39.5134 16.1108 39.4385 15.9897C39.4207 15.9607 39.46 15.937 39.5261 15.937C39.7261 15.937 40.4421 15.0845 40.8374 14.3757L41.032 14.0269L40.5802 13.9888C40.3317 13.9678 39.7126 13.9318 39.2045 13.9086C38.6965 13.8855 38.3188 13.8465 38.3652 13.8219C38.4116 13.7974 39.0511 13.7431 39.7864 13.7013C40.5216 13.6594 41.1554 13.5986 41.1947 13.5662C41.2695 13.5044 41.489 12.7342 41.5579 12.2913L41.598 12.0342L40.8321 11.9921C40.4108 11.969 39.4285 11.9098 38.6492 11.8606C37.8698 11.8115 37.1144 11.7678 36.9704 11.7636C36.7174 11.7563 36.7201 11.7544 37.0506 11.7067C37.2387 11.6796 38.1201 11.6106 39.0092 11.5535C39.8983 11.4965 40.8496 11.4312 41.1232 11.4084L41.6206 11.3671L41.6079 11.0251C41.5893 10.5219 41.5295 10.0724 41.468 9.97279C41.4101 9.87909 41.3094 9.87039 38.2009 9.69014C35.516 9.53445 35.2129 9.51412 35.2786 9.49398C35.3363 9.47632 35.905 9.43746 39.7506 9.18882C40.5346 9.13808 41.1869 9.08573 41.2001 9.07249C41.2358 9.0368 40.7324 8.05336 40.5128 7.7298C40.2361 7.32205 39.5057 6.58279 39.0403 6.23939C38.5038 5.84352 37.735 5.46493 37.0853 5.2766C36.6236 5.14286 35.49 4.9784 35.1943 5.00234C35.1381 5.00688 34.8746 5.03361 34.6086 5.06172Z" fill="#22C2D1"/>
<path fill-rule="evenodd" clip-rule="evenodd" d="M31.4644 33.6785C30.4363 34.6681 29.6987 35.2134 28.7791 35.664C27.5552 36.2638 26.5407 36.529 25.064 36.6352C23.2172 36.7681 21.2513 36.4968 18.0538 35.6677C15.4007 34.9799 15.0664 34.9208 13.8258 34.9208C12.6717 34.9208 12.4152 34.9734 11.5564 35.3862C10.952 35.6768 10.3838 36.1759 10.0428 36.7159C9.82372 37.0627 9.5979 37.5167 9.5979 37.6102C9.5979 37.6277 9.81583 37.4337 10.0822 37.1793C10.3485 36.9248 10.7053 36.6483 10.8749 36.5648C11.1607 36.4242 11.2498 36.4133 12.0849 36.4175C13.2241 36.4231 14.1655 36.5949 17.4942 37.4045C20.1447 38.0491 20.499 38.1278 21.5356 38.302C23.6479 38.6569 25.5971 38.6302 27.0382 38.2265C27.6413 38.0576 28.3509 37.7487 28.8729 37.4278C29.5468 37.0136 30.4992 36.0935 30.9778 35.3943C31.3256 34.8863 32.394 32.917 32.3458 32.8728C32.3333 32.8614 31.9367 33.224 31.4644 33.6785Z" fill="#22C2D1"/>
</svg>
