<svg width="45" height="45" viewBox="0 0 45 45" fill="none" xmlns="http://www.w3.org/2000/svg">
<rect x="1" y="1" width="43" height="43" stroke="#22C2D1" stroke-width="2"/>
<path fill-rule="evenodd" clip-rule="evenodd" d="M22.0217 5.21175C21.8975 5.33262 21.4394 6.50717 21.0037 7.82199C20.5679 9.13681 19.9757 10.9167 19.6876 11.7771L19.1639 13.3418L14.7563 13.374L10.3489 13.4063L10.1162 13.7134C9.96929 13.9071 9.91174 14.1232 9.96007 14.2988C10.0112 14.4841 11.1805 15.3817 13.4604 16.9856C15.3434 18.3104 16.9307 19.4355 16.9876 19.486C17.0446 19.5365 16.4821 21.3912 15.7376 23.6075C14.472 27.3749 14.3956 27.6578 14.5651 27.9532C14.6856 28.1632 14.8733 28.2816 15.1241 28.3057C15.4419 28.3364 16.0396 27.959 18.906 25.9181C20.7784 24.5849 22.3956 23.4946 22.4998 23.4953C22.6039 23.4959 24.2215 24.5867 26.0945 25.9192C28.957 27.9557 29.56 28.3361 29.8765 28.3057C30.1253 28.2816 30.314 28.1629 30.433 27.9555C30.6008 27.663 30.5211 27.3673 29.258 23.6015C27.9693 19.7594 27.9142 19.5532 28.1355 19.394C28.2633 19.3019 29.837 18.1934 31.6326 16.9305C33.7115 15.4686 34.9399 14.5256 35.0146 14.3343C35.1045 14.1039 35.0759 13.9609 34.8913 13.7201L34.6506 13.4063L30.2376 13.374L25.8248 13.3418L25.0233 10.9173C23.4345 6.11103 23.1403 5.30278 22.9239 5.14862C22.6171 4.93034 22.2871 4.95343 22.0217 5.21175ZM10.3146 27.9735C10.2715 28.0413 10.0234 28.716 9.76333 29.4728L9.29035 30.8488L7.66216 30.9102C6.34756 30.9599 6.02753 31.0072 6.00065 31.1559C5.98071 31.2669 6.42303 31.6572 7.1132 32.1374C7.7433 32.5758 8.31661 33.0024 8.38728 33.0851C8.47726 33.1907 8.37996 33.632 8.06207 34.5606C7.81258 35.2893 7.60852 35.9563 7.60852 36.0426C7.60852 36.4358 8.0468 36.2714 9.18018 35.453C9.88082 34.9471 10.4746 34.6025 10.5786 34.6413C10.678 34.6786 11.2728 35.0757 11.9002 35.5239C12.9224 36.2542 13.4136 36.4405 13.4136 36.0982C13.4136 36.0421 13.193 35.3573 12.9234 34.5762L12.4333 33.1561L13.7532 32.2145C14.4792 31.6965 15.05 31.2049 15.0217 31.1221C14.9855 31.0161 14.487 30.9616 13.3331 30.9375L11.6959 30.9035L11.2054 29.4368C10.7486 28.071 10.5059 27.6723 10.3146 27.9735ZM34.4101 27.9367C34.3334 27.9844 34.0523 28.6716 33.7854 29.4635L33.3001 30.9035L31.6645 30.9375C30.5121 30.9616 30.014 31.0161 29.9778 31.1221C29.9495 31.2049 30.5203 31.6965 31.2463 32.2145L32.5662 33.1561L32.0761 34.5762C31.8065 35.3573 31.5859 36.0421 31.5859 36.0982C31.5859 36.4405 32.0771 36.2542 33.0993 35.5239C33.7267 35.0757 34.3194 34.6793 34.4163 34.6431C34.5142 34.6066 35.135 34.9673 35.8135 35.4551C36.9579 36.2777 37.391 36.4372 37.391 36.0359C37.391 35.9457 37.1922 35.2974 36.9493 34.5953C36.7064 33.8932 36.5104 33.2604 36.5137 33.1893C36.5169 33.1181 37.0852 32.6729 37.7764 32.2C38.5453 31.6739 39.0199 31.2687 38.9994 31.1559C38.9721 31.0072 38.6516 30.9599 37.3373 30.9102L35.7092 30.8488L35.2261 29.4433C34.7132 27.9514 34.6307 27.799 34.4101 27.9367ZM22.2455 31.7911C22.1732 31.9484 21.9301 32.6299 21.7056 33.3055L21.2973 34.5339L19.6688 34.5953C18.5676 34.6368 18.0241 34.7042 17.9902 34.8034C17.9628 34.8841 18.4977 35.3481 19.1789 35.8346C19.8601 36.3211 20.4434 36.7408 20.4749 36.7674C20.5065 36.794 20.317 37.4523 20.0539 38.2304C19.6082 39.5488 19.5508 40 19.8292 40C19.8916 40 20.4892 39.6131 21.157 39.1402C21.8249 38.6672 22.4291 38.2803 22.4998 38.2803C22.5704 38.2803 23.1747 38.6672 23.8425 39.1402C24.5103 39.6131 25.1027 40 25.159 40C25.4363 40 25.3902 39.6132 24.9524 38.2712C24.6899 37.4664 24.4992 36.788 24.5286 36.7636C24.5579 36.7391 25.1394 36.3211 25.8206 35.8346C26.5018 35.3481 27.0367 34.8841 27.0093 34.8034C26.9754 34.7042 26.4327 34.6368 25.3339 34.5953L23.7085 34.5339L23.1988 33.0668C22.9185 32.2601 22.6189 31.5786 22.5331 31.5525C22.4474 31.5265 22.3179 31.6339 22.2455 31.7911Z" fill="#22C2D1"/>
</svg>
