<svg width="45" height="45" viewBox="0 0 45 45" fill="none" xmlns="http://www.w3.org/2000/svg">
<rect x="1" y="1" width="43" height="43" stroke="#22C2D1" stroke-width="2"/>
<path fill-rule="evenodd" clip-rule="evenodd" d="M15.5117 7.07485C13.9612 7.36462 12.5375 8.33344 11.8867 9.54167C11.3169 10.5997 11.0705 12.455 11.2136 14.6113C11.3408 16.5289 11.6925 17.3776 12.764 18.352C13.676 19.1813 14.8134 19.582 16.2719 19.5876C17.7752 19.5933 19.0771 18.9607 19.9556 17.7975C20.7769 16.7101 21.8422 13.7702 21.9741 12.2271C22.1615 10.0355 20.5392 7.93297 18.0936 7.19748C17.4172 6.99406 16.2426 6.9383 15.5117 7.07485ZM28.6064 7.90179C26.9122 8.2562 25.565 9.14905 24.9069 10.3534C24.4927 11.1116 24.4316 11.4862 24.4316 13.2671C24.4316 15.1753 24.316 17.6079 24.163 18.9201C24.102 19.4433 24.0521 19.9067 24.0521 19.9498C24.0521 20.0534 25.9108 19.9705 27.1048 19.8135L27.9943 19.6966L28.598 19.9237C29.4041 20.227 29.854 20.2691 30.7206 20.1227C31.4817 19.9941 32.2881 19.6738 32.9083 19.2537C33.1657 19.0793 33.5113 18.948 34.0715 18.8115C35.5251 18.4574 37.5153 17.6381 38.628 16.9359L39.1802 16.5874L38.8081 16.3783C37.4013 15.5874 35.3206 13.0091 34.0724 10.51C33.5346 9.43319 32.837 8.72977 31.8181 8.23665C30.9125 7.79841 29.7031 7.6723 28.6064 7.90179ZM11.6335 20.0859C10.473 20.2754 9.11973 20.865 8.64943 21.3863C7.68468 22.4555 6.67734 25.502 5.87382 29.7802C5.47365 31.9113 5 35.4698 5 36.3458V36.519H10.236H15.472L15.5058 36.3523C15.5245 36.2607 15.5779 35.8927 15.6245 35.5345C15.7826 34.3192 16.1494 33.2091 16.7458 32.1399C16.7603 32.114 16.5057 31.9108 16.1802 31.6883C15.4717 31.2039 14.8013 30.5176 14.5584 30.0281C14.2981 29.5035 14.2645 28.5723 14.4831 27.9416C14.6812 27.3701 14.8978 27.0271 15.3198 26.6161C15.6378 26.3064 16.5916 25.7814 16.8361 25.7814C16.929 25.7814 16.9867 25.6681 17.0532 25.3556C17.4828 23.3379 19.6624 21.8071 22.1734 21.7596C22.5804 21.7519 22.9135 21.7237 22.9135 21.6969C22.9137 21.5603 22.1904 20.9506 21.8016 20.7594C21.2063 20.4669 20.2734 20.1863 19.5233 20.0742C18.9423 19.9874 18.8944 19.991 18.6506 20.1379C18.5089 20.2234 18.0694 20.3991 17.6743 20.5282C16.1474 21.0274 13.9142 20.8597 12.688 20.1539C12.4135 19.9959 12.2501 19.9853 11.6335 20.0859ZM26.2903 20.657C25.7364 20.8438 25.2576 21.1375 24.7294 21.6147L24.2633 22.0356L24.8113 22.2787C26.2773 22.9291 27.2485 24.021 27.5482 25.3556C27.619 25.6712 27.6773 25.7814 27.7733 25.7814C27.8445 25.7814 28.1414 25.8978 28.4329 26.0402C29.9883 26.7993 30.7074 28.6463 30.0014 30.0687C29.7559 30.5633 28.9966 31.3214 28.2981 31.7695L27.8062 32.0849L28.1295 32.7283C28.5402 33.5459 28.806 34.4611 28.9669 35.6115L29.0938 36.519H34.5469H40L39.9575 35.908C39.7967 33.5984 39.7409 32.9151 39.6077 31.6315C39.2183 27.8766 38.5677 24.5145 37.9793 23.2165C37.4498 22.0486 36.2861 21.1761 34.6352 20.7094C33.7882 20.4699 33.5117 20.4754 32.9225 20.7434C32.0614 21.135 31.5702 21.2259 30.3142 21.2259C29.0558 21.2259 28.5702 21.1355 27.7312 20.7448C27.187 20.4914 26.843 20.4705 26.2903 20.657ZM21.1348 23.012C19.9632 23.2885 18.8618 24.073 18.4221 24.9444C18.2106 25.3635 18.1712 25.5303 18.1449 26.1158L18.1143 26.7985L17.5872 26.8462C16.9239 26.9064 16.429 27.1446 16.0155 27.603C15.5416 28.1283 15.3753 28.798 15.5588 29.4428C15.6509 29.7664 16.3101 30.4511 16.9476 30.8852L17.3196 31.1385L17.2644 30.924C16.9223 29.5944 17.0809 28.6596 17.7526 28.0466C17.9574 27.8597 18.1521 27.7069 18.1852 27.7071C18.2183 27.7074 18.3192 28.0156 18.4096 28.3921C18.6928 29.5733 18.8565 29.9088 19.415 30.4521C20.2191 31.2345 21.0594 31.5551 22.3093 31.5566C23.5217 31.5581 24.3548 31.2589 25.1191 30.5477C25.6341 30.0684 25.9317 29.4774 26.1836 28.4338L26.3566 27.7168L26.5594 27.8191C26.8865 27.9841 27.2248 28.4163 27.3507 28.8299C27.4967 29.3098 27.502 30.2381 27.3614 30.6941C27.3029 30.8838 27.2729 31.0391 27.2948 31.0391C27.4132 31.0391 28.3309 30.3268 28.6284 30.0041C29.3347 29.2377 29.2338 28.1361 28.3891 27.3915C27.9388 26.9946 27.6429 26.8722 27.042 26.8341L26.5023 26.8L26.4577 26.1276C26.4197 25.5563 26.3721 25.3745 26.1414 24.9189C25.6847 24.0176 24.6509 23.2852 23.4449 23.0087C22.835 22.8689 21.7346 22.8705 21.1348 23.012ZM18.646 31.9317C17.8181 32.3582 17.1892 33.5193 16.8831 35.186C16.7626 35.8428 16.6136 37.2439 16.6135 37.7223L16.6134 38H22.3171H28.0209L27.9683 37.241C27.8942 36.1731 27.7222 35.0306 27.5367 34.3753C27.1952 33.1688 26.533 32.1807 25.8708 31.8894C25.5618 31.7535 25.5463 31.7533 25.3149 31.8855C24.1575 32.5465 23.1239 32.7996 21.9268 32.7151C20.9988 32.6497 20.2439 32.4254 19.4755 31.9872C19.0482 31.7434 19.0157 31.7413 18.646 31.9317Z" fill="#22C2D1"/>
</svg>
