<svg width="45" height="45" viewBox="0 0 45 45" fill="none" xmlns="http://www.w3.org/2000/svg">
<rect x="1" y="1" width="43" height="43" stroke="#22C2D1" stroke-width="2"/>
<path fill-rule="evenodd" clip-rule="evenodd" d="M36.5477 5.03384C36.3256 5.10027 36.0869 5.25567 35.963 5.41438C35.9053 5.48831 35.2478 6.79938 34.5019 8.32787C32.2463 12.9499 29.3183 18.9443 29.0681 19.4521C28.6107 20.3805 27.8483 21.9593 27.8483 21.9781C27.8483 21.9886 27.954 22.0336 28.0832 22.0782C28.4467 22.2036 29.1934 22.6072 29.4975 22.8425C29.6484 22.9593 29.7972 23.0744 29.8282 23.0984C29.8777 23.1366 30.0692 22.7636 31.4042 20.0287C32.24 18.3164 34.0535 14.6032 35.4342 11.7771C37.2338 8.09358 37.9545 6.58432 37.9797 6.44646C38.0791 5.90343 37.8057 5.33824 37.3332 5.10972C37.1079 5.00083 36.7679 4.968 36.5477 5.03384ZM26.27 23.1319C25.7036 23.24 24.9142 23.6501 24.2756 24.168C24.1252 24.29 23.6496 24.7166 23.2189 25.116C21.2148 26.9743 20.4603 27.4609 18.6417 28.0677C16.5754 28.7572 14.4768 29.1851 12.0457 29.4126C10.6091 29.547 10.3426 29.5581 8.4605 29.5614C6.32405 29.5651 6.43833 29.5526 6.20324 29.8066C6.06258 29.9586 5.97441 30.2575 6.00664 30.4731C6.04089 30.702 6.38079 31.5864 6.65257 32.1539C7.70424 34.3497 9.47632 36.2936 11.8131 37.8147C14.0349 39.2611 16.9836 40.4403 19.6753 40.9589C19.9325 41.0084 20.063 41.0113 20.5455 40.9777C23.9543 40.7408 26.5065 39.3067 28.1557 36.7018C29.3841 34.7615 30.1317 32.3077 30.3591 29.47C30.4148 28.7753 30.4148 27.0809 30.3591 26.6856C30.1505 25.2058 29.446 24.1154 28.3105 23.5151C27.5382 23.1069 26.9652 22.9992 26.27 23.1319ZM23.6099 28.3788C25.0687 29.2122 26.8607 30.1193 27.7613 30.48C28.3647 30.7218 28.3968 30.8029 28.2513 31.7171C27.8899 33.9869 27.1217 35.7176 25.9113 36.9883C24.6973 38.2631 23.0778 39.0177 21.0242 39.2655C20.1483 39.3712 19.946 39.3511 18.7548 39.0393C18.4724 38.9655 18.2414 38.895 18.2414 38.8828C18.2414 38.8706 18.3628 38.7978 18.5112 38.721C19.1934 38.3678 20.0133 37.8065 21.0521 36.9818C21.5832 36.5601 21.7222 36.4322 21.7222 36.3649C21.7222 36.1829 21.6498 36.1814 21.2109 36.3548C19.766 36.9257 17.5235 37.4074 15.1783 37.6507L14.9521 37.6742L14.4053 37.3983C13.8506 37.1185 13.3804 36.8522 12.8481 36.5164L12.5541 36.3309L13.0289 36.2497C13.8721 36.1054 14.9536 35.7863 16.0377 35.3621C16.4535 35.1994 16.5213 35.1521 16.4682 35.0614C16.4476 35.026 16.3194 35.0255 15.8711 35.059C15.2056 35.1087 12.7128 35.1203 11.6226 35.0788L10.8688 35.05L10.4418 34.642C9.95378 34.1756 9.94626 34.2279 10.5141 34.1388C11.1739 34.0352 12.2522 33.7187 13.29 33.324C13.8406 33.1146 13.8905 33.0884 13.8905 33.0074C13.8905 32.9213 13.885 32.9197 13.6729 32.9407C13.3058 32.9771 9.36031 33.0059 9.15811 32.9737L8.9681 32.9435L8.66837 32.4708C8.50352 32.2109 8.3078 31.8783 8.23345 31.7316C8.10094 31.4703 8.09948 31.4631 8.15837 31.3682C8.2149 31.2771 8.23544 31.2712 8.50481 31.2681C8.66232 31.2663 8.91648 31.2593 9.06963 31.2525C9.22279 31.2457 9.6734 31.2306 10.071 31.2189C14.7163 31.0821 19.1995 30.0049 22.0493 28.3408C22.714 27.9528 22.7051 27.9569 22.8255 27.9763C22.8867 27.9861 23.2397 28.1673 23.6099 28.3788ZM33.311 33.598C32.5153 33.8845 32.0245 34.5943 32.0256 35.457C32.0264 36.0381 32.1827 36.4427 32.562 36.8446C33.6574 38.0053 35.4818 37.3664 35.7214 35.7381C35.8614 34.7872 35.2516 33.82 34.3527 33.5673C34.0622 33.4856 33.5839 33.4997 33.311 33.598ZM34.7051 38.8053C34.449 38.8876 34.1983 39.126 34.0947 39.3859C34.0122 39.5929 34.0209 39.9321 34.1146 40.1622C34.2523 40.5004 34.6192 40.7562 34.9664 40.7562C35.3136 40.7562 35.6805 40.5004 35.8182 40.1622C36.0923 39.4894 35.6317 38.7596 34.9423 38.7741C34.8598 38.7759 34.7531 38.7899 34.7051 38.8053ZM29.5507 39.0465C29.4628 39.0763 29.3198 39.1668 29.2329 39.2475C28.7302 39.7149 28.8212 40.5327 29.4121 40.8573C29.5891 40.9545 29.6694 40.9767 29.844 40.9764C30.6458 40.9751 31.069 39.9833 30.5467 39.3298C30.3313 39.0603 29.8846 38.9332 29.5507 39.0465Z" fill="#22C2D1"/>
</svg>
