<svg width="45" height="45" viewBox="0 0 45 45" fill="none" xmlns="http://www.w3.org/2000/svg">
<rect x="1" y="1" width="43" height="43" stroke="#22C2D1" stroke-width="2"/>
<path fill-rule="evenodd" clip-rule="evenodd" d="M18.3029 9.03148C17.3669 9.16144 16.4862 9.67525 16.0052 10.3719C15.6854 10.8351 15.5212 11.2965 15.4593 11.9064C15.3479 13.0036 15.6925 13.978 16.4279 14.6456C17.5944 15.7044 19.5628 15.8377 20.9709 14.9532C21.6273 14.5408 22.0993 13.8994 22.2972 13.1507C22.3624 12.9041 22.3711 12.795 22.3689 12.2534C22.3661 11.5742 22.3337 11.3967 22.1237 10.9106C21.6118 9.72543 20.341 8.98386 18.8501 9.00027C18.6574 9.00239 18.4112 9.01643 18.3029 9.03148ZM9.57518 9.49902C9.21199 9.56265 9.08442 9.75439 9.03317 10.3136C9.01385 10.5246 9.00144 15.3924 9.00089 22.9672L9 35.278L9.06769 35.4259C9.19726 35.7091 9.56553 35.9709 9.83071 35.9684C10.0496 35.9663 10.3413 35.7399 10.4674 35.4744L10.5449 35.3114L10.5436 22.8474C10.5427 14.8146 10.5307 10.3051 10.5098 10.1631C10.457 9.80423 10.3574 9.62633 10.1658 9.54851C10.035 9.49536 9.73808 9.4705 9.57518 9.49902ZM27.5366 9.57425C27.3877 9.67092 27.2889 9.81963 27.2463 10.011C27.2215 10.1225 27.211 13.9054 27.211 22.779C27.211 33.8874 27.2169 35.4074 27.2602 35.5479C27.3605 35.8734 27.5566 35.9989 27.9669 36C28.3617 36.0011 28.5942 35.8495 28.6875 35.5301C28.7309 35.3815 28.7328 10.0657 28.6894 9.91984C28.602 9.62586 28.3814 9.50234 27.9438 9.50234C27.6897 9.50234 27.6314 9.51262 27.5366 9.57425ZM15.6501 16.5548C15.293 16.6138 14.9959 16.8279 14.8304 17.1456C14.7553 17.2899 13.6697 20.4124 12.6726 23.3523C12.21 24.7163 12.206 24.7304 12.2031 25.0288C12.2003 25.3081 12.2078 25.3449 12.3079 25.541C12.4972 25.9117 12.8387 26.1243 13.2992 26.158C13.9747 26.2075 14.3735 25.7695 14.875 24.4274C14.9693 24.1752 15.0482 23.9666 15.0505 23.9638C15.0528 23.961 15.0952 23.9662 15.1448 23.9754L15.2351 23.9921L15.2356 29.2454C15.2361 33.6925 15.2434 34.5316 15.2834 34.7133C15.3944 35.2182 15.717 35.6239 16.175 35.8347C16.4319 35.9529 16.434 35.9533 16.8592 35.9533C17.2734 35.9533 17.2923 35.9503 17.5135 35.8493C17.6389 35.7921 17.8037 35.6961 17.8799 35.6359C18.0646 35.49 18.2692 35.1886 18.3588 34.9303C18.4317 34.7201 18.4317 34.7187 18.4533 31.4315C18.4652 29.6227 18.4863 28.0611 18.5001 27.9611L18.5253 27.7792H18.8768H19.2283L19.2539 28.0401C19.268 28.1836 19.2889 29.7737 19.3003 31.5738L19.3211 34.8465L19.3941 35.0197C19.592 35.4896 19.9529 35.7909 20.4747 35.9219C20.6898 35.9759 21.0901 35.9825 21.3014 35.9355C21.8462 35.8145 22.3115 35.3532 22.4159 34.8307C22.4974 34.4227 22.5236 32.8598 22.5143 28.959C22.5091 26.771 22.5173 24.7398 22.5326 24.4454C22.5574 23.9669 22.5654 23.9164 22.608 23.971C22.6857 24.0707 22.8774 24.4468 23.0743 24.8859C23.4098 25.6344 23.6268 25.936 23.9367 26.0849C24.3637 26.2899 25.0567 26.106 25.3372 25.7132C25.495 25.492 25.5459 25.2947 25.5316 24.9587C25.5198 24.6799 25.493 24.5873 25.0165 23.1784C23.8785 19.8133 23.0357 17.3805 22.9461 17.202C22.8206 16.9519 22.6171 16.7571 22.355 16.6363L22.1418 16.538L18.9755 16.5333C17.2341 16.5307 15.7377 16.5404 15.6501 16.5548ZM33.2473 16.7673C33.1942 16.8499 32.665 17.6787 32.0714 18.6092L30.9921 20.3009L32.2538 20.3092C32.9478 20.3137 34.0746 20.3137 34.7578 20.3092L36 20.3009L34.8384 18.4827C33.8321 16.9076 33.6646 16.6618 33.5855 16.6445C33.3797 16.5994 33.3479 16.611 33.2473 16.7673ZM31.0171 23.0836C31.0171 23.1095 33.2832 26.6534 33.3249 26.6927C33.349 26.7155 33.417 26.7213 33.5096 26.7085L33.6561 26.6883L34.0752 26.0559C34.8124 24.9437 35.3348 24.1118 35.8376 23.2495L35.9436 23.0677H33.4803C32.1256 23.0677 31.0171 23.0749 31.0171 23.0836Z" fill="#22C2D1"/>
</svg>
