<svg width="45" height="45" viewBox="0 0 45 45" fill="none" xmlns="http://www.w3.org/2000/svg">
<rect x="1" y="1" width="43" height="43" stroke="#22C2D1" stroke-width="2"/>
<path fill-rule="evenodd" clip-rule="evenodd" d="M36.8043 9.1064C36.2388 9.75952 35.3317 11.5112 34.9471 12.6926C34.4125 14.3344 34.3145 15.2785 34.3164 18.7697C34.3176 21.258 34.3265 21.4807 34.4342 21.7199C34.5986 22.0851 34.8815 22.2694 35.3278 22.3019C35.612 22.3226 35.6914 22.351 35.6909 22.4313C35.6904 22.4879 35.6493 23.0028 35.5995 23.5756C35.337 26.5943 35.042 31.9022 35.0775 32.9694C35.1047 33.7913 35.2015 34.0972 35.5672 34.5173C36.3338 35.398 37.5187 35.0199 37.8936 33.775C38.023 33.3453 38.0242 33.2995 37.9515 31.4383C37.8648 29.217 37.6734 26.1022 37.5246 24.4908C37.4367 23.5393 37.414 22.2048 37.3848 16.2797C37.3558 10.4142 37.3351 9.18681 37.264 9.10028C37.1519 8.96408 36.9249 8.96711 36.8043 9.1064ZM6.52707 10.3165C6.39829 10.4464 6.34416 10.5631 6.3441 10.711C6.34403 10.8265 6.27201 12.0712 6.18397 13.4771C6.09599 14.883 6.01858 16.4735 6.01201 17.0116L6 17.9899L6.19961 18.4149C6.45022 18.9486 6.72493 19.2954 7.12578 19.5844C7.86303 20.116 8.05282 20.4148 8.05733 21.051C8.05889 21.2766 7.98418 22.2991 7.89125 23.3231C7.62957 26.2072 7.34348 30.932 7.32708 32.6405C7.31901 33.4833 7.33271 33.6164 7.46112 33.9416C7.62957 34.3683 8.05708 34.8296 8.38528 34.9388C8.96697 35.1325 9.59228 34.8569 9.95515 34.247C10.2994 33.6682 10.315 33.4627 10.1984 31.0232C10.0306 27.5113 9.72 23.0698 9.53503 21.5369C9.42746 20.6455 9.64134 20.1471 10.3354 19.6717C11.1776 19.0948 11.6004 18.2916 11.6004 17.2684C11.6005 16.3533 11.2209 10.5418 11.1521 10.4044C11.0534 10.2073 10.759 10.0959 10.5684 10.1834C10.2158 10.3455 10.2195 10.2911 10.3641 13.2878C10.437 14.7978 10.4765 16.1133 10.4519 16.211C10.3593 16.5784 9.75028 16.6409 9.54197 16.3044C9.47696 16.1994 9.44079 15.5117 9.38685 13.352C9.30938 10.2528 9.30926 10.2521 8.91641 10.165C8.70241 10.1176 8.38728 10.256 8.31413 10.4295C8.28798 10.4915 8.23441 11.8062 8.19512 13.3509C8.14574 15.2923 8.1005 16.2013 8.04869 16.2949C7.95339 16.467 7.63614 16.5823 7.45254 16.5115C7.37639 16.4821 7.25981 16.3973 7.19348 16.323C7.07434 16.1896 7.07453 16.153 7.21119 13.3519C7.35943 10.3115 7.36112 10.3433 7.04856 10.1996C6.82142 10.0952 6.72505 10.1168 6.52707 10.3165ZM20.9026 10.7952C16.3428 11.5423 12.8358 15.0178 12.03 19.5881C11.8477 20.6221 11.8488 22.1805 12.0327 23.2241C12.3603 25.0837 13.1619 26.8253 14.3504 28.2593C16.0423 30.3005 18.4091 31.6248 21.0492 32.0073C22.0168 32.1475 23.6876 32.1005 24.5846 31.9078C26.0187 31.5997 27.4906 30.9602 28.6207 30.154C29.3445 29.6378 30.534 28.4635 31.0492 27.7568C32.0066 26.4432 32.6685 24.8732 32.9796 23.1776C33.1149 22.4406 33.133 20.4778 33.0109 19.7887C32.5596 17.2406 31.5623 15.3334 29.7852 13.6197C28.3728 12.2578 26.5939 11.3233 24.5846 10.8877C23.7611 10.7092 21.738 10.6584 20.9026 10.7952ZM23.646 13.383C24.5489 13.5194 25.1106 13.6956 25.9638 14.1097C27.8164 15.009 29.255 16.5635 30.0007 18.4718C30.4135 19.5281 30.6022 20.927 30.4926 22.1186C30.0318 27.1325 25.2273 30.5178 20.4157 29.219C17.4912 28.4296 15.202 25.9482 14.5981 22.9129C14.4813 22.3262 14.4806 20.4755 14.5969 19.8833C15.0646 17.5017 16.6109 15.3965 18.7434 14.2379C20.2139 13.439 21.979 13.1313 23.646 13.383ZM21.5086 15.5228C19.5476 15.9006 17.9843 17.1152 17.1368 18.9195C16.7459 19.7518 16.6461 20.2559 16.6461 21.3981C16.6461 22.2341 16.669 22.4916 16.7793 22.8938C17.3732 25.0601 19.0312 26.6734 21.2221 27.2168C21.876 27.3791 23.1829 27.3638 23.8886 27.1857C25.6362 26.7446 27.1443 25.4836 27.8793 23.8488C28.5188 22.4261 28.5643 20.7105 28.0013 19.2481C27.63 18.2836 26.9688 17.3825 26.149 16.7238C25.5927 16.2768 24.613 15.7908 23.9276 15.6219C23.2409 15.4527 22.1123 15.4065 21.5086 15.5228Z" fill="#22C2D1"/>
</svg>
