<svg width="45" height="45" viewBox="0 0 45 45" fill="none" xmlns="http://www.w3.org/2000/svg">
<rect x="1" y="1" width="43" height="43" stroke="#22C2D1" stroke-width="2"/>
<path fill-rule="evenodd" clip-rule="evenodd" d="M17.0772 8.06526C16.9055 8.10148 16.6485 8.19118 16.4638 8.27934C15.6221 8.68106 15.0404 9.38259 14.7898 10.2979L14.7146 10.573V18.2149V25.8568L14.8053 25.9939C14.9205 26.1683 15.1046 26.2606 15.3334 26.2589C15.5382 26.2574 15.7298 26.1456 15.8399 25.9635C15.9064 25.8533 15.9076 25.7491 15.9244 18.2465L15.9414 10.6412L16.0325 10.4066C16.2093 9.95104 16.5034 9.61965 16.9126 9.41451C17.2179 9.26152 17.3938 9.22837 17.9943 9.21063C18.5793 9.19334 18.6963 9.15913 18.8472 8.96116C18.9175 8.86884 18.9401 8.79609 18.9489 8.63345C18.9628 8.3748 18.8699 8.19104 18.667 8.07607C18.5405 8.00442 18.4922 7.99934 17.952 8.00104C17.5271 8.00237 17.294 8.01949 17.0772 8.06526ZM30.4721 8.06482C29.5477 8.26003 28.699 8.97265 28.3275 9.86571C28.1636 10.2597 28.0914 10.6654 28.0909 11.1954L28.0905 11.6473H22.3141H16.5378V12.2612V12.875H22.3141H28.0905V14.0857V15.2965H22.3141H16.5378V15.9103V16.5242H22.3141H28.0905V17.7349V18.9457H22.3141H16.5378V19.5595V20.1734H22.3141H28.0905V21.3841V22.5948H22.3141H16.5378V23.2087V23.8226H22.3141H28.0905L28.0912 24.8031C28.0919 25.6855 28.0983 25.7976 28.1554 25.9234C28.2285 26.0845 28.3531 26.1839 28.559 26.2456C28.8231 26.3246 29.1256 26.1686 29.2532 25.8873C29.3133 25.755 29.3158 25.4527 29.3165 18.2685C29.3172 11.5545 29.3228 10.766 29.3713 10.5779C29.5356 9.9402 30.0782 9.40325 30.6975 9.26554C30.7912 9.2447 31.1004 9.2196 31.3845 9.20978C31.6687 9.19996 31.9294 9.18171 31.9639 9.16923C32.4228 9.00304 32.4841 8.32991 32.0629 8.08286C31.9238 8.00128 31.8965 7.99818 31.342 8.00046C30.9232 8.0022 30.6854 8.0198 30.4721 8.06482ZM11.7358 26.2971C11.672 26.3249 11.5568 26.4056 11.4799 26.4766C10.8709 27.0384 9.89741 27.4082 8.89458 27.4587C8.41754 27.4827 8.32512 27.5107 8.17555 27.6764C7.93274 27.9453 7.94228 28.2575 8.20125 28.5167C8.38394 28.6995 8.52935 28.7232 9.1366 28.6695C10.0431 28.5891 10.94 28.2886 11.7046 27.8091L11.9698 27.6428L12.2005 27.7917C13.6241 28.7108 15.4927 28.9431 17.1342 28.4052C17.4927 28.2877 18.1042 27.9975 18.4086 27.8004L18.6521 27.6428L18.9181 27.8096C20.4682 28.7818 22.4438 28.9633 24.1408 28.2895C24.5023 28.146 24.9207 27.9303 25.1915 27.7478C25.2746 27.6918 25.3589 27.6558 25.3789 27.6678C25.3989 27.6798 25.492 27.7383 25.5857 27.7979C25.8608 27.9727 26.4139 28.2398 26.7443 28.3575C28.4148 28.9522 30.3501 28.7368 31.8111 27.7938L32.0388 27.6468L32.3974 27.8624C33.2105 28.3511 34.0932 28.6235 35.0624 28.6847C35.4819 28.7112 35.6234 28.6831 35.7943 28.5391C35.9385 28.4177 35.9967 28.2873 35.9967 28.0857C35.9967 27.7035 35.7249 27.4726 35.2736 27.4711C34.6718 27.4693 33.9537 27.3016 33.3833 27.0297C32.9923 26.8433 32.7934 26.7145 32.5357 26.481C32.1515 26.1327 31.9309 26.1579 31.3909 26.6115C31.0425 26.9042 30.4425 27.1898 29.8796 27.3309C29.0811 27.5309 28.0611 27.5081 27.301 27.2732C26.7467 27.1018 26.2531 26.8381 25.9053 26.5276C25.4844 26.1516 25.2449 26.1489 24.8244 26.5148C23.6447 27.5417 21.5598 27.7732 20.0267 27.0476C19.6829 26.8849 19.3557 26.6737 19.1418 26.4764C18.8212 26.1806 18.5167 26.1721 18.2076 26.4505C17.7133 26.8958 16.982 27.2437 16.2311 27.3909C16.0905 27.4185 15.7685 27.4497 15.5154 27.4603C14.3073 27.5109 13.1926 27.1441 12.3972 26.4343C12.1887 26.2483 11.9584 26.2005 11.7358 26.2971ZM11.7812 29.9299C11.7236 29.9466 11.5892 30.0367 11.4825 30.1301C11.1995 30.378 11.0203 30.4935 10.6315 30.6789C10.0592 30.9517 9.35079 31.1203 8.77527 31.1208C8.2966 31.1212 8.01303 31.3473 8.00802 31.7325C8.00529 31.9426 8.10177 32.1309 8.26852 32.241C8.40142 32.3286 8.42163 32.3316 8.8681 32.3276C9.80516 32.3191 10.9075 31.9816 11.7239 31.453L11.9589 31.3009L12.2292 31.4688C13.3372 32.1575 14.6805 32.4603 15.9755 32.3134C16.7379 32.2269 17.6185 31.9287 18.2825 31.5321L18.6661 31.303L18.8714 31.4366C19.1543 31.6208 19.7655 31.9141 20.1296 32.0405C20.2964 32.0984 20.6261 32.1869 20.8623 32.2372C21.2503 32.3197 21.3609 32.3285 22.0074 32.3285C22.6539 32.3285 22.7645 32.3197 23.1525 32.2372C23.3887 32.1869 23.7184 32.0984 23.8852 32.0405C24.2501 31.9139 24.8606 31.6207 25.1451 31.4355L25.352 31.3009L25.6733 31.5002C26.945 32.2893 28.6428 32.5508 30.0909 32.1808C30.6987 32.0256 31.3947 31.726 31.8483 31.4245L32.045 31.2938L32.2743 31.4419C32.9863 31.9016 33.8755 32.214 34.7621 32.3159C35.2689 32.3741 35.5803 32.352 35.7339 32.2467C35.9056 32.1289 35.9967 31.9523 35.9967 31.7371C35.9967 31.3405 35.7272 31.1212 35.2395 31.1208C34.2927 31.12 33.2147 30.7322 32.5717 30.161C32.1806 29.8136 31.9158 29.8093 31.5408 30.1442C30.364 31.195 28.2655 31.4349 26.7061 30.6968C26.346 30.5264 26.0651 30.3424 25.8242 30.1192C25.4996 29.8183 25.2104 29.8235 24.8652 30.1364C24.6254 30.3537 24.3741 30.5141 23.9858 30.6979C22.4336 31.4326 20.3075 31.1857 19.1496 30.1364C18.9733 29.9765 18.7971 29.8939 18.6318 29.8934C18.5529 29.8932 18.2076 30.0567 18.2076 30.0942C18.2076 30.1358 17.7591 30.4603 17.5261 30.5874C17.2015 30.7644 16.7401 30.9333 16.3333 31.0241C16.0252 31.0929 15.8832 31.1039 15.3109 31.1039C14.7387 31.1039 14.5967 31.0929 14.2886 31.0241C13.8818 30.9333 13.4204 30.7644 13.0958 30.5874C12.8628 30.4603 12.4143 30.1358 12.4143 30.0942C12.4143 30.0508 12.0627 29.8931 11.9731 29.8963C11.9252 29.898 11.8389 29.9131 11.7812 29.9299ZM11.8101 33.5834C11.7109 33.6047 11.6084 33.667 11.4817 33.7829C10.8654 34.3466 9.91551 34.707 8.88711 34.7673C8.40357 34.7957 8.29121 34.8322 8.14232 35.0093C7.89631 35.3018 7.9873 35.7574 8.32631 35.9305C8.63023 36.0857 9.66469 35.9708 10.522 35.6868C10.8128 35.5904 11.5185 35.2458 11.7569 35.0838L11.9584 34.9469L12.1948 35.1002C12.7388 35.4528 13.441 35.7355 14.1488 35.8868C14.5385 35.9701 14.6461 35.9787 15.3109 35.9793C15.9449 35.9799 16.0942 35.9694 16.4185 35.9017C17.1355 35.7522 17.8936 35.4501 18.4271 35.1015L18.6635 34.9469L18.865 35.0838C19.3491 35.4128 20.2104 35.7602 20.8828 35.8977C21.3293 35.9889 22.2351 36.0227 22.6942 35.9651C23.0854 35.9161 23.7031 35.7661 24.0485 35.6363C24.3495 35.5231 24.9504 35.2193 25.1749 35.0669L25.3435 34.9524L25.6179 35.123C26.1944 35.4814 26.8855 35.7535 27.5963 35.9017C27.9198 35.9692 28.0715 35.9799 28.7039 35.9799C29.3426 35.9798 29.4846 35.9696 29.8114 35.9C30.5465 35.7434 31.2748 35.4536 31.8175 35.1018L32.0515 34.9501L32.2776 35.0996C33.0559 35.6145 34.1125 35.9473 35.0996 35.9886C35.5355 36.0069 35.5529 36.0049 35.6963 35.9208C36.1102 35.6781 36.0987 35.0685 35.6762 34.8486C35.6127 34.8155 35.4066 34.7864 35.1012 34.7673C34.05 34.7014 33.1732 34.3639 32.5274 33.7767C32.3285 33.5959 32.1449 33.5267 31.9571 33.562C31.833 33.5853 31.8155 33.5964 31.3736 33.9346C30.9183 34.283 30.463 34.4926 29.7959 34.6609C29.4643 34.7445 29.3813 34.7516 28.7209 34.7524C28.1014 34.753 27.9595 34.7428 27.6642 34.6766C26.9516 34.5167 26.3113 34.2048 25.8298 33.7831C25.7208 33.6876 25.5769 33.5971 25.5021 33.577C25.3337 33.5316 25.1232 33.5757 24.9915 33.6841C24.938 33.7281 24.8139 33.8298 24.7158 33.9101C24.3162 34.2372 23.721 34.5142 23.1008 34.6616C22.7577 34.7432 22.6589 34.7515 22.0244 34.7523C21.4153 34.753 21.28 34.7429 20.968 34.6735C20.267 34.5175 19.619 34.2037 19.1701 33.8029C18.9787 33.632 18.7949 33.5404 18.6507 33.5441C18.5268 33.5473 18.3355 33.6472 18.1512 33.805C17.6636 34.2225 17.078 34.5074 16.3674 34.6728C15.9368 34.7731 15.0354 34.7968 14.5442 34.7209C13.762 34.5999 13.0087 34.2696 12.4824 33.8169C12.1963 33.5708 12.0712 33.5273 11.8101 33.5834Z" fill="#22C2D1"/>
</svg>
