<svg width="45" height="45" viewBox="0 0 45 45" fill="none" xmlns="http://www.w3.org/2000/svg">
<rect x="1" y="1" width="43" height="43" stroke="#22C2D1" stroke-width="2"/>
<path fill-rule="evenodd" clip-rule="evenodd" d="M18.9059 7.32954C18.3991 7.50628 17.6511 7.86975 17.2437 8.13726C16.2454 8.79265 14.9834 10.2338 14.4257 11.3556C13.8979 12.4171 13.3998 14.2785 13.3998 15.1891V15.8163H12.0142C11.0408 15.8163 10.547 15.8773 10.3543 16.0214C10.0922 16.2173 10.0783 16.4756 10.04 21.876L10 27.5258L10.3515 27.8854L10.7029 28.245H13.9429C16.9223 28.245 17.2095 28.2227 17.5162 27.9687L17.8497 27.6925V21.9595C17.8497 16.4513 17.839 16.2185 17.5755 16.0214C17.3824 15.877 16.8875 15.8163 15.9018 15.8163H14.5023L14.5996 14.9131C15.0553 10.6899 18.4636 7.62334 21.9679 8.28394C22.4846 8.38135 23.1045 8.56287 23.3452 8.6873C23.8956 8.97171 24.7012 9.58404 24.7008 9.71772C24.7007 9.77322 24.4246 9.99708 24.0874 10.215C21.0823 12.1572 19.9273 16.2332 21.4545 19.5069C21.9194 20.5036 23.216 22.0546 23.8762 22.4039L24.2773 22.6161V29.0604V35.5045L25.8665 37.1858C27.5031 38.9172 27.7322 39.1007 28.0874 38.964C28.4676 38.8176 31.2099 35.9821 31.2914 35.651C31.3524 35.4027 31.1791 35.0816 30.5618 34.3001L29.7522 33.275L30.5464 32.4538C30.9832 32.0023 31.3406 31.5363 31.3406 31.4182C31.3406 31.3001 30.9481 30.7589 30.4687 30.2152L29.5966 29.2268L30.4687 28.4015C30.9481 27.9474 31.3406 27.4615 31.3406 27.3216C31.3406 27.1817 30.9909 26.6924 30.5636 26.234C30.1363 25.7757 29.7889 25.3416 29.7917 25.2693C29.7946 25.1969 30.1284 24.909 30.5334 24.6295C31.2271 24.1509 31.2725 24.0819 31.3127 23.4443C31.35 22.8525 31.4154 22.7295 31.8319 22.4662C32.5244 22.0283 33.8356 20.5276 34.2413 19.7086C35.6219 16.9213 35.0817 13.4771 32.9188 11.2771C31.3482 9.67942 29.9604 9.12895 27.6421 9.18372L26.114 9.21971L25.3722 8.60131C24.9643 8.26125 24.408 7.86657 24.136 7.72451C22.6214 6.93283 20.502 6.7727 18.9059 7.32954ZM29.6659 10.6116C30.7225 10.9495 31.167 11.2327 32.0829 12.1529C34.7869 14.8691 34.2432 19.3882 30.9521 21.552C30.2258 22.0295 30.2104 22.0539 30.2104 22.7365V23.4335L29.2216 24.1061C28.5229 24.5814 28.2327 24.8674 28.2327 25.0806C28.2327 25.2466 28.5824 25.7899 29.0097 26.2877C29.437 26.7858 29.7858 27.251 29.7848 27.3216C29.7838 27.3923 29.4342 27.7631 29.0079 28.1457C28.0071 29.0436 28.0073 29.2802 29.0097 30.3878C29.437 30.8599 29.7866 31.3081 29.7866 31.3837C29.7866 31.4592 29.4688 31.8289 29.0803 32.2052C28.6918 32.5814 28.374 33.0039 28.374 33.1438C28.374 33.2836 28.7345 33.8729 29.1751 34.453L29.9761 35.5077L28.955 36.5257L27.9341 37.5436L26.7414 36.3298L25.5487 35.116V28.5778V22.0395L24.807 21.552C23.8341 20.9123 22.9209 19.8789 22.5026 18.9443C21.8082 17.3929 21.8122 15.3936 22.5125 13.8247C22.9372 12.8729 24.2512 11.4449 25.0797 11.0346C25.7829 10.6863 25.7945 10.6926 26.3495 11.7313L26.5993 12.1987L26.0824 12.7429C25.4783 13.379 25.2661 13.881 25.2661 14.6742C25.2661 15.4631 25.5545 16.0983 26.1595 16.6417C26.6025 17.0395 27.4253 17.4044 27.8796 17.4044C28.7257 17.4044 29.9651 16.5401 30.3021 15.7148C30.5308 15.1548 30.5492 14.2538 30.3432 13.694C30.0673 12.9441 29.2415 12.2286 28.44 12.0451C27.7715 11.892 27.6795 11.8206 27.4045 11.2415C27.2385 10.8919 27.1026 10.5426 27.1026 10.4652C27.1026 10.2202 28.7327 10.3133 29.6659 10.6116ZM29.2325 14.2066C29.6489 15.6287 28.0885 16.6922 26.9825 15.7401C26.4471 15.2793 26.3162 14.7025 26.5929 14.0248C26.8038 13.5086 27.1026 13.32 27.1026 13.7031C27.1026 14.031 27.4946 14.266 27.8777 14.1678C28.1584 14.0957 28.2327 13.9855 28.2327 13.642V13.2076L28.6512 13.4288C28.9341 13.5786 29.1223 13.8303 29.2325 14.2066Z" fill="#22C2D1"/>
</svg>
