<svg width="45" height="45" viewBox="0 0 45 45" fill="none" xmlns="http://www.w3.org/2000/svg">
<rect x="1" y="1" width="43" height="43" stroke="#22C2D1" stroke-width="2"/>
<path d="M18.59 24.8583C20.5322 25.175 22.0206 25.9033 23.055 27.0433C24.0894 28.1622 24.6067 29.5556 24.6067 31.2233C24.6067 32.5111 24.2689 33.7039 23.5933 34.8017C22.9178 35.8783 21.8833 36.7439 20.49 37.3983C19.1178 38.0528 17.4289 38.38 15.4233 38.38C13.8611 38.38 12.32 38.1794 10.8 37.7783C9.30111 37.3561 8.02389 36.765 6.96833 36.005L8.96333 32.0783C9.80778 32.7117 10.7789 33.2078 11.8767 33.5667C12.9956 33.9044 14.1356 34.0733 15.2967 34.0733C16.5844 34.0733 17.5978 33.8306 18.3367 33.345C19.0756 32.8383 19.445 32.1311 19.445 31.2233C19.445 29.4078 18.0622 28.5 15.2967 28.5H12.9533V25.1117L17.5133 19.95H8.07667V15.8333H23.5933V19.1583L18.59 24.8583Z" fill="#22C2D1"/>
<mask id="path-3-inside-1_56_1238" fill="white">
<path d="M26.6625 3.03863C26.7687 2.71172 27.2312 2.71171 27.3375 3.03863L29.839 10.7376C29.8865 10.8838 30.0228 10.9828 30.1765 10.9828H38.2717C38.6154 10.9828 38.7583 11.4226 38.4802 11.6247L31.9311 16.3829C31.8067 16.4733 31.7547 16.6334 31.8022 16.7796L34.3037 24.4786C34.41 24.8055 34.0358 25.0774 33.7577 24.8753L27.2086 20.1171C27.0842 20.0267 26.9158 20.0267 26.7914 20.1171L20.2423 24.8753C19.9642 25.0774 19.59 24.8055 19.6963 24.4786L22.1978 16.7796C22.2453 16.6334 22.1933 16.4733 22.0689 16.3829L15.5198 11.6247C15.2417 11.4226 15.3846 10.9828 15.7283 10.9828H23.8235C23.9772 10.9828 24.1135 10.8838 24.161 10.7376L26.6625 3.03863Z"/>
</mask>
<path d="M26.6625 3.03863C26.7687 2.71172 27.2312 2.71171 27.3375 3.03863L29.839 10.7376C29.8865 10.8838 30.0228 10.9828 30.1765 10.9828H38.2717C38.6154 10.9828 38.7583 11.4226 38.4802 11.6247L31.9311 16.3829C31.8067 16.4733 31.7547 16.6334 31.8022 16.7796L34.3037 24.4786C34.41 24.8055 34.0358 25.0774 33.7577 24.8753L27.2086 20.1171C27.0842 20.0267 26.9158 20.0267 26.7914 20.1171L20.2423 24.8753C19.9642 25.0774 19.59 24.8055 19.6963 24.4786L22.1978 16.7796C22.2453 16.6334 22.1933 16.4733 22.0689 16.3829L15.5198 11.6247C15.2417 11.4226 15.3846 10.9828 15.7283 10.9828H23.8235C23.9772 10.9828 24.1135 10.8838 24.161 10.7376L26.6625 3.03863Z" fill="#22C2D1"/>
<path d="M24.161 10.7376L23.4952 10.5213L24.161 10.7376ZM15.5198 11.6247L15.9312 11.0584L15.5198 11.6247ZM22.1978 16.7796L22.8635 16.9959L22.1978 16.7796ZM22.0689 16.3829L21.6575 16.9492L22.0689 16.3829ZM20.2423 24.8753L20.6538 25.4416L20.2423 24.8753ZM19.6963 24.4786L20.362 24.6949L19.6963 24.4786ZM27.2086 20.1171L27.62 19.5508L27.2086 20.1171ZM26.7914 20.1171L27.2029 20.6834L26.7914 20.1171ZM34.3037 24.4786L33.638 24.6949L34.3037 24.4786ZM31.9311 16.3829L32.3425 16.9492L31.9311 16.3829ZM31.8022 16.7796L31.1365 16.9959L31.8022 16.7796ZM38.4802 11.6247L38.0688 11.0584L38.4802 11.6247ZM29.839 10.7376L30.5048 10.5213L29.839 10.7376ZM27.3375 3.03863L26.6717 3.25494L27.3375 3.03863ZM26.6717 3.25494L29.1733 10.9539L30.5048 10.5213L28.0032 2.82232L26.6717 3.25494ZM30.1765 11.6828H38.2717V10.2828H30.1765V11.6828ZM38.0688 11.0584L31.5196 15.8166L32.3425 16.9492L38.8917 12.191L38.0688 11.0584ZM31.1365 16.9959L33.638 24.6949L34.9695 24.2623L32.4679 16.5633L31.1365 16.9959ZM34.1691 24.309L27.62 19.5508L26.7971 20.6834L33.3462 25.4416L34.1691 24.309ZM26.38 19.5508L19.8309 24.309L20.6538 25.4416L27.2029 20.6834L26.38 19.5508ZM20.362 24.6949L22.8635 16.9959L21.5321 16.5633L19.0305 24.2623L20.362 24.6949ZM22.4804 15.8166L15.9312 11.0584L15.1083 12.191L21.6575 16.9492L22.4804 15.8166ZM15.7283 11.6828H23.8235V10.2828H15.7283V11.6828ZM24.8267 10.9539L27.3283 3.25494L25.9968 2.82232L23.4952 10.5213L24.8267 10.9539ZM23.8235 11.6828C24.2805 11.6828 24.6855 11.3885 24.8267 10.9539L23.4952 10.5213C23.5415 10.3791 23.674 10.2828 23.8235 10.2828V11.6828ZM15.9312 11.0584C16.2017 11.2549 16.0627 11.6828 15.7283 11.6828V10.2828C14.7065 10.2828 14.2816 11.5904 15.1083 12.191L15.9312 11.0584ZM22.8635 16.9959C23.0048 16.5613 22.8501 16.0852 22.4804 15.8166L21.6575 16.9492C21.5365 16.8613 21.4859 16.7055 21.5321 16.5633L22.8635 16.9959ZM19.8309 24.309C20.1014 24.1125 20.4653 24.3769 20.362 24.6949L19.0305 24.2623C18.7148 25.2341 19.8271 26.0422 20.6538 25.4416L19.8309 24.309ZM27.62 19.5508C27.2503 19.2822 26.7497 19.2822 26.38 19.5508L27.2029 20.6834C27.0819 20.7713 26.9181 20.7713 26.7971 20.6834L27.62 19.5508ZM33.638 24.6949C33.5347 24.3769 33.8986 24.1125 34.1691 24.309L33.3462 25.4416C34.1729 26.0423 35.2852 25.2341 34.9695 24.2623L33.638 24.6949ZM31.5196 15.8166C31.1499 16.0852 30.9952 16.5613 31.1365 16.9959L32.4679 16.5633C32.5141 16.7055 32.4635 16.8613 32.3425 16.9492L31.5196 15.8166ZM38.2717 11.6828C37.9373 11.6828 37.7983 11.2549 38.0688 11.0584L38.8917 12.191C39.7184 11.5904 39.2935 10.2828 38.2717 10.2828V11.6828ZM29.1733 10.9539C29.3145 11.3885 29.7195 11.6828 30.1765 11.6828V10.2828C30.326 10.2828 30.4585 10.3791 30.5048 10.5213L29.1733 10.9539ZM28.0032 2.82232C27.6874 1.85048 26.3126 1.85049 25.9968 2.82232L27.3283 3.25494C27.2249 3.57294 26.7751 3.57295 26.6717 3.25494L28.0032 2.82232Z" fill="#FBFBF9" mask="url(#path-3-inside-1_56_1238)"/>
</svg>
