<svg width="45" height="45" viewBox="0 0 45 45" fill="none" xmlns="http://www.w3.org/2000/svg">
<rect x="1" y="1" width="43" height="43" stroke="#22C2D1" stroke-width="2"/>
<path fill-rule="evenodd" clip-rule="evenodd" d="M33.5583 11.0124C32.9849 11.1025 32.3238 11.4159 31.4752 11.9997C29.6104 13.2828 26.8392 15.9432 23.4948 19.6612C22.4263 20.849 21.118 22.3629 20.3436 23.3075L20.2012 23.4812L20.1388 23.4464C19.9758 23.3553 19.3405 23.023 18.9914 22.8463C17.126 21.9015 15.837 21.4096 14.8645 21.2713C14.7036 21.2484 14.3682 21.2399 14.2259 21.255C13.8599 21.2941 13.5843 21.4137 13.3667 21.628C13.139 21.8522 13.0175 22.1409 13.0017 22.4952C12.9944 22.6594 13.0096 22.747 13.0661 22.8651C13.1116 22.9603 13.1759 23.0283 13.6069 23.4367C14.1122 23.9155 14.7936 24.6202 15.2402 25.1258C16.7923 26.8832 18.1649 28.9347 20.0356 32.2932C20.2374 32.6555 20.2907 32.7435 20.3433 32.8004C20.465 32.9322 20.6201 33 20.7998 33C20.9227 33 21.0017 32.9812 21.1001 32.9285C21.1872 32.8819 21.2978 32.7777 21.3448 32.698C21.3639 32.6657 21.4463 32.4698 21.5279 32.2627C22.7721 29.1063 24.1921 26.2053 25.7869 23.5619C27.5194 20.6903 29.4579 18.1247 31.6303 15.8285C31.9408 15.5002 32.7592 14.6688 33.1182 14.3168C33.9421 13.5091 34.1064 13.3464 34.2649 13.1812C34.7088 12.7186 34.8851 12.4672 34.9718 12.1734C34.9962 12.0909 34.9996 12.0613 35 11.9329C35.0004 11.7758 34.9872 11.7069 34.9322 11.5808C34.8165 11.3155 34.541 11.1156 34.1688 11.0267C34.0523 10.9989 33.6973 10.9906 33.5583 11.0124Z" fill="#22C2D1"/>
</svg>
