<svg width="45" height="45" viewBox="0 0 45 45" fill="none" xmlns="http://www.w3.org/2000/svg">
<rect x="1" y="1" width="43" height="43" stroke="#22C2D1" stroke-width="2"/>
<path fill-rule="evenodd" clip-rule="evenodd" d="M26.5687 6.06298C26.1282 6.2399 25.2156 7.81231 25.0878 8.61458C24.9011 9.78621 25.3401 10.7142 26.5929 11.7966C26.8696 12.0356 27.096 12.2532 27.096 12.2801C27.096 12.3837 26.2171 12.852 25.3746 13.1971C24.3941 13.5989 24.2199 13.7547 24.3743 14.0917C24.5322 14.4359 24.7433 14.4595 25.3813 14.204C26.5183 13.7488 27.2176 13.38 27.5917 13.0382C27.96 12.7019 27.9635 12.6948 27.9635 12.2947C27.9635 11.807 27.8588 11.6467 27.1553 11.057C26.2635 10.3096 25.9396 9.70871 26.0033 8.91974C26.048 8.36789 26.3811 7.65146 26.8782 7.03844C27.0744 6.79658 27.2348 6.5392 27.2348 6.46646C27.2348 6.31477 26.9383 5.99362 26.8042 6.0001C26.7548 6.00251 26.6487 6.03085 26.5687 6.06298ZM30.987 6.39323C30.5401 6.85987 30.0692 7.69655 29.9084 8.3099C29.6949 9.12438 29.8317 9.97712 30.2895 10.686C30.4128 10.8768 30.8142 11.3121 31.1817 11.6534L31.8498 12.274L31.6763 12.4177C31.4503 12.6048 30.7464 12.9553 29.9782 13.263C29.6409 13.3982 29.3073 13.5606 29.2367 13.624C28.9894 13.8464 29.1108 14.2641 29.4543 14.3724C29.7695 14.4719 31.9468 13.452 32.418 12.9843C33.0171 12.3897 32.9006 11.9695 31.8755 11.0274C31.1345 10.3465 30.8932 10.0086 30.7762 9.48808C30.6231 8.80653 30.9747 7.81376 31.6459 7.03245C32.0771 6.53065 32.0525 6.13751 31.5828 6.02485C31.4063 5.98252 31.3429 6.02168 30.987 6.39323ZM21.2885 16.265C21.1059 16.3474 20.9256 16.5048 20.8027 16.6893L20.6072 16.9827L20.5875 20.5159L20.5678 24.0491L20.7136 24.0951C21.262 24.2681 23.0192 25.7459 23.4926 26.4321L23.6526 26.6642L24.4895 26.6953C25.8321 26.7451 26.7303 27.1257 27.9401 28.1571L28.4719 28.6105L31.4447 28.6101C33.1816 28.6099 34.5198 28.5815 34.6635 28.5418C34.9426 28.4648 35.31 28.119 35.4196 27.8304C35.4601 27.7236 35.4932 27.177 35.4932 26.6158V25.5953L35.927 25.4402C36.6102 25.196 37.5594 24.6859 38.1406 24.2508C39.0156 23.5958 39.5489 22.871 39.8422 21.9383C40.0034 21.4252 40.0179 21.2901 39.9866 20.5938C39.9136 18.9687 39.3049 17.954 38.1304 17.499C37.6107 17.2977 36.6593 17.2529 36.0268 17.4001C35.7667 17.4605 35.5404 17.51 35.5236 17.51C35.5069 17.51 35.4932 17.3999 35.4932 17.2652C35.4932 16.8204 35.1057 16.3268 34.6557 16.1986C34.5082 16.1566 31.9898 16.1316 27.9987 16.1325C21.842 16.134 21.567 16.1394 21.2885 16.265ZM37.7487 18.7439C38.1416 18.9246 38.3758 19.2042 38.5342 19.6818C39.0159 21.1341 38.5643 22.3708 37.2017 23.331C36.7884 23.6222 35.964 24.062 35.6494 24.159L35.4932 24.2072V21.5536V18.9L35.8229 18.7954C36.3108 18.6407 36.3826 18.6297 36.9506 18.6226C37.3221 18.618 37.5506 18.6527 37.7487 18.7439ZM16.5896 25.1991C16.057 25.3444 15.4427 25.6742 14.9478 26.0803C14.4152 26.5175 13.7715 27.2929 13.7715 27.4974C13.7715 27.5759 14.1906 29.1379 14.7029 30.9684C15.7401 34.6743 15.6459 34.4628 16.3879 34.755C16.97 34.9843 18.0454 34.985 18.7467 34.7567C19.0213 34.6673 19.2917 34.5432 19.3477 34.4809C19.4606 34.3551 21.1971 27.8181 21.1971 27.5185C21.1971 27.1352 19.8602 25.8832 19.0091 25.4695C18.2496 25.1003 17.3291 24.9974 16.5896 25.1991ZM10.6048 28.7134C9.86304 28.8737 9.14372 29.3391 8.38652 30.1488C7.81273 30.7623 7.50467 31.2547 7.27781 31.9207C6.94823 32.8885 6.80798 32.6875 9.20854 34.6873L11.3078 36.436L11.8283 36.4308C12.4737 36.4244 12.9693 36.227 13.3266 35.8341C13.6485 35.4801 13.7811 35.1623 13.7281 34.8718C13.6659 34.5316 12.1012 28.9387 12.0322 28.8098C11.9972 28.7445 11.8394 28.6808 11.648 28.6547C11.2251 28.5971 11.1138 28.6034 10.6048 28.7134ZM23.2668 28.6553C23.1647 28.6731 23.0488 28.7262 23.0095 28.7733C22.9152 28.8862 21.2665 34.777 21.2665 35.001C21.2665 35.4389 21.9204 36.1851 22.4346 36.334C22.7983 36.4393 23.3764 36.4958 23.5776 36.4456C23.7499 36.4027 27.772 33.0942 27.8843 32.9031C27.9758 32.7475 27.8051 32.0142 27.5511 31.4718C27.1517 30.6186 26.2929 29.6667 25.4449 29.1375C24.8581 28.7712 23.8645 28.5512 23.2668 28.6553ZM29.8968 30.7651C29.9519 30.8956 30.2031 31.7241 30.247 31.92C30.2682 32.0151 30.3947 32.1619 30.5289 32.2475C30.6627 32.3328 30.8548 32.5267 30.9559 32.6784L31.1396 32.9542L32.7439 32.9524C34.4903 32.9505 35.4638 32.8807 36.1359 32.7092C37.2954 32.4134 38.1681 31.7027 38.4384 30.8341L38.4867 30.6789H34.1736C30.7498 30.6789 29.8679 30.6967 29.8968 30.7651ZM5.49426 34.6957C5.08773 35.7135 4.92575 36.956 5.03152 38.2454C5.14352 39.6103 5.32077 39.9868 5.85139 39.9868C6.1446 39.9868 6.20414 39.9481 7.15726 39.1364C7.67081 38.699 8.99917 37.7964 9.41674 37.601C9.55991 37.534 9.67698 37.4601 9.67698 37.4369C9.67698 37.3958 5.93675 34.4191 5.75617 34.3165C5.69219 34.2801 5.61648 34.3897 5.49426 34.6957ZM27.3427 35.8077C26.2759 36.653 25.3948 37.3729 25.3846 37.4074C25.3743 37.442 25.6003 37.6032 25.8867 37.7658C26.5845 38.1617 27.4897 38.8064 27.9796 39.2563C28.8367 40.0434 29.2762 40.184 29.6178 39.7807C29.8921 39.4568 29.9749 38.9279 29.9739 37.5047C29.9732 36.4089 29.9509 36.1418 29.8157 35.6088C29.6799 35.074 29.3679 34.2574 29.3032 34.2675C29.2916 34.2694 28.4093 34.9624 27.3427 35.8077Z" fill="#22C2D1"/>
</svg>
