<svg width="39" height="36" viewBox="0 0 39 36" fill="none" xmlns="http://www.w3.org/2000/svg">
<path fill-rule="evenodd" clip-rule="evenodd" d="M11.4607 0.108C13.5401 0.0196363 14.2031 0 19.5 0C24.7969 0 25.4599 0.0212727 27.5375 0.108C29.6152 0.194727 31.0334 0.500727 32.2743 0.944182C33.5737 1.39745 34.7525 2.106 35.7275 3.02236C36.7203 3.92073 37.4861 5.00727 37.9754 6.20836C38.4575 7.35382 38.7873 8.66291 38.883 10.5775C38.9787 12.5002 39 13.1122 39 18C39 22.8895 38.977 23.5015 38.883 25.4209C38.789 27.3355 38.4575 28.6445 37.9754 29.79C37.4861 30.9912 36.719 32.0796 35.7275 32.9793C34.7525 33.8956 33.5737 34.6025 32.2743 35.0542C31.0334 35.4993 29.6152 35.8036 27.5411 35.892C25.4599 35.9804 24.7969 36 19.5 36C14.2031 36 13.5401 35.9787 11.4607 35.892C9.38659 35.8053 7.96841 35.4993 6.7275 35.0542C5.42618 34.6025 4.24714 33.8944 3.27245 32.9793C2.2804 32.0804 1.51269 30.9925 1.02286 29.7916C0.542455 28.6462 0.212727 27.3371 0.117 25.4225C0.0212727 23.4998 0 22.8878 0 18C0 13.1105 0.0230454 12.4985 0.117 10.5807C0.210955 8.66291 0.542455 7.35382 1.02286 6.20836C1.51342 5.00741 2.28171 3.9196 3.27423 3.02073C4.24753 2.10518 5.42538 1.39654 6.72573 0.944182C7.96664 0.500727 9.38482 0.196364 11.4589 0.108H11.4607ZM27.3798 3.348C25.3234 3.26127 24.7065 3.24327 19.5 3.24327C14.2935 3.24327 13.6766 3.26127 11.6202 3.348C9.71809 3.42818 8.68636 3.72109 7.99855 3.96818C7.08914 4.29545 6.43855 4.68327 5.75605 5.31327C5.10908 5.89427 4.61118 6.60155 4.29886 7.38327C4.03118 8.01818 3.71386 8.97054 3.627 10.7264C3.53305 12.6245 3.51355 13.194 3.51355 18C3.51355 22.806 3.53305 23.3755 3.627 25.2736C3.71386 27.0295 4.03118 27.9818 4.29886 28.6167C4.61086 29.3973 5.109 30.1058 5.75605 30.6867C6.38536 31.284 7.15295 31.7438 7.99855 32.0318C8.68636 32.2789 9.71809 32.5718 11.6202 32.652C13.6766 32.7387 14.2917 32.7567 19.5 32.7567C24.7083 32.7567 25.3234 32.7387 27.3798 32.652C29.2819 32.5718 30.3136 32.2789 31.0015 32.0318C31.9109 31.7045 32.5615 31.3167 33.244 30.6867C33.891 30.1058 34.3891 29.3973 34.7011 28.6167C34.9688 27.9818 35.2861 27.0295 35.373 25.2736C35.467 23.3755 35.4865 22.806 35.4865 18C35.4865 13.194 35.467 12.6245 35.373 10.7264C35.2861 8.97054 34.9688 8.01818 34.7011 7.38327C34.3466 6.54382 33.9265 5.94327 33.244 5.31327C32.6145 4.71612 31.8483 4.25653 31.0015 3.96818C30.3136 3.72109 29.2819 3.42818 27.3798 3.348ZM17.0093 23.5489C18.4003 24.0834 19.9492 24.1555 21.3914 23.753C22.8336 23.3505 24.0796 22.4982 24.9168 21.3419C25.7539 20.1855 26.1301 18.7967 25.9812 17.4127C25.8322 16.0287 25.1674 14.7354 24.1002 13.7536C23.4199 13.1261 22.5973 12.6455 21.6917 12.3466C20.786 12.0477 19.8199 11.9379 18.8627 12.025C17.9055 12.1122 16.9812 12.3941 16.1563 12.8506C15.3314 13.307 14.6263 13.9267 14.0919 14.6648C13.5576 15.403 13.2072 16.2414 13.0659 17.1196C12.9247 17.9978 12.9961 18.8939 13.2751 19.7436C13.5541 20.5932 14.0338 21.3752 14.6795 22.0332C15.3252 22.6912 16.1209 23.2088 17.0093 23.5489ZM12.4126 11.4578C13.3434 10.5987 14.4483 9.91719 15.6643 9.45223C16.8804 8.98727 18.1838 8.74796 19.5 8.74796C20.8162 8.74796 22.1196 8.98727 23.3357 9.45223C24.5517 9.91719 25.6566 10.5987 26.5874 11.4578C27.5181 12.3169 28.2564 13.3369 28.7601 14.4594C29.2638 15.5819 29.523 16.785 29.523 18C29.523 19.215 29.2638 20.4181 28.7601 21.5406C28.2564 22.6631 27.5181 23.6831 26.5874 24.5422C24.7077 26.2773 22.1583 27.252 19.5 27.252C16.8417 27.252 14.2923 26.2773 12.4126 24.5422C10.533 22.8071 9.47695 20.4538 9.47695 18C9.47695 15.5462 10.533 13.1929 12.4126 11.4578ZM31.746 10.1258C31.9766 9.92499 32.1613 9.68348 32.289 9.41559C32.4167 9.14771 32.4849 8.85889 32.4895 8.56625C32.4941 8.2736 32.4351 7.98308 32.3159 7.71187C32.1967 7.44066 32.0198 7.19429 31.7956 6.98734C31.5714 6.78038 31.3045 6.61706 31.0107 6.50703C30.7168 6.397 30.4021 6.34251 30.0851 6.34677C29.768 6.35104 29.4552 6.41398 29.165 6.53187C28.8747 6.64975 28.6131 6.82019 28.3955 7.03309C27.9724 7.44714 27.7408 7.99711 27.7497 8.56625C27.7587 9.13539 28.0077 9.67889 28.4437 10.0814C28.8797 10.4839 29.4685 10.7136 30.0851 10.7219C30.7016 10.7302 31.2974 10.5164 31.746 10.1258Z" fill="#00BBC5"/>
</svg>
