<svg width="166" height="85" viewBox="0 0 166 85" fill="none" xmlns="http://www.w3.org/2000/svg">
<path fill-rule="evenodd" clip-rule="evenodd" d="M101.985 0.150033C116.059 0.613901 128.882 3.16663 140.09 7.73515C142.212 8.60017 142.582 8.85102 142.118 9.10994C141.419 9.50011 133.977 9.56896 131.977 9.20401L130.518 8.93797L129.91 11.0627C129.576 12.2316 129.189 13.1878 129.051 13.1878C128.912 13.1878 127.143 12.5497 125.119 11.77C121.028 10.1938 112.577 7.69248 111.343 7.69248C110.358 7.69248 108.969 9.0259 108.918 10.0215C108.815 12.0053 109.431 12.711 111.85 13.3782C118.142 15.1134 126.568 18.0162 127.236 18.6782C127.443 18.8835 124.17 30.7847 123.699 31.5365C123.67 31.5834 122.493 31.0963 121.084 30.4543C108.347 24.6535 85.6696 17.1867 69.2317 13.3817C63.4155 12.0354 54.7343 10.3351 50.4307 9.69923C49.3607 9.54116 48.7041 9.32491 48.9716 9.21888C49.2391 9.11285 58.0377 7.12194 68.5242 4.79485C87.1715 0.656892 87.713 0.55733 93.1664 0.255413C96.233 0.085705 98.8882 -0.0267852 99.0665 0.00554005C99.2449 0.0381885 100.558 0.103162 101.985 0.150033ZM13.7917 9.52145C41.0644 11.138 70.9936 17.6548 103.93 29.1487C123.579 36.0055 140.814 43.1526 161.239 52.9155L165.373 54.8912V62.4857C165.373 71.3192 165.558 70.9772 161.972 68.7894C148.795 60.7485 131.464 56.66 115.38 57.7976C109.035 58.2462 104.653 59.0272 95.9863 61.2528C83.6522 64.4207 77.4288 65.6966 68.5881 66.8697C62.1707 67.7211 50.9005 68.0405 45.6559 67.5197C39.0165 66.8603 29.8658 65.0048 28.9862 64.1395C28.7835 63.94 22.895 52.7943 15.9012 39.3712C8.90703 25.9482 2.5526 13.7832 1.77994 12.3379L0.375 9.71022L1.57112 9.51304C2.73221 9.32168 10.512 9.32685 13.7917 9.52145ZM75.0816 31.7392C73.9905 32.452 73.1838 34.3944 73.4076 35.7695C74.0872 39.9437 79.6858 41.0405 81.5884 37.3725C82.6062 35.4104 81.9954 32.6705 80.3041 31.6119C78.727 30.6247 76.7129 30.6738 75.0816 31.7392ZM89.9175 35.7088C88.379 36.4367 87.5586 37.8629 87.5573 39.8134C87.556 41.2108 87.6968 41.527 88.8147 42.6419C89.9551 43.7788 90.2326 43.8968 91.764 43.8968C94.4623 43.8968 96.3105 42.081 96.3105 39.4294C96.3105 37.5099 93.8447 35.1709 91.8201 35.1696C91.4012 35.1693 90.5452 35.4117 89.9175 35.7088ZM103.086 40.426C100.639 42.051 100.289 44.8827 102.267 47.0352C104.174 49.1092 107.547 48.7565 109.151 46.3156C109.853 45.2489 109.841 42.8504 109.129 41.7678C107.796 39.7384 105.042 39.1272 103.086 40.426ZM112.685 73.4326C106.064 75.1281 96.2025 77.0198 95.0946 76.8071C94.5528 76.703 101.465 74.7515 105.876 73.7633C109.269 73.003 114.66 72.1118 117.224 71.8878C119.107 71.723 118.334 71.9861 112.685 73.4326Z" fill="#F5F5F5"/>
<path fill-rule="evenodd" clip-rule="evenodd" d="M13.6296 61.5481C23.8992 67.1501 35.9729 70.3978 48.6963 70.9806C63.1097 71.6407 75.3481 69.9782 96.959 64.4241C106.927 61.8626 110.421 61.3277 118.539 61.1211C132.477 60.7665 143.793 63.2106 155.508 69.1051C159.431 71.0789 165.549 74.8622 165.27 75.1412C165.203 75.2075 164.579 75.0222 163.883 74.729C161.289 73.6371 154.389 71.4173 151.102 70.617C142.427 68.5048 134.113 67.6314 125.492 67.9259C114.6 68.2983 106.781 69.7597 90.9385 74.3854C81.7651 77.0639 74.6111 78.1329 64.2108 78.3792C56.0361 78.5732 51.4002 78.2089 44.4323 76.8257C32.0159 74.3612 21.4382 69.3172 12.8326 61.7576C11.9724 61.0021 11.3255 60.387 11.3952 60.3912C11.465 60.3951 12.4704 60.9158 13.6296 61.5481ZM112.685 73.4338C106.064 75.1292 96.2025 77.0209 95.0946 76.8082C94.5528 76.7041 101.465 74.7527 105.876 73.7645C109.269 73.0042 114.66 72.113 117.224 71.889C119.107 71.7241 118.334 71.9872 112.685 73.4338ZM141.209 73.1597C149.256 74.4646 156.073 77.017 162.536 81.1456C163.918 82.0281 165.049 82.8039 165.049 82.8695C165.049 82.9348 164.408 82.7144 163.624 82.3795C162.84 82.0446 160.796 81.3224 159.08 80.7745C145.119 76.3159 131.715 76.4617 114.937 81.2542C104.788 84.1531 99.6515 84.9778 91.609 84.9994C85.8266 85.0149 82.5135 84.694 77.6668 83.6479C74.651 82.9972 71.1804 81.9861 70.8574 81.6644C70.7563 81.5633 71.8668 81.3767 73.3259 81.25C74.7849 81.123 77.5987 80.7412 79.5788 80.4012C81.6912 80.0385 84.7196 79.7821 86.9076 79.7805C93.9601 79.776 103.352 78.3191 114.021 75.5747C123.344 73.1771 124.774 72.9554 131.815 72.816C136.497 72.7233 139.108 72.819 141.209 73.1597Z" fill="#F5F5F5"/>
</svg>
