<svg width="42" height="39" viewBox="0 0 42 39" fill="none" xmlns="http://www.w3.org/2000/svg">
<path fill-rule="evenodd" clip-rule="evenodd" d="M30.6229 23.3708C30.0989 23.1287 27.5298 21.9619 27.0516 21.7994C26.5733 21.6385 26.2251 21.5589 25.8752 22.0432C25.527 22.5242 24.5265 23.6129 24.2223 23.9347C23.9163 24.258 23.6121 24.297 23.0898 24.0565C22.5676 23.8128 20.883 23.3042 18.8872 21.6597C17.3345 20.3792 16.2847 18.798 15.9805 18.3138C15.6763 17.8312 15.9471 17.5695 16.2091 17.329C16.4448 17.1129 16.7314 16.7652 16.9934 16.484C17.2554 16.2013 17.3416 15.9998 17.5156 15.6764C17.6915 15.3547 17.6036 15.0735 17.4717 14.8314C17.3416 14.5893 16.2971 12.2119 15.861 11.245C15.4372 10.3042 15.0064 10.4325 14.6863 10.4163C14.3804 10.4033 14.0322 10.4 13.684 10.4C13.3359 10.4 12.7697 10.5203 12.2914 11.0045C11.8113 11.4872 10.4626 12.6555 10.4626 15.0329C10.4626 17.4087 12.3336 19.7048 12.5956 20.0282C12.8576 20.3499 16.2795 25.2281 21.5213 27.3195C22.7698 27.8168 23.7422 28.1141 24.5001 28.3351C25.7521 28.704 26.8915 28.652 27.7919 28.5269C28.7942 28.3888 30.8832 27.3585 31.3192 26.2308C31.7536 25.103 31.7536 24.1362 31.6235 23.9347C31.4933 23.7332 31.1452 23.6129 30.6212 23.3708H30.6229ZM21.0887 35.4006H21.0817C17.9683 35.4012 14.9121 34.6277 12.2333 33.1614L11.6003 32.8136L5.02029 34.4094L6.77696 28.4814L6.36373 27.8736C4.62313 25.3132 3.702 22.3499 3.70675 19.3262C3.71027 10.4699 11.5071 3.26469 21.0958 3.26469C25.738 3.26469 30.1024 4.93843 33.3836 7.97393C35.002 9.46337 36.2848 11.2346 37.1577 13.1851C38.0306 15.1357 38.4763 17.2268 38.469 19.3375C38.4655 28.1938 30.6686 35.4006 21.0887 35.4006ZM35.8806 5.66806C33.9431 3.86581 31.6379 2.43681 29.0985 1.46386C26.5591 0.490919 23.836 -0.00662389 21.087 6.65884e-05C9.5623 6.65884e-05 0.179359 8.66943 0.175842 19.3245C0.174084 22.7305 1.13594 26.0553 2.96646 28.9851L0 39L11.0851 36.3123C14.1516 37.8562 17.5879 38.6652 21.08 38.6653H21.0887C32.6134 38.6653 41.9964 29.9959 41.9999 19.3392C42.0084 16.7997 41.472 14.284 40.4216 11.9374C39.3712 9.59075 37.8278 7.45989 35.8806 5.66806Z" fill="#DFAB5E"/>
</svg>
