<svg width="180" height="105" viewBox="0 0 180 105" fill="none" xmlns="http://www.w3.org/2000/svg">
<path d="M46.2494 52.8161C42.6408 52.2156 41.2545 49.2652 41.2545 45.3325C41.2545 36.9742 47.3077 24.0793 50.7506 18.9976C44.2 24.8429 33.5927 39.4317 33.4269 48.3385C33.4269 48.5016 33.2611 48.6647 33.0953 48.6647H32.8166C28.9857 48.6647 27.6523 45.9886 27.6523 42.219C27.6523 34.9506 32.7037 23.694 34.2065 20.5804C26.9891 27.4635 15.0484 52.1601 6.6635 52.9272L5.83101 52.9827C1.94367 52.9827 0 50.3586 0 46.5335V46.3704C0 46.2072 4.31027e-07 45.8775 0.165794 45.7699L0.275147 45.7143C0.440941 45.7143 0.61026 45.8775 0.719614 45.9886C1.94367 46.8633 3.22064 47.2451 4.49408 47.2451C5.27366 47.2451 5.99327 47.134 6.77286 46.9153C16.2125 44.1281 25.8744 25.551 33.0388 17.6821C34.8167 15.714 36.8697 14.7317 39.2579 14.4054C39.5366 14.3499 39.9775 14.3499 40.4784 14.3499C41.7025 14.3499 43.2546 14.513 43.2546 15.1691C43.2546 15.2767 43.1981 15.3878 43.1417 15.4954C39.0886 22.5451 32.9789 32.8714 32.2593 42.6529C34.6474 34.6729 45.4205 16.5332 53.8054 14.4575C54.0841 14.402 55.0824 14.3464 56.1371 14.3464C57.5799 14.3464 59.192 14.5096 59.192 15.2211L59.0826 15.5509C55.0295 22.9824 47.089 37.6789 47.089 45.874C47.089 47.679 47.477 49.1507 48.366 50.1885C48.9198 50.8446 49.7523 51.0632 50.6412 51.0632C51.0293 51.0632 51.4173 51.0632 51.8617 50.9556H52.0275C52.3627 50.9556 52.5284 51.1743 52.5284 51.5006C52.5284 51.7193 52.4191 51.9379 52.1404 52.049C50.5848 52.7571 49.2514 52.9758 48.0308 52.9758C47.3606 52.9793 46.8068 52.9272 46.2494 52.8161Z" fill="white"/>
<path d="M67.4742 51.4973C63.9749 51.4973 63.033 48.6545 63.033 45.6521L63.0895 44.3955C62.4228 46.2005 61.8125 47.5646 61.0894 48.5469C59.9782 49.9145 58.867 50.4595 57.3149 50.4595H56.6482C53.5934 50.0777 52.3164 47.3459 52.3164 43.9026C52.3164 37.1827 57.0362 27.8386 62.9237 27.8386C64.8674 27.8386 66.3666 28.8209 66.811 30.6814L67.4777 29.0951C68.1444 28.2204 69.4214 27.8386 70.7548 27.8386C72.0318 27.8386 73.3087 28.2204 73.9754 28.7654C74.0319 28.8209 74.0848 28.873 74.0848 28.9841L74.0284 29.2027C72.9172 31.3895 69.9188 38.165 68.5854 43.3542C68.4196 44.0623 67.9187 45.9228 67.9187 47.398C67.9187 48.3282 68.0845 49.0919 68.6982 49.3661L69.1427 49.4216C70.9735 49.4216 73.6403 44.7218 74.307 43.2466C74.3635 43.139 74.4728 43.0835 74.5857 43.0835C74.7515 43.0835 74.9208 43.1911 74.9208 43.4098V43.5174C73.919 46.5233 71.9224 51.2752 67.9786 51.4939H67.4742V51.4973ZM61.0329 46.4157C62.1441 44.4476 63.9749 39.4215 65.0296 35.652V35.5964C65.4741 34.0136 65.6399 32.8647 65.6399 32.1011V31.8269C65.5305 31.1708 65.2519 30.9001 64.751 30.789L64.4194 30.7335C62.7544 30.7335 60.6978 33.7394 59.2551 37.2903C58.3132 39.5847 57.5336 42.4275 57.4243 44.7739V45.3223C57.4243 46.9607 57.8687 48.1096 58.867 48.3282H59.0328C59.5902 48.3282 60.2004 47.7833 61.0329 46.4157Z" fill="white"/>
<path d="M78.805 51.497C76.3604 51.497 74.9741 50.3515 74.4203 48.1648C74.2545 47.3977 74.1416 46.5785 74.1416 45.6517C74.1416 38.3313 79.641 26.4742 82.0821 20.792C82.4701 19.8097 84.0257 19.48 85.5249 19.48C87.3028 19.48 89.1336 19.9729 89.1336 20.5178L89.0772 20.681C87.578 23.6314 78.9143 41.6079 78.9143 47.5643C78.9143 48.491 79.1366 49.1471 79.6904 49.3658L80.1913 49.4768C82.3008 49.4768 84.7983 44.777 85.465 43.2463C85.5214 43.1387 85.6308 43.0831 85.7436 43.0831C85.9094 43.0831 86.0752 43.1907 86.0752 43.3574L86.0188 43.5205C85.0734 46.5264 83.0768 51.3894 79.1331 51.497H78.805Z" fill="white"/>
<path d="M100.795 51.4973C97.1867 51.4973 96.2413 48.8211 96.2413 45.8672C96.2413 45.2112 96.2978 44.5552 96.3507 43.8991C95.296 46.9051 94.019 50.5115 90.3539 50.5115L89.7436 50.456C86.7452 50.1297 85.4683 47.3945 85.4683 43.8991C85.4683 37.2347 90.1881 27.8351 96.0191 27.8351C97.9063 27.8351 99.462 28.8174 99.9594 30.6224C101.571 26.3599 102.736 23.8469 104.012 20.952C104.513 19.9142 106.178 19.4768 107.787 19.4768C109.508 19.4768 111.117 19.9697 111.117 20.6257L111.061 20.8444C110.119 22.6459 106.676 29.8587 104.231 36.0893C102.453 40.6225 101.011 45.0515 101.011 47.509C101.011 48.4358 101.233 49.0918 101.73 49.366C101.843 49.4216 102.065 49.4771 102.175 49.4771C104.175 49.4771 106.951 44.6142 107.505 43.2466C107.618 43.139 107.727 43.0834 107.84 43.0834C108.006 43.0834 108.119 43.191 108.119 43.4097V43.5173C107.12 46.5233 105.12 51.3862 101.176 51.4938H100.795V51.4973ZM97.4654 37.8387C97.6876 37.075 98.7424 34.2878 98.7424 32.4308C98.7424 31.2263 98.4072 30.8445 97.5183 30.7369C94.407 30.7369 90.5761 40.2997 90.5761 45.3257C90.5761 47.1272 91.0206 48.2206 92.1318 48.3317C94.3541 48.3282 97.0209 39.2063 97.4654 37.8387Z" fill="white"/>
<path d="M114.349 23.4127C114.349 21.6633 115.904 19.2058 118.18 19.2058C119.845 19.2613 120.677 20.2437 120.677 21.8299C120.677 24.0722 118.733 25.8737 116.903 25.8737C115.626 25.8737 114.349 25.1066 114.349 23.4127Z" fill="white"/>
<path d="M71.521 91.5769C67.9124 90.9764 66.5261 88.026 66.5261 84.0933C66.5261 75.735 72.5793 62.84 76.0222 57.7584C69.468 63.6036 58.8643 78.1925 58.6985 87.0992C58.6985 87.2623 58.5327 87.4255 58.3669 87.4255H58.0882C54.2573 87.4255 52.9239 84.7493 52.9239 80.9797C52.9239 73.7114 57.9753 62.4547 59.4745 59.3412C52.2572 66.2243 40.3165 90.9208 31.9316 91.6879L31.0991 91.7435C27.2117 91.7435 25.2681 89.1194 25.2681 85.2943V85.1311C25.2681 84.968 25.2681 84.6382 25.4339 84.5306L25.5432 84.4751C25.709 84.4751 25.8783 84.6382 25.9877 84.7493C27.2117 85.624 28.4887 86.0058 29.7621 86.0058C30.5417 86.0058 31.2613 85.8948 32.0409 85.6761C41.4806 82.8888 51.1425 64.3117 58.3069 56.4429C60.0848 54.4748 62.1378 53.4925 64.5259 53.1662C64.8046 53.1107 65.2456 53.1107 65.7465 53.1107C66.9705 53.1107 68.5226 53.2738 68.5226 53.9298C68.5226 54.0374 68.4662 54.1485 68.4098 54.2561C64.3566 61.3058 58.2469 71.6322 57.5273 81.4136C59.9155 73.4337 70.6885 55.2939 79.0735 53.2183C79.3522 53.1627 80.3504 53.1072 81.4052 53.1072C82.8479 53.1072 84.46 53.2703 84.46 53.9819L84.3507 54.3116C80.2975 61.7432 72.3571 76.4396 72.3571 84.6348C72.3571 86.4397 72.7451 87.9114 73.634 88.9493C74.1879 89.6053 75.0203 89.824 75.9093 89.824C76.2973 89.824 76.6853 89.824 77.1298 89.7164H77.2956C77.6307 89.7164 77.7965 89.9351 77.7965 90.2613C77.7965 90.48 77.6872 90.6987 77.4085 90.8098C75.8528 91.5179 74.5194 91.7365 73.2989 91.7365C72.6322 91.74 72.0784 91.6879 71.521 91.5769Z" fill="white"/>
<path d="M92.6402 91.6121C89.1409 91.6121 88.199 88.7693 88.199 85.7668L88.2555 84.5103C87.5888 86.3152 86.9785 87.6794 86.2554 88.6617C85.1442 90.0293 84.033 90.5742 82.4809 90.5742H81.8142C78.7594 90.1924 77.4824 87.4607 77.4824 84.0174C77.4824 77.2974 82.2022 67.9534 88.0897 67.9534C90.0334 67.9534 91.5326 68.9357 91.977 70.7962L92.6437 69.2099C93.3104 68.3352 94.5874 67.9534 95.9208 67.9534C97.1978 67.9534 98.4748 68.3352 99.1415 68.8801C99.1979 68.9357 99.2508 68.9877 99.2508 69.0988L99.1944 69.3175C98.0832 71.5043 95.0848 78.2798 93.7514 83.469C93.5856 84.1771 93.0847 86.0376 93.0847 87.5128C93.0847 88.443 93.2505 89.2066 93.8643 89.4808L94.3087 89.5364C96.1395 89.5364 98.8063 84.8366 99.473 83.3614C99.5295 83.2538 99.6388 83.1982 99.7517 83.1982C99.9175 83.1982 100.087 83.3058 100.087 83.5245V83.6321C99.085 86.6381 97.0884 91.3899 93.1447 91.6086H92.6402V91.6121ZM86.1989 86.5305C87.3101 84.5624 89.1409 79.5363 90.1956 75.7667V75.7112C90.6401 74.1284 90.8059 72.9795 90.8059 72.2158V71.9416C90.6965 71.2856 90.4179 71.0148 89.917 70.9038L89.5854 70.8482C87.9204 70.8482 85.8638 73.8542 84.4211 77.4051C83.4792 79.6994 82.6996 82.5422 82.5903 84.8886V85.4371C82.5903 87.0754 83.0347 88.2243 84.033 88.443H84.1988C84.7562 88.443 85.3664 87.8946 86.1989 86.5305Z" fill="white"/>
<path d="M101.36 91.7197C99.6386 91.501 99.0283 89.7516 99.0283 87.3497C99.0283 81.5044 102.75 71.6119 103.639 69.4842C104.14 68.3908 105.526 68.009 106.916 68.009C108.694 68.009 110.525 68.6094 110.525 69.2099L110.468 69.3175C107.914 75.1628 106.637 78.7692 104.75 84.8887C106.75 80.5186 113.301 67.95 118.243 67.95H118.299C120.631 68.0055 121.354 69.1509 121.411 70.9003V71.0635C121.411 75.1073 115.911 84.3958 115.911 88.1098C115.911 89.0921 116.299 89.6926 117.244 89.6926C119.742 89.6926 122.409 84.4479 122.797 83.41C122.853 83.2469 122.963 83.1913 123.075 83.1913C123.241 83.1913 123.411 83.2989 123.411 83.5176V83.6252C122.522 86.3569 120.19 91.6017 116.024 91.6017H115.858C111.805 91.4941 110.415 89.6336 110.415 87.1206C110.415 81.9834 115.968 74.2256 115.968 72.7504L115.911 72.5873C115.802 72.4797 115.689 72.4241 115.579 72.4241C113.078 72.4241 104.531 89.2518 103.586 91.2199C103.42 91.5496 102.196 91.7128 101.586 91.7128H101.36V91.7197Z" fill="white"/>
<path d="M127.019 91.6121C123.742 91.6121 122.631 89.1546 122.631 85.8189C122.631 80.1368 125.852 71.9937 126.963 69.3175C127.407 68.3352 128.793 68.0054 130.183 68.0054C131.905 68.0054 133.683 68.5504 133.683 69.1509L133.626 69.314C132.515 71.2821 127.517 82.7019 127.517 87.5093C127.517 88.4951 127.739 89.2587 128.296 89.4774C128.462 89.5884 128.684 89.5884 128.85 89.5884C130.906 89.5884 133.125 84.9997 133.848 83.3579C133.905 83.2503 134.014 83.1948 134.127 83.1948C134.406 83.1948 134.459 83.4134 134.459 83.521V83.6286C133.46 86.6346 131.46 91.3864 127.517 91.6051H127.019V91.6121ZM129.686 63.5243C129.686 61.7749 131.242 59.3174 133.517 59.3174C135.185 59.3729 136.018 60.3552 136.018 61.9415C136.018 64.1838 134.074 65.9853 132.243 65.9853C130.963 65.9853 129.686 65.2182 129.686 63.5243Z" fill="white"/>
<path d="M134.628 100.463C134.628 99.8072 134.738 99.0436 134.96 98.2765C136.015 94.7811 138.346 93.5246 141.122 92.5944L142.787 87.2941C142.068 89.0435 140.399 90.5187 138.957 90.5708H138.678C134.956 90.5708 133.736 88.2209 133.736 84.9997C133.736 79.6439 137.179 72.0492 138.343 69.3175C138.787 68.3352 140.064 67.9534 141.398 67.9534C143.228 67.9534 145.119 68.6094 145.119 69.1544L145.063 69.3175C143.451 71.9416 141.175 77.0198 139.51 81.3933C139.179 82.3791 138.399 84.781 138.399 86.5305C138.399 87.5128 138.678 88.3319 139.454 88.3875H139.51C140.565 88.3875 142.23 84.8921 144.064 80.2999C146.008 75.3294 147.617 70.5185 148.23 69.2099C148.675 68.3352 150.231 67.9534 151.673 67.9534C153.285 67.9534 154.838 68.3907 154.838 69.0467L154.728 69.321C152.453 72.9274 149.229 85.4405 147.511 90.6853C150.509 89.5364 153.398 88.1723 155.12 83.4169C155.176 83.3093 155.286 83.1982 155.398 83.1982C155.564 83.1982 155.73 83.3058 155.73 83.4724V83.5801C154.397 89.6995 149.733 91.2858 147.01 92.1605C146.068 94.8367 145.123 97.6239 144.343 100.193C143.345 103.688 140.957 105 138.847 105C136.628 104.996 134.628 103.303 134.628 100.463ZM139.013 99.2067L140.625 94.1806C138.681 95.0554 137.016 96.2008 136.184 98.9325C136.018 99.4775 135.962 99.9148 135.962 100.352C135.962 101.334 136.35 101.883 136.907 101.883C137.57 101.883 138.403 101.064 139.013 99.2067Z" fill="white"/>
<path d="M170.224 91.6121C166.725 91.6121 165.783 88.7693 165.783 85.7668L165.839 84.5103C165.173 86.3152 164.563 87.6794 163.839 88.6617C162.728 90.0293 161.617 90.5742 160.065 90.5742H159.398C156.343 90.1924 155.066 87.4607 155.066 84.0174C155.066 77.2974 159.786 67.9534 165.674 67.9534C167.617 67.9534 169.117 68.9357 169.561 70.7962L170.228 69.2099C170.894 68.3352 172.171 67.9534 173.505 67.9534C174.782 67.9534 176.059 68.3352 176.725 68.8801C176.782 68.9357 176.835 68.9877 176.835 69.0988L176.778 69.3175C175.667 71.5043 172.669 78.2798 171.335 83.469C171.17 84.1771 170.669 86.0376 170.669 87.5128C170.669 88.443 170.834 89.2066 171.448 89.4808L171.893 89.5364C173.724 89.5364 176.39 84.8366 177.057 83.3614C177.113 83.2538 177.223 83.1982 177.336 83.1982C177.501 83.1982 177.671 83.3058 177.671 83.5245V83.6321C176.669 86.6381 174.672 91.3899 170.729 91.6086H170.224V91.6121ZM163.783 86.5305C164.894 84.5624 166.725 79.5363 167.78 75.7667V75.7112C168.224 74.1284 168.39 72.9795 168.39 72.2158V71.9416C168.281 71.2856 168.002 71.0148 167.501 70.9038L167.169 70.8482C165.504 70.8482 163.448 73.8542 162.005 77.4051C161.063 79.6994 160.284 82.5422 160.174 84.8886V85.4371C160.174 87.0754 160.619 88.2243 161.617 88.443H161.783C162.34 88.443 162.95 87.8946 163.783 86.5305Z" fill="white"/>
<path fill-rule="evenodd" clip-rule="evenodd" d="M147.857 0.243639C146.509 0.535208 144.862 1.22942 144.862 1.5071C144.862 1.59735 145.578 2.36792 146.456 3.21833C147.334 4.06874 148.453 5.25584 148.943 5.85633C149.814 6.91847 150.784 8.57417 150.693 8.8345C150.668 8.90739 149.836 8.33119 148.844 7.56062C144.435 4.12428 141.581 2.77403 137.736 2.31238C134.395 1.91321 131.873 2.83304 129.228 5.42245C127.376 7.23781 126.18 9.08094 125.711 10.8512C125.587 11.3163 125.541 11.7502 125.612 11.8161C125.739 11.9411 128.646 10.8269 129.309 10.3999C129.51 10.2715 129.76 9.92788 129.866 9.63631C130.025 9.20243 130.117 9.12259 130.367 9.2059C131.238 9.48705 131.669 9.45581 132.071 9.08788C132.452 8.74078 132.625 8.71301 135.179 8.55334C139.062 8.31037 139.362 8.32425 140.043 8.74425C140.558 9.06359 140.643 9.07747 140.847 8.87962C141.052 8.6783 141.098 8.72342 141.281 9.2892C141.454 9.82027 141.57 9.94176 141.997 10.0494C142.329 10.1327 142.562 10.1223 142.668 10.0216C142.936 9.7578 143.045 9.8411 143.094 10.3375C143.137 10.7748 143.214 10.8373 144.1 11.1497C145.133 11.5141 146.082 12.0175 146.675 12.5173L147.045 12.8297L144.717 12.7255C139.51 12.4895 135.782 12.6492 133.524 13.2045C129.725 14.1417 126.949 16.3181 125.199 19.7371C124.525 21.0526 123.742 23.4303 123.439 25.079C123.03 27.304 123.153 31.8753 123.658 33.2186C123.76 33.4929 123.806 33.4859 124.511 33.0277C125.351 32.4863 130.854 27.2762 131.168 26.7278C131.309 26.4779 131.341 26.1308 131.267 25.558C131.171 24.8152 131.185 24.7527 131.432 24.8465C131.581 24.902 131.976 24.9853 132.314 25.0304C132.861 25.1033 132.999 25.0547 133.598 24.5618C133.969 24.2564 134.424 23.9405 134.607 23.8572C134.794 23.7739 134.946 23.649 134.946 23.5795C134.946 23.5101 134.607 22.9235 134.194 22.2744C133.75 21.5802 133.524 21.0943 133.641 21.0943C133.75 21.0943 134.388 21.3581 135.066 21.6774C135.739 21.9967 136.53 22.3057 136.822 22.3577L137.352 22.4549V21.6253C137.352 21.1706 137.387 20.7957 137.433 20.7957C137.479 20.7957 137.711 20.9381 137.955 21.1151C138.6 21.5837 139.066 21.5177 140.89 20.6916C142.481 19.9731 143.719 19.5982 145.2 19.3865C145.592 19.331 145.913 19.2338 145.913 19.1713C145.913 19.1088 145.811 18.8172 145.687 18.5222C145.564 18.2272 145.5 17.9877 145.546 17.9877C145.592 17.9877 145.899 18.1959 146.223 18.4528L146.812 18.9179L147.828 18.4632C148.929 17.9703 150.4 17.4705 150.492 17.5607C150.633 17.6996 150.64 31.5421 150.499 31.4519C150.418 31.3998 149.941 31.0909 149.447 30.7716C148.22 29.9802 146.386 29.3658 145.243 29.3658C143.542 29.3658 142.198 29.8899 140.657 31.1499C140.05 31.6463 139.757 31.8129 139.814 31.6324C139.86 31.4796 139.944 31.1568 140.001 30.9139C140.057 30.6709 140.297 30.0773 140.537 29.5983C140.943 28.7861 140.953 28.7097 140.724 28.4598C140.1 27.7795 137.697 27.4914 135.976 27.8871C134.978 28.1162 133.711 28.7097 133.298 29.1436L132.981 29.4734L133.404 29.7649C133.637 29.9246 134.064 30.1745 134.353 30.3203C135.097 30.6917 136.576 31.8302 136.762 32.1773C136.918 32.462 136.911 32.4654 136.35 32.2294C132.801 30.7368 131.09 30.421 129.072 30.8861C127.295 31.2957 125.894 32.58 125.1 34.5238C124.719 35.454 124.434 37.1861 124.656 37.1861C125.058 37.1861 126.54 35.8879 126.54 35.5338C126.54 35.3464 126.653 35.2666 126.91 35.2666C127.115 35.2666 127.407 35.1312 127.566 34.9646C127.951 34.5585 130.808 33.6629 131.563 33.715C131.887 33.7358 132.226 33.8504 132.314 33.9719C132.431 34.1281 132.575 34.1558 132.819 34.0656C133.062 33.9753 133.186 33.9996 133.242 34.1454C133.288 34.2634 133.658 34.3884 134.12 34.4474C134.561 34.5029 135.041 34.6314 135.189 34.739C135.426 34.909 135.309 34.9611 134.269 35.1798C128.339 36.4224 126.162 37.9948 125.481 41.5214C125.294 42.4933 125.305 44.024 125.506 45.0966C125.693 46.0893 126.504 48.2622 126.688 48.2622C127.019 48.2622 129.612 44.0657 129.503 43.7012C129.464 43.5693 129.383 43.3437 129.323 43.2014C129.235 42.9897 129.295 42.9445 129.665 42.9445C130.004 42.9445 130.215 42.8126 130.526 42.4135L130.935 41.8824L130.466 41.4034C130.208 41.1396 130.032 40.8897 130.081 40.8411C130.127 40.796 130.416 40.8133 130.723 40.8827C131.03 40.9522 131.439 41.0112 131.637 41.0146C131.951 41.0181 131.983 40.966 131.905 40.5842C131.82 40.1677 131.835 40.1538 132.3 40.2232C132.702 40.2822 132.907 40.192 133.531 39.6818C133.944 39.3451 134.618 38.9008 135.034 38.696C135.972 38.2308 135.919 38.2933 135.722 37.9289C135.567 37.6408 135.577 37.6338 135.926 37.7866C136.251 37.9323 136.389 37.8872 137.041 37.4151C137.45 37.1201 137.845 36.8771 137.923 36.8771C137.997 36.8771 138.216 37.4915 138.403 38.2447C138.59 38.9945 139.443 42.0039 140.294 44.93C141.144 47.8561 141.99 50.8863 142.174 51.6673L142.392 52.601L149.014 54.9995C149.014 54.9995 146.054 50.1747 145.938 50.1747C145.888 50.1747 145.408 50.4837 144.876 50.8655L143.906 51.5562L144.781 50.5704C145.264 50.029 145.634 49.5361 145.606 49.4736C145.313 48.821 144.22 47.0716 144.107 47.0716C144.026 47.0716 143.712 47.2521 143.408 47.4708L142.855 47.87L143.239 47.4326C144.043 46.5163 144.043 46.6516 143.225 44.9439L142.466 43.3645L141.987 43.6978L141.507 44.031L141.923 43.493L142.34 42.955L141.874 41.6568C141.616 40.9417 141.384 40.3343 141.352 40.3031C141.32 40.2718 141.105 40.369 140.872 40.5183L140.445 40.789L140.844 40.2614L141.242 39.7338L140.957 38.7203C140.798 38.1614 140.611 37.3874 140.54 36.9952C140.382 36.1378 140.392 36.1378 141.966 36.655C143.147 37.0472 143.37 37.0333 143.37 36.5786C143.37 36.1135 143.631 36.11 143.793 36.5682C143.98 37.0958 144.449 37.4047 145.25 37.5332C145.602 37.5887 146.128 37.8421 146.516 38.1406C146.879 38.4218 147.349 38.696 147.564 38.748C147.775 38.8001 148.276 39.1819 148.675 39.595L149.398 40.3447L149.758 39.9386C149.955 39.7165 150.157 39.5325 150.202 39.5325C150.252 39.5325 150.269 39.8796 150.248 40.3065C150.209 41.0007 150.245 41.0979 150.562 41.2298L150.918 41.3791L150.827 46.6239C150.777 49.5083 150.675 52.365 150.601 52.9759C150.527 53.5868 150.322 55.2876 150.322 55.2876C150.322 55.2876 153.106 56.2977 156.047 56.6309C159.286 56.9988 162.683 56.683 162.683 56.683C162.683 56.683 162.281 55.6486 161.702 54.1699C161.124 52.6913 160.231 50.2719 159.723 48.7933C159.215 47.3146 158.778 46.0789 158.753 46.0477C158.728 46.0164 157.691 46.3948 156.45 46.8842C155.208 47.3736 154.192 47.7311 154.196 47.6791C154.199 47.6235 155.13 47.0126 156.263 46.3219C158.037 45.2354 158.319 45.0133 158.305 44.6974C158.291 44.333 157.06 39.5117 156.954 39.4006C156.901 39.3451 156.351 39.5394 154.527 40.2545C154.093 40.4246 153.737 40.5391 153.737 40.5079C153.737 40.4766 154.414 40.0358 155.24 39.5255C156.203 38.932 156.742 38.5085 156.742 38.3454C156.742 38.2031 156.615 37.4672 156.46 36.7071C156.305 35.9469 156.058 34.5585 155.913 33.6248C155.769 32.691 155.631 31.9066 155.614 31.8858C155.596 31.8649 155.053 32.0454 154.407 32.2884C153.762 32.5314 153.215 32.7153 153.19 32.6945C153.169 32.6737 153.695 32.3231 154.358 31.9205L155.564 31.1881L155.48 30.4487C155.434 30.0426 155.321 28.7792 155.229 27.6441C155.137 26.5056 155.035 25.5511 155 25.5164C154.965 25.4817 154.386 25.6656 153.712 25.926C153.039 26.1863 152.467 26.3772 152.442 26.3529C152.418 26.3286 153 25.9433 153.74 25.499L155.084 24.6903V22.0904C155.084 20.6604 155.127 19.088 155.18 18.5986L155.275 17.7065L155.765 17.9078C156.552 18.2306 158.026 19.1192 159.067 19.8933L160.03 20.6118L160.587 19.7093C161.057 18.9491 161.162 18.852 161.258 19.0915C161.321 19.2477 161.378 19.6086 161.381 19.8933C161.395 20.4625 161.861 21.3199 162.344 21.667C162.513 21.7885 163.131 22.1217 163.713 22.4063C164.609 22.8437 164.891 23.0832 165.547 23.9509C166.411 25.0964 167.05 25.6656 167.889 26.0405C168.334 26.2384 168.454 26.3737 168.454 26.6827C168.454 27.2345 169.106 28.4564 169.706 29.0291L170.211 29.5081L170.944 28.9111C171.35 28.5813 171.731 28.314 171.798 28.314C171.96 28.314 171.801 28.9423 171.36 30.06C171.015 30.9312 171.008 31.018 171.23 31.3512C171.36 31.5491 171.741 31.8858 172.073 32.101C172.518 32.3891 172.648 32.5557 172.563 32.7292C172.274 33.3262 172.461 34.0135 173.287 35.4019C173.745 36.1725 174.556 37.5644 175.093 38.4946C175.629 39.4249 176.137 40.2059 176.221 40.2371C176.423 40.3031 176.962 38.8522 177.167 37.7032C177.823 34.0135 176.2 26.9569 173.72 22.7083C171.174 18.3452 168.143 16.2244 161.173 13.9335L158.771 13.1421L161.141 13.031L163.512 12.9199L163.857 12.2465L164.203 11.5732L164.789 12.3958C165.11 12.8505 165.512 13.2566 165.674 13.3017C165.84 13.3469 166.574 13.385 167.307 13.3885C168.457 13.392 168.828 13.4614 170.041 13.9092C171.83 14.5687 172.271 14.5791 172.592 13.9682C172.87 13.4371 172.888 13.4441 173.484 14.534C173.735 14.9887 174.126 15.4989 174.352 15.6621C174.712 15.9224 174.846 15.9397 175.364 15.8044L175.96 15.6482L176.059 16.1549C176.147 16.6097 176.264 16.7138 177.227 17.1616C177.816 17.4358 178.666 17.8592 179.114 18.1057C179.566 18.3521 179.961 18.5222 179.996 18.491C180.081 18.4077 178.871 16.7173 177.17 14.5478C172.807 8.98375 169.166 6.74145 164.482 6.74145C161.928 6.74145 159.476 7.47037 157.018 8.95598C156.615 9.19895 156.252 9.40028 156.21 9.40028C156.079 9.40028 156.905 7.89037 157.621 6.82128C157.998 6.2555 158.704 5.37733 159.187 4.87055C159.825 4.19717 160.041 3.87089 159.977 3.66957C159.79 3.08643 158.326 1.86809 157.12 1.28842C155.31 0.420661 153.744 0.080497 151.254 0.00760489C149.578 -0.0201635 148.88 0.0214919 147.857 0.243639Z" fill="white"/>
<path d="M116.507 48.8974C116.504 48.9043 116.497 48.9113 116.493 48.9182C115.4 50.3795 114.045 51.3965 112.186 51.5007H111.685C108.408 51.5007 107.3 49.0432 107.3 45.7075C107.3 40.0254 110.521 31.8823 111.632 29.2061C112.077 28.2238 113.466 27.894 114.853 27.894C116.574 27.894 118.352 28.439 118.352 29.0395L118.296 29.2026C117.184 31.1707 112.189 42.5905 112.189 47.3979C112.189 48.3837 112.412 49.1473 112.966 49.366C113.131 49.4771 113.354 49.4771 113.523 49.4771C114.542 49.4771 115.516 48.4739 116.412 47.1376C116.415 47.1341 116.415 47.1306 116.419 47.1271C116.447 47.0786 116.751 46.5787 116.863 46.3809C117.255 45.6797 117.978 44.1802 118.327 43.4409C118.62 42.8265 118.945 41.8581 119.128 41.0424C119.227 40.5981 119.195 40.1191 119.033 40.074C118.818 40.015 118.567 40.1955 118.338 40.5356C116.394 43.4131 115.9 47.8109 116.955 50.9488C117.463 52.3962 118.698 53.3681 120.063 53.5243C121.548 53.7499 123.315 53.4098 125.15 53.0036L127.919 52.3476C128.938 52.1116 129.975 51.8825 131.058 51.7714C133.214 51.5423 135.506 51.6499 137.588 52.1532C141.747 53.1494 145.324 54.878 148.858 56.1102C150.615 56.742 152.364 57.2036 154.202 57.5021C156.054 57.7798 157.931 58.0263 159.762 58.0367C163.441 58.0471 167.17 57.3563 170.457 55.5896C173.064 54.2498 175.35 52.2747 177.227 49.9005C177.421 49.6541 177.809 49.8971 177.667 50.1713C176.246 52.9134 174.136 55.3744 171.501 57.2314C168.14 59.6056 164.009 60.8899 159.875 61.178C157.786 61.3446 155.744 61.2578 153.708 61.0426C151.663 60.8274 149.581 60.4005 147.62 59.8139C143.715 58.6372 140.163 56.9988 136.656 56.2873C134.917 55.9159 133.245 55.7944 131.503 55.9714C130.635 56.0686 129.746 56.1935 128.85 56.3671C127.866 56.5545 126.878 56.7489 125.862 56.8843C123.862 57.1203 121.643 57.4153 119.28 56.735C116.765 56.1068 114.877 53.8749 114.468 51.5736C114.084 49.359 114.511 47.1792 114.81 45.645C115.036 44.4857 115.452 43.2639 115.84 42.3649C116.236 41.4624 116.687 40.6745 117.424 39.7928C117.745 39.3832 118.497 38.8903 119.181 39.0292C119.558 39.1055 119.858 39.4075 119.971 39.6887C120.162 40.1712 120.119 40.6397 119.964 41.2819C119.802 41.9518 119.484 42.8161 119.202 43.5624C118.599 45.1382 118.035 46.3288 117.555 47.1792C117.311 47.62 116.581 48.7759 116.507 48.8974Z" fill="white"/>
<path d="M94.3091 99.4978H92.1221V98.7168H97.3993V99.4978H95.2122V104.996H94.3091V99.4978Z" fill="white"/>
<path d="M102.705 104.996L101.329 103.066C101.16 103.076 101.026 103.083 100.927 103.083H99.35V104.993H98.4399V98.7134H100.927C101.752 98.7134 102.405 98.9078 102.878 99.2965C103.35 99.6853 103.59 100.22 103.59 100.904C103.59 101.39 103.47 101.799 103.227 102.143C102.983 102.483 102.638 102.733 102.186 102.889L103.699 104.996H102.705ZM102.221 101.955C102.525 101.709 102.676 101.362 102.676 100.907C102.676 100.452 102.525 100.105 102.221 99.8623C101.918 99.6193 101.477 99.4978 100.899 99.4978H99.35V102.323H100.899C101.477 102.323 101.918 102.202 102.221 101.955Z" fill="white"/>
<path d="M109.178 103.427H105.788L105.086 104.996H104.147L107.037 98.7168H107.94L110.839 104.996H109.883L109.178 103.427ZM108.857 102.709L107.481 99.6332L106.105 102.709H108.857Z" fill="white"/>
<path d="M117.034 98.7168L114.236 104.996H113.333L110.525 98.7168H111.51L113.806 103.875L116.12 98.7168H117.034Z" fill="white"/>
<path d="M122.522 104.215V104.996H117.891V98.7168H122.395V99.4978H118.804V101.428H122.004V102.191H118.804V104.218H122.522V104.215Z" fill="white"/>
<path d="M124.043 98.7168H124.953V104.215H128.406V104.996H124.039V98.7168H124.043Z" fill="white"/>
</svg>
