<svg width="165" height="98" viewBox="0 0 165 98" fill="none" xmlns="http://www.w3.org/2000/svg">
<path d="M42.3952 49.2958C39.0873 48.7353 37.8165 45.9816 37.8165 42.3111C37.8165 34.51 43.3653 22.4746 46.5213 17.7318C40.5165 23.1874 30.7932 36.8036 30.6412 45.1166C30.6412 45.2689 30.4893 45.4211 30.3373 45.4211H30.0818C26.5702 45.4211 25.3479 42.9234 25.3479 39.4051C25.3479 32.6212 29.9784 22.115 31.3559 19.209C24.74 25.6333 13.7944 48.6835 6.1082 49.3994L5.34508 49.4513C1.78169 49.4513 0 47.0021 0 43.432V43.2797C0 43.1275 3.95107e-07 42.8197 0.151978 42.7192L0.252217 42.6674C0.404195 42.6674 0.559404 42.8197 0.659645 42.9234C1.78169 43.7397 2.95224 44.0961 4.11956 44.0961C4.83418 44.0961 5.49382 43.9924 6.20844 43.7883C14.8615 41.1869 23.7182 23.8482 30.2855 16.5039C31.9153 14.6671 33.7972 13.7502 35.9863 13.4457C36.2418 13.3939 36.646 13.3939 37.1051 13.3939C38.2272 13.3939 39.6499 13.5461 39.6499 14.1584C39.6499 14.2589 39.5982 14.3625 39.5465 14.463C35.8311 21.0427 30.2306 30.6807 29.5709 39.81C31.76 32.3621 41.6353 15.4316 49.3215 13.4943C49.577 13.4425 50.4921 13.3906 51.4589 13.3906C52.7814 13.3906 54.2592 13.5429 54.2592 14.207L54.1589 14.5148C50.4436 21.4509 43.1648 35.1676 43.1648 42.8164C43.1648 44.5011 43.5205 45.8747 44.3354 46.8433C44.843 47.4556 45.6062 47.6597 46.421 47.6597C46.7767 47.6597 47.1324 47.6597 47.5398 47.5593H47.6918C47.999 47.5593 48.151 47.7634 48.151 48.0679C48.151 48.272 48.0507 48.4761 47.7953 48.5798C46.3693 49.2407 45.147 49.4448 44.0282 49.4448C43.4138 49.448 42.9061 49.3994 42.3952 49.2958Z" fill="#00BBC5"/>
<path d="M61.8516 48.0639C58.6439 48.0639 57.7806 45.4107 57.7806 42.6083L57.8323 41.4356C57.2212 43.1202 56.6618 44.3934 55.9989 45.3102C54.9803 46.5866 53.9618 47.0953 52.539 47.0953H51.9278C49.1276 46.7389 47.957 44.1893 47.957 40.9756C47.957 34.7036 52.2835 25.9824 57.6803 25.9824C59.462 25.9824 60.8363 26.8992 61.2437 28.6357L61.8549 27.1552C62.466 26.3388 63.6366 25.9824 64.8589 25.9824C66.0294 25.9824 67.2 26.3388 67.8111 26.8474C67.8628 26.8992 67.9113 26.9478 67.9113 27.0515L67.8596 27.2556C66.841 29.2966 64.0925 35.6204 62.8702 40.4637C62.7182 41.1246 62.2591 42.861 62.2591 44.2379C62.2591 45.1061 62.411 45.8189 62.9737 46.0748L63.3811 46.1266C65.0593 46.1266 67.5039 41.7401 68.1151 40.3633C68.1668 40.2628 68.267 40.211 68.3705 40.211C68.5225 40.211 68.6777 40.3114 68.6777 40.5155V40.616C67.7594 43.4215 65.9292 47.8566 62.314 48.0607H61.8516V48.0639ZM55.9472 43.3211C56.9657 41.4842 58.6439 36.7932 59.6108 33.2749V33.2231C60.0182 31.7458 60.1702 30.6734 60.1702 29.9607V29.7048C60.07 29.0925 59.8145 28.8398 59.3553 28.7361L59.0514 28.6843C57.5251 28.6843 55.64 31.4898 54.3174 34.804C53.4541 36.9454 52.7395 39.5987 52.6392 41.7887V42.3006C52.6392 43.8297 53.0467 44.902 53.9618 45.1061H54.1137C54.6246 45.1061 55.184 44.5975 55.9472 43.3211Z" fill="#00BBC5"/>
<path d="M72.2381 48.0642C69.9973 48.0642 68.7265 46.9952 68.2188 44.9542C68.0668 44.2382 67.9634 43.4737 67.9634 42.6087C67.9634 35.7762 73.0045 24.7096 75.2421 19.4062C75.5978 18.4894 77.0238 18.1816 78.3981 18.1816C80.0278 18.1816 81.706 18.6417 81.706 19.1503L81.6543 19.3026C80.28 22.0563 72.3384 38.8345 72.3384 44.3937C72.3384 45.2587 72.5421 45.871 73.0498 46.0751L73.5089 46.1788C75.4426 46.1788 77.732 41.7923 78.3431 40.3636C78.3948 40.2632 78.4951 40.2113 78.5986 40.2113C78.7505 40.2113 78.9025 40.3118 78.9025 40.4673L78.8508 40.6195C77.9842 43.4251 76.154 47.9638 72.5389 48.0642H72.2381Z" fill="#00BBC5"/>
<path d="M92.3955 48.0636C89.0876 48.0636 88.221 45.5658 88.221 42.8089C88.221 42.1966 88.2727 41.5843 88.3212 40.972C87.3544 43.7775 86.1839 47.1435 82.8242 47.1435L82.2648 47.0917C79.5163 46.7872 78.3457 44.2343 78.3457 40.972C78.3457 34.7518 82.6722 25.9788 88.0173 25.9788C89.7472 25.9788 91.1733 26.8957 91.6292 28.5803C93.1069 24.602 94.174 22.2565 95.3445 19.5546C95.8037 18.5859 97.33 18.1777 98.8045 18.1777C100.382 18.1777 101.857 18.6378 101.857 19.2501L101.805 19.4542C100.942 21.1355 97.7859 27.8676 95.545 33.6827C93.9153 37.9137 92.5928 42.0475 92.5928 44.3412C92.5928 45.2062 92.7965 45.8185 93.2524 46.0744C93.3559 46.1263 93.5596 46.1781 93.6599 46.1781C95.4933 46.1781 98.0381 41.6393 98.5458 40.3629C98.6492 40.2625 98.7495 40.2107 98.853 40.2107C99.0049 40.2107 99.1084 40.3111 99.1084 40.5152V40.6156C98.1933 43.4212 96.3599 47.9599 92.7448 48.0603H92.3955V48.0636ZM89.3431 35.3155C89.5468 34.6028 90.5136 32.0014 90.5136 30.2681C90.5136 29.144 90.2064 28.7876 89.3916 28.6872C86.5396 28.6872 83.0279 37.6124 83.0279 42.3035C83.0279 43.9849 83.4353 45.0053 84.4539 45.109C86.4911 45.1058 88.9356 36.592 89.3431 35.3155Z" fill="#00BBC5"/>
<path d="M104.82 21.8513C104.82 20.2185 106.246 17.9248 108.331 17.9248C109.858 17.9766 110.621 18.8935 110.621 20.374C110.621 22.4668 108.839 24.1482 107.161 24.1482C105.99 24.1482 104.82 23.4322 104.82 21.8513Z" fill="#00BBC5"/>
<path d="M65.5606 85.4715C62.2526 84.9111 60.9819 82.1574 60.9819 78.4868C60.9819 70.6857 66.5306 58.6504 69.6866 53.9075C63.6786 59.3631 53.9586 72.9794 53.8066 81.2924C53.8066 81.4446 53.6546 81.5969 53.5026 81.5969H53.2472C49.7355 81.5969 48.5132 79.0991 48.5132 75.5809C48.5132 68.797 53.1437 58.2908 54.518 55.3848C47.9021 61.8091 36.9565 84.8592 29.2703 85.5752L28.5072 85.627C24.9438 85.627 23.1621 83.1779 23.1621 79.6078V79.4555C23.1621 79.3032 23.1621 78.9955 23.3141 78.895L23.4143 78.8432C23.5663 78.8432 23.7215 78.9955 23.8218 79.0991C24.9438 79.9155 26.1143 80.2719 27.2817 80.2719C27.9963 80.2719 28.6559 80.1682 29.3705 79.9641C38.0236 77.3627 46.8803 60.024 53.4477 52.6797C55.0774 50.8428 56.9593 49.926 59.1484 49.6215C59.4039 49.5697 59.8081 49.5696 60.2672 49.5696C61.3893 49.5696 62.812 49.7219 62.812 50.3342C62.812 50.4346 62.7603 50.5383 62.7086 50.6387C58.9932 57.2185 53.3927 66.8565 52.733 75.9858C54.9222 68.5379 64.7975 51.6074 72.4836 49.6701C72.7391 49.6182 73.6542 49.5664 74.621 49.5664C75.9436 49.5664 77.4213 49.7187 77.4213 50.3828L77.321 50.6906C73.6057 57.6267 66.3269 71.3434 66.3269 78.9922C66.3269 80.6769 66.6826 82.0505 67.4975 83.0191C68.0052 83.6314 68.7683 83.8355 69.5831 83.8355C69.9388 83.8355 70.2945 83.8355 70.7019 83.7351H70.8539C71.1611 83.7351 71.3131 83.9392 71.3131 84.2437C71.3131 84.4478 71.2128 84.6519 70.9574 84.7556C69.5314 85.4165 68.3091 85.6206 67.1903 85.6206C66.5791 85.6238 66.0715 85.5752 65.5606 85.4715Z" fill="#DFAB5E"/>
<path d="M84.92 85.5044C81.7123 85.5044 80.8489 82.8511 80.8489 80.0488L80.9007 78.876C80.2895 80.5606 79.7301 81.8338 79.0673 82.7507C78.0487 84.0271 77.0301 84.5357 75.6073 84.5357H74.9962C72.1959 84.1793 71.0254 81.6297 71.0254 78.416C71.0254 72.144 75.3519 63.4229 80.7487 63.4229C82.5304 63.4229 83.9047 64.3397 84.3121 66.0761L84.9232 64.5956C85.5344 63.7792 86.7049 63.4229 87.9272 63.4229C89.0978 63.4229 90.2683 63.7792 90.8795 64.2878C90.9312 64.3397 90.9797 64.3883 90.9797 64.4919L90.928 64.696C89.9094 66.737 87.1609 73.0608 85.9386 77.9041C85.7866 78.565 85.3274 80.3015 85.3274 81.6783C85.3274 82.5466 85.4794 83.2593 86.0421 83.5152L86.4495 83.567C88.1277 83.567 90.5723 79.1806 91.1834 77.8037C91.2352 77.7033 91.3354 77.6514 91.4389 77.6514C91.5908 77.6514 91.7461 77.7519 91.7461 77.956V78.0564C90.8277 80.8619 88.9975 85.297 85.3824 85.5011H84.92V85.5044ZM79.0155 80.7615C80.0341 78.9246 81.7123 74.2336 82.6791 70.7153V70.6635C83.0866 69.1862 83.2386 68.1139 83.2386 67.4012V67.1452C83.1383 66.5329 82.8829 66.2802 82.4237 66.1766L82.1197 66.1247C80.5935 66.1247 78.7083 68.9303 77.3858 72.2444C76.5224 74.3859 75.8078 77.0391 75.7076 79.2291V79.741C75.7076 81.2701 76.115 82.3425 77.0301 82.5466H77.1821C77.693 82.5466 78.2524 82.0347 79.0155 80.7615Z" fill="#DFAB5E"/>
<path d="M92.9138 85.6051C91.3358 85.401 90.7764 83.7682 90.7764 81.5264C90.7764 76.0708 94.1878 66.8378 95.0026 64.8518C95.4618 63.8314 96.7326 63.475 98.0066 63.475C99.6363 63.475 101.315 64.0354 101.315 64.5959L101.263 64.6963C98.9217 70.1519 97.7512 73.5179 96.0212 79.2295C97.8546 75.1507 103.859 63.4199 108.39 63.4199H108.441C110.579 63.4718 111.242 64.5408 111.293 66.1736V66.3259C111.293 70.1001 106.252 78.7694 106.252 82.2359C106.252 83.1527 106.608 83.7131 107.474 83.7131C109.764 83.7131 112.208 78.818 112.564 77.8494C112.616 77.6971 112.716 77.6453 112.82 77.6453C112.972 77.6453 113.127 77.7457 113.127 77.9498V78.0502C112.312 80.5998 110.175 85.495 106.356 85.495H106.204C102.488 85.3945 101.214 83.6581 101.214 81.3126C101.214 76.5179 106.304 69.2772 106.304 67.9004L106.252 67.7481C106.152 67.6477 106.048 67.5958 105.948 67.5958C103.656 67.5958 95.8207 83.3017 94.9541 85.1386C94.8022 85.4464 93.6801 85.5986 93.1207 85.5986H92.9138V85.6051Z" fill="#DFAB5E"/>
<path d="M116.434 85.5051C113.43 85.5051 112.411 83.2114 112.411 80.0981C112.411 74.7948 115.363 67.1945 116.382 64.6967C116.789 63.7799 118.06 63.4721 119.334 63.4721C120.912 63.4721 122.542 63.9808 122.542 64.5412L122.49 64.6935C121.472 66.5304 116.89 77.1889 116.89 81.6758C116.89 82.5958 117.093 83.3086 117.604 83.5127C117.756 83.6163 117.96 83.6164 118.112 83.6164C119.997 83.6164 122.031 79.3335 122.694 77.8012C122.746 77.7007 122.846 77.6489 122.949 77.6489C123.205 77.6489 123.253 77.853 123.253 77.9534V78.0539C122.338 80.8594 120.505 85.2945 116.89 85.4986H116.434V85.5051ZM118.878 59.2898C118.878 57.657 120.304 55.3633 122.39 55.3633C123.919 55.4151 124.683 56.3319 124.683 57.8125C124.683 59.9053 122.901 61.5867 121.223 61.5867C120.049 61.5867 118.878 60.8707 118.878 59.2898Z" fill="#DFAB5E"/>
<path d="M123.409 93.7655C123.409 93.1532 123.509 92.4405 123.713 91.7245C124.68 88.4622 126.817 87.2894 129.362 86.4212L130.888 81.4742C130.228 83.107 128.699 84.4839 127.376 84.5325H127.121C123.71 84.5325 122.591 82.3392 122.591 79.3328C122.591 74.334 125.747 67.2456 126.814 64.696C127.221 63.7792 128.392 63.4229 129.614 63.4229C131.292 63.4229 133.026 64.0351 133.026 64.5438L132.974 64.696C131.496 67.1452 129.41 71.8848 127.884 75.9668C127.58 76.8869 126.866 79.1287 126.866 80.7615C126.866 81.6783 127.121 82.4429 127.832 82.4947H127.884C128.851 82.4947 130.377 79.2324 132.059 74.9463C133.84 70.3071 135.315 65.817 135.878 64.5956C136.285 63.7792 137.711 63.4229 139.033 63.4229C140.511 63.4229 141.934 63.831 141.934 64.4433L141.834 64.6993C139.748 68.0653 136.793 79.7443 135.218 84.6394C137.966 83.5671 140.615 82.2939 142.193 77.8555C142.244 77.7551 142.345 77.6514 142.448 77.6514C142.6 77.6514 142.752 77.7519 142.752 77.9074V78.0078C141.53 83.7193 137.255 85.1998 134.759 86.0162C133.895 88.514 133.029 91.1155 132.314 93.5128C131.399 96.7751 129.21 97.9997 127.276 97.9997C125.242 97.9965 123.409 96.4155 123.409 93.7655ZM127.428 92.5927L128.906 87.9017C127.124 88.7181 125.598 89.7872 124.835 92.3368C124.683 92.8454 124.631 93.2536 124.631 93.6618C124.631 94.5786 124.987 95.0905 125.498 95.0905C126.106 95.0905 126.869 94.326 127.428 92.5927Z" fill="#DFAB5E"/>
<path d="M156.039 85.5044C152.831 85.5044 151.968 82.8511 151.968 80.0488L152.02 78.876C151.409 80.5606 150.849 81.8338 150.186 82.7507C149.168 84.0271 148.149 84.5357 146.727 84.5357H146.115C143.315 84.1793 142.145 81.6297 142.145 78.416C142.145 72.144 146.471 63.4229 151.868 63.4229C153.65 63.4229 155.024 64.3397 155.431 66.0761L156.042 64.5956C156.654 63.7792 157.824 63.4229 159.046 63.4229C160.217 63.4229 161.387 63.7792 161.999 64.2878C162.05 64.3397 162.099 64.3883 162.099 64.4919L162.047 64.696C161.029 66.737 158.28 73.0608 157.058 77.9041C156.906 78.565 156.447 80.3015 156.447 81.6783C156.447 82.5466 156.599 83.2593 157.161 83.5152L157.569 83.567C159.247 83.567 161.691 79.1806 162.303 77.8037C162.354 77.7033 162.455 77.6514 162.558 77.6514C162.71 77.6514 162.865 77.7519 162.865 77.956V78.0564C161.947 80.8619 160.117 85.297 156.502 85.5011H156.039V85.5044ZM150.135 80.7615C151.153 78.9246 152.831 74.2336 153.798 70.7153V70.6635C154.206 69.1862 154.358 68.1139 154.358 67.4012V67.1452C154.257 66.5329 154.002 66.2802 153.543 66.1766L153.239 66.1247C151.713 66.1247 149.827 68.9303 148.505 72.2444C147.642 74.3859 146.927 77.0391 146.827 79.2291V79.741C146.827 81.2701 147.234 82.3425 148.149 82.5466H148.301C148.812 82.5466 149.372 82.0347 150.135 80.7615Z" fill="#DFAB5E"/>
<path fill-rule="evenodd" clip-rule="evenodd" d="M135.535 0.227397C134.3 0.499529 132.79 1.14746 132.79 1.40663C132.79 1.49086 133.446 2.21007 134.251 3.00378C135.057 3.7975 136.082 4.90546 136.531 5.46592C137.33 6.45726 138.219 8.00258 138.135 8.24555C138.112 8.31359 137.349 7.7758 136.441 7.0566C132.399 3.84934 129.783 2.58911 126.258 2.15823C123.196 1.78567 120.884 2.64418 118.459 5.06097C116.761 6.75531 115.665 8.47557 115.235 10.1278C115.122 10.5619 115.08 10.9669 115.144 11.0284C115.261 11.145 117.925 10.1051 118.533 9.70664C118.717 9.58677 118.947 9.26604 119.044 8.99391C119.19 8.58895 119.274 8.51444 119.503 8.59219C120.302 8.85461 120.696 8.82545 121.065 8.48205C121.414 8.15808 121.573 8.13216 123.914 7.98314C127.474 7.75636 127.749 7.76932 128.373 8.16132C128.845 8.45937 128.923 8.47233 129.11 8.28767C129.298 8.09977 129.34 8.14188 129.508 8.66995C129.666 9.16561 129.773 9.279 130.164 9.37943C130.468 9.45718 130.682 9.44746 130.779 9.35351C131.024 9.1073 131.125 9.18505 131.17 9.64832C131.209 10.0565 131.28 10.1148 132.091 10.4064C133.039 10.7466 133.909 11.2163 134.452 11.6828L134.791 11.9744L132.657 11.8772C127.885 11.6569 124.467 11.8059 122.397 12.3243C118.915 13.199 116.37 15.2303 114.766 18.4213C114.148 19.6492 113.431 21.8683 113.152 23.4072C112.777 25.4838 112.891 29.7504 113.353 31.0042C113.447 31.2601 113.489 31.2536 114.135 30.826C114.905 30.3206 119.949 25.4579 120.237 24.946C120.367 24.7127 120.396 24.3888 120.328 23.8542C120.24 23.1609 120.253 23.1026 120.48 23.1901C120.616 23.2419 120.978 23.3197 121.288 23.3618C121.789 23.4298 121.915 23.3845 122.465 22.9244C122.805 22.6394 123.222 22.3445 123.39 22.2668C123.561 22.189 123.7 22.0724 123.7 22.0076C123.7 21.9428 123.39 21.3953 123.012 20.7895C122.604 20.1416 122.397 19.688 122.504 19.688C122.604 19.688 123.189 19.9342 123.81 20.2323C124.428 20.5303 125.152 20.8187 125.421 20.8673L125.906 20.958V20.1837C125.906 19.7593 125.938 19.4094 125.98 19.4094C126.022 19.4094 126.235 19.5422 126.459 19.7075C127.05 20.1448 127.477 20.0833 129.149 19.3122C130.607 18.6416 131.742 18.2917 133.1 18.0941C133.459 18.0423 133.753 17.9516 133.753 17.8933C133.753 17.8349 133.66 17.5628 133.547 17.2874C133.433 17.0121 133.375 16.7885 133.417 16.7885C133.459 16.7885 133.741 16.9829 134.038 17.2226L134.578 17.6568L135.509 17.2324C136.518 16.7723 137.867 16.3058 137.951 16.3901C138.08 16.5196 138.086 29.4394 137.957 29.3552C137.883 29.3066 137.446 29.0182 136.994 28.7202C135.868 27.9816 134.187 27.4081 133.139 27.4081C131.581 27.4081 130.349 27.8973 128.935 29.0733C128.379 29.5366 128.111 29.6921 128.163 29.5236C128.205 29.3811 128.282 29.0798 128.334 28.853C128.386 28.6262 128.606 28.0723 128.826 27.6252C129.197 26.8671 129.207 26.7958 128.997 26.5626C128.425 25.9276 126.223 25.6587 124.645 26.028C123.729 26.2419 122.569 26.7958 122.19 27.2008L121.899 27.5086L122.287 27.7807C122.501 27.9297 122.892 28.163 123.157 28.299C123.839 28.6457 125.194 29.7083 125.366 30.0323C125.508 30.2979 125.501 30.3011 124.987 30.0808C121.734 28.6878 120.166 28.393 118.316 28.8271C116.687 29.2094 115.403 30.4081 114.675 32.2223C114.326 33.0905 114.064 34.7071 114.268 34.7071C114.637 34.7071 115.995 33.4954 115.995 33.165C115.995 32.9901 116.098 32.9156 116.334 32.9156C116.522 32.9156 116.79 32.7892 116.936 32.6337C117.288 32.2547 119.907 31.4188 120.599 31.4674C120.897 31.4869 121.207 31.5938 121.288 31.7072C121.395 31.8529 121.527 31.8789 121.75 31.7946C121.974 31.7104 122.087 31.7331 122.139 31.8691C122.181 31.9793 122.52 32.0959 122.944 32.151C123.348 32.2028 123.788 32.3227 123.923 32.4231C124.14 32.5819 124.033 32.6305 123.079 32.8346C117.644 33.9944 115.649 35.4619 115.025 38.7534C114.853 39.6605 114.863 41.0892 115.047 42.0903C115.219 43.0168 115.962 45.0448 116.131 45.0448C116.435 45.0448 118.811 41.1281 118.711 40.7879C118.675 40.6648 118.601 40.4542 118.546 40.3214C118.465 40.1238 118.52 40.0817 118.86 40.0817C119.17 40.0817 119.364 39.9586 119.649 39.586L120.024 39.0903L119.594 38.6433C119.358 38.3971 119.196 38.1638 119.241 38.1184C119.283 38.0763 119.548 38.0925 119.83 38.1573C120.111 38.2221 120.486 38.2772 120.667 38.2804C120.955 38.2837 120.984 38.2351 120.913 37.8787C120.835 37.4899 120.848 37.477 121.275 37.5418C121.644 37.5969 121.831 37.5126 122.404 37.0364C122.782 36.7222 123.4 36.3075 123.781 36.1163C124.641 35.6822 124.593 35.7405 124.412 35.4004C124.269 35.1315 124.279 35.125 124.599 35.2675C124.897 35.4036 125.023 35.3615 125.621 34.9209C125.996 34.6455 126.358 34.4188 126.429 34.4188C126.497 34.4188 126.698 34.9922 126.869 35.6952C127.041 36.3949 127.823 39.2037 128.602 41.9348C129.382 44.6658 130.158 47.494 130.326 48.2229L130.526 49.0944L136.596 51.333C136.596 51.333 133.883 46.8299 133.776 46.8299C133.731 46.8299 133.291 47.1182 132.803 47.4746L131.914 48.1193L132.716 47.1992C133.159 46.6938 133.498 46.2338 133.472 46.1755C133.204 45.5664 132.201 43.9336 132.098 43.9336C132.024 43.9336 131.736 44.1021 131.458 44.3062L130.95 44.6788L131.302 44.2706C132.04 43.4153 132.04 43.5416 131.289 41.9477L130.594 40.4737L130.155 40.7847L129.715 41.0957L130.096 40.5935L130.478 40.0914L130.051 38.8798C129.815 38.2124 129.602 37.6455 129.572 37.6163C129.543 37.5871 129.346 37.6778 129.133 37.8172L128.741 38.0699L129.107 37.5774L129.472 37.085L129.21 36.139C129.065 35.6174 128.893 34.895 128.829 34.5289C128.683 33.7287 128.693 33.7287 130.135 34.2114C131.218 34.5775 131.422 34.5645 131.422 34.1401C131.422 33.706 131.661 33.7028 131.81 34.1304C131.981 34.6228 132.412 34.9112 133.146 35.031C133.469 35.0829 133.951 35.3194 134.306 35.598C134.639 35.8604 135.07 36.1163 135.267 36.1649C135.461 36.2135 135.92 36.5699 136.285 36.9554L136.948 37.6552L137.278 37.2761C137.459 37.0688 137.643 36.8971 137.685 36.8971C137.731 36.8971 137.747 37.2211 137.728 37.6195C137.692 38.2675 137.724 38.3582 138.015 38.4813L138.342 38.6206L138.258 43.5157C138.213 46.2079 138.119 48.8741 138.051 49.4443C137.983 50.0145 137.795 51.6019 137.795 51.6019C137.795 51.6019 140.347 52.5446 143.044 52.8556C146.012 53.1991 149.126 52.9042 149.126 52.9042C149.126 52.9042 148.757 51.9388 148.227 50.5587C147.697 49.1786 146.879 46.9206 146.413 45.5405C145.947 44.1604 145.546 43.0071 145.524 42.9779C145.501 42.9488 144.55 43.3019 143.412 43.7587C142.274 44.2155 141.343 44.5492 141.346 44.5006C141.349 44.4487 142.203 43.8786 143.241 43.2339C144.867 42.2198 145.126 42.0125 145.113 41.7177C145.1 41.3775 143.972 36.8777 143.875 36.774C143.826 36.7222 143.322 36.9036 141.65 37.5709C141.252 37.7297 140.926 37.8366 140.926 37.8074C140.926 37.7783 141.546 37.3668 142.303 36.8906C143.186 36.3366 143.681 35.9414 143.681 35.7891C143.681 35.6563 143.564 34.9695 143.422 34.26C143.28 33.5505 143.053 32.2547 142.921 31.3832C142.788 30.5117 142.662 29.7796 142.646 29.7601C142.63 29.7407 142.132 29.9091 141.54 30.1359C140.948 30.3627 140.447 30.5344 140.424 30.515C140.405 30.4955 140.887 30.1683 141.495 29.7925L142.601 29.109L142.523 28.4189C142.481 28.0399 142.377 26.8606 142.293 25.8013C142.209 24.7387 142.115 23.8477 142.083 23.8153C142.051 23.783 141.521 23.9547 140.903 24.1976C140.285 24.4406 139.761 24.6188 139.739 24.5961C139.716 24.5734 140.25 24.2138 140.929 23.7992L142.161 23.0443V20.6178C142.161 19.2831 142.2 17.8155 142.248 17.3587L142.335 16.5261L142.785 16.714C143.506 17.0153 144.858 17.8447 145.811 18.5671L146.694 19.2377L147.205 18.3954C147.635 17.6859 147.732 17.5952 147.819 17.8187C147.878 17.9645 147.929 18.3015 147.933 18.5671C147.946 19.0984 148.372 19.8986 148.815 20.2226C148.971 20.336 149.536 20.647 150.07 20.9126C150.891 21.3208 151.15 21.5444 151.751 22.3543C152.544 23.4234 153.129 23.9547 153.899 24.3045C154.306 24.4892 154.416 24.6155 154.416 24.9039C154.416 25.419 155.014 26.5593 155.564 27.0939L156.026 27.541L156.699 26.9837C157.071 26.676 157.42 26.4265 157.481 26.4265C157.63 26.4265 157.485 27.0129 157.08 28.0561C156.764 28.8692 156.757 28.9502 156.961 29.2612C157.08 29.4459 157.43 29.7601 157.734 29.961C158.141 30.2299 158.261 30.3854 158.183 30.5474C157.918 31.1046 158.089 31.746 158.846 33.0419C159.266 33.7611 160.01 35.0602 160.502 35.9284C160.993 36.7967 161.459 37.5256 161.536 37.5547C161.721 37.6163 162.215 36.2621 162.403 35.1898C163.004 31.746 161.517 25.1598 159.244 21.1945C156.909 17.1222 154.131 15.1428 147.742 13.0046L145.54 12.266L147.713 12.1623L149.886 12.0586L150.203 11.4301L150.52 10.8016L151.056 11.5694C151.351 11.9938 151.719 12.3729 151.868 12.415C152.02 12.4571 152.692 12.4927 153.365 12.496C154.419 12.4992 154.759 12.564 155.871 12.9819C157.51 13.5975 157.915 13.6072 158.209 13.037C158.464 12.5413 158.481 12.5478 159.027 13.5651C159.257 13.9895 159.616 14.4657 159.822 14.618C160.152 14.8609 160.275 14.8771 160.751 14.7508L161.297 14.605L161.388 15.078C161.468 15.5024 161.575 15.5996 162.458 16.0175C162.998 16.2734 163.777 16.6687 164.188 16.8987C164.602 17.1287 164.964 17.2874 164.996 17.2583C165.074 17.1805 163.965 15.6028 162.406 13.578C158.406 8.38485 155.069 6.29204 150.775 6.29204C148.434 6.29204 146.187 6.97236 143.933 8.35894C143.564 8.58571 143.231 8.77362 143.192 8.77362C143.073 8.77362 143.829 7.36436 144.486 6.36655C144.832 5.83848 145.478 5.01885 145.921 4.54586C146.507 3.91737 146.704 3.61284 146.646 3.42494C146.474 2.88068 145.132 1.74356 144.027 1.20253C142.368 0.392618 140.932 0.0751307 138.649 0.00709792C137.113 -0.0188193 136.473 0.0200591 135.535 0.227397Z" fill="#DFAB5E"/>
<path d="M106.798 45.6383C106.795 45.6448 106.789 45.6513 106.786 45.6578C105.783 47.0217 104.541 47.9709 102.837 48.0681H102.378C99.3742 48.0681 98.3589 45.7744 98.3589 42.6611C98.3589 37.3578 101.311 29.7575 102.33 27.2597C102.737 26.3429 104.011 26.0352 105.282 26.0352C106.86 26.0352 108.49 26.5438 108.49 27.1042L108.438 27.2565C107.419 29.0934 102.841 39.7519 102.841 44.2388C102.841 45.1589 103.044 45.8716 103.552 46.0757C103.704 46.1794 103.908 46.1794 104.063 46.1794C104.997 46.1794 105.89 45.2431 106.711 43.9958C106.714 43.9926 106.714 43.9893 106.718 43.9861C106.744 43.9407 107.022 43.4742 107.125 43.2896C107.484 42.6352 108.147 41.2356 108.467 40.5456C108.735 39.9722 109.033 39.0683 109.201 38.307C109.292 37.8923 109.262 37.4452 109.114 37.4031C108.916 37.348 108.687 37.5165 108.477 37.834C106.695 40.5197 106.242 44.6243 107.209 47.553C107.675 48.9039 108.807 49.811 110.058 49.9568C111.419 50.1674 113.039 49.8499 114.721 49.4708L117.259 48.8586C118.194 48.6383 119.144 48.4244 120.137 48.3208C122.113 48.1069 124.214 48.2074 126.122 48.6771C129.935 49.6069 133.213 51.2203 136.453 52.3703C138.064 52.96 139.668 53.3908 141.352 53.6694C143.05 53.9286 144.77 54.1586 146.448 54.1683C149.821 54.1781 153.239 53.5334 156.253 51.8844C158.642 50.6339 160.738 48.7905 162.458 46.5746C162.636 46.3446 162.991 46.5714 162.862 46.8273C161.559 49.3866 159.625 51.6835 157.21 53.4168C154.128 55.6327 150.342 56.8314 146.552 57.1002C144.638 57.2557 142.765 57.1748 140.9 56.9739C139.024 56.773 137.116 56.3746 135.319 55.8271C131.739 54.7288 128.483 53.1997 125.269 52.5356C123.674 52.1889 122.142 52.0755 120.544 52.2408C119.749 52.3315 118.934 52.4481 118.113 52.6101C117.211 52.785 116.305 52.9664 115.374 53.0928C113.54 53.3131 111.507 53.5884 109.34 52.9535C107.035 52.3671 105.305 50.284 104.929 48.1361C104.577 46.0692 104.968 44.0347 105.243 42.6028C105.45 41.5207 105.832 40.3804 106.187 39.5413C106.549 38.699 106.963 37.9636 107.639 37.1407C107.933 36.7584 108.622 36.2984 109.25 36.428C109.596 36.4993 109.87 36.7811 109.974 37.0435C110.148 37.4938 110.11 37.9312 109.967 38.5305C109.819 39.1558 109.528 39.9624 109.269 40.659C108.716 42.1298 108.199 43.241 107.759 44.0347C107.536 44.4461 106.866 45.5249 106.798 45.6383Z" fill="#00BBC5"/>
<path d="M86.4491 92.8637H84.4443V92.1348H89.2817V92.8637H87.2769V97.9953H86.4491V92.8637Z" fill="#292929"/>
<path d="M94.1452 97.9966L92.8841 96.1953C92.7289 96.2051 92.606 96.2115 92.5155 96.2115H91.0701V97.9934H90.2358V92.1328H92.5155C93.2722 92.1328 93.8704 92.3142 94.3037 92.6771C94.737 93.0399 94.9568 93.5388 94.9568 94.177C94.9568 94.6306 94.8469 95.0129 94.6238 95.3336C94.4007 95.6511 94.0838 95.8843 93.6699 96.0301L95.0571 97.9966H94.1452ZM93.7022 95.1587C93.9803 94.9286 94.1193 94.6047 94.1193 94.1803C94.1193 93.7559 93.9803 93.4319 93.7022 93.2051C93.4241 92.9784 93.0199 92.865 92.4896 92.865H91.0701V95.5021H92.4896C93.0199 95.5021 93.4241 95.3887 93.7022 95.1587Z" fill="#292929"/>
<path d="M100.079 96.531H96.9714L96.3279 97.9953H95.4678L98.1161 92.1348H98.9439L101.602 97.9953H100.726L100.079 96.531ZM99.7846 95.8604L98.5235 92.99L97.2624 95.8604H99.7846Z" fill="#292929"/>
<path d="M107.279 92.1348L104.715 97.9953H103.887L101.313 92.1348H102.216L104.321 96.9489L106.442 92.1348H107.279Z" fill="#292929"/>
<path d="M112.312 97.2664V97.9953H108.066V92.1348H112.195V92.8637H108.903V94.6649H111.836V95.3777H108.903V97.2696H112.312V97.2664Z" fill="#292929"/>
<path d="M113.705 92.1348H114.54V97.2664H117.705V97.9953H113.702V92.1348H113.705Z" fill="#292929"/>
</svg>
