<svg width="958" height="785" viewBox="0 0 958 785" fill="none" xmlns="http://www.w3.org/2000/svg">
<path d="M2.5 642L0.302179 659.18L16.2798 652.494L2.5 642ZM737.5 673.5L738.831 674.192L737.5 673.5ZM538.5 741.138L537.074 740.673L538.5 741.138ZM11.4287 663.148C14.166 667.458 17.1938 671.601 20.4957 675.581L22.8047 673.666C19.5806 669.779 16.628 665.739 13.9611 661.54L11.4287 663.148ZM30.924 686.769C34.553 690.252 38.4146 693.593 42.4947 696.795L44.3469 694.435C40.3407 691.291 36.5548 688.015 33.0015 684.604L30.924 686.769ZM55.0186 705.756C59.198 708.488 63.5553 711.104 68.0794 713.606L69.5316 710.981C65.0682 708.512 60.7742 705.934 56.6599 703.245L55.0186 705.756ZM81.6515 720.549C86.2161 722.708 90.9204 724.77 95.7552 726.738L96.886 723.959C92.0996 722.011 87.4463 719.971 82.9344 717.837L81.6515 720.549ZM109.918 732.105C114.654 733.775 119.497 735.366 124.439 736.878L125.317 734.01C120.413 732.509 115.61 730.932 110.916 729.276L109.918 732.105ZM139.124 741.071C143.96 742.357 148.877 743.576 153.871 744.729L154.546 741.806C149.583 740.66 144.697 739.449 139.895 738.172L139.124 741.071ZM168.864 747.953C173.763 748.931 178.726 749.852 183.748 750.716L184.257 747.76C179.26 746.9 174.324 745.984 169.452 745.011L168.864 747.953ZM198.91 753.132C203.854 753.859 208.848 754.534 213.887 755.161L214.257 752.184C209.24 751.56 204.268 750.887 199.346 750.164L198.91 753.132ZM229.111 756.891C234.098 757.406 239.123 757.876 244.182 758.302L244.434 755.312C239.393 754.888 234.387 754.42 229.419 753.907L229.111 756.891ZM259.439 759.446C264.455 759.778 269.498 760.068 274.566 760.318L274.714 757.322C269.663 757.072 264.636 756.783 259.637 756.453L259.439 759.446ZM289.835 760.951C294.87 761.12 299.925 761.252 304.995 761.347L305.051 758.348C299.996 758.253 294.956 758.122 289.936 757.953L289.835 760.951ZM320.248 761.524C325.301 761.548 330.365 761.536 335.437 761.491L335.41 758.491C330.352 758.536 325.301 758.548 320.262 758.524L320.248 761.524ZM350.664 761.256C355.73 761.145 360.8 761.002 365.869 760.827L365.766 757.829C360.709 758.003 355.652 758.146 350.598 758.256L350.664 761.256ZM381.068 760.212C386.141 759.976 391.21 759.71 396.273 759.415L396.098 756.42C391.047 756.714 385.99 756.98 380.929 757.215L381.068 760.212ZM411.443 758.442C416.518 758.088 421.582 757.705 426.631 757.294L426.388 754.304C421.35 754.714 416.298 755.096 411.234 755.449L411.443 758.442ZM441.773 755.979C446.846 755.51 451.9 755.014 456.931 754.493L456.621 751.509C451.602 752.029 446.559 752.524 441.497 752.992L441.773 755.979ZM472.042 752.842C477.112 752.26 482.152 751.652 487.161 751.021L486.785 748.044C481.788 748.674 476.758 749.281 471.7 749.861L472.042 752.842ZM502.234 749.034C507.299 748.338 512.326 747.617 517.31 746.874L516.868 743.907C511.895 744.648 506.879 745.367 501.825 746.062L502.234 749.034ZM532.326 744.545C537.392 743.728 542.407 742.889 547.366 742.028L546.852 739.072C541.906 739.931 536.903 740.768 531.849 741.583L532.326 744.545ZM562.289 739.341C567.363 738.394 572.37 737.425 577.304 736.436L576.714 733.494C571.793 734.481 566.799 735.448 561.738 736.392L562.289 739.341ZM592.068 733.367C597.162 732.271 602.166 731.153 607.074 730.015L606.397 727.093C601.505 728.226 596.516 729.341 591.437 730.434L592.068 733.367ZM621.779 726.478C626.828 725.217 631.759 723.936 636.562 722.638L635.779 719.742C630.995 721.035 626.084 722.311 621.052 723.567L621.779 726.478ZM651.29 718.484C656.271 717.017 661.086 715.532 665.725 714.032L664.802 711.178C660.19 712.669 655.4 714.146 650.443 715.606L651.29 718.484ZM680.153 709.112C685.213 707.289 690.006 705.449 694.509 703.598L693.368 700.823C688.91 702.655 684.16 704.48 679.136 706.29L680.153 709.112ZM708.509 697.352C713.527 694.904 718.022 692.443 721.943 689.98L720.348 687.44C716.535 689.834 712.138 692.244 707.194 694.655L708.509 697.352ZM734.067 680.557C736.107 678.458 737.717 676.335 738.831 674.192L736.169 672.808C735.223 674.629 733.809 676.519 731.916 678.466L734.067 680.557ZM738.831 674.192C740.312 671.344 741.197 668.69 741.484 666.233L738.504 665.885C738.27 667.89 737.53 670.191 736.169 672.808L738.831 674.192ZM733.077 652.456C729.011 650.483 723.671 649.31 717.446 648.817L717.209 651.807C723.24 652.285 728.168 653.409 731.767 655.155L733.077 652.456ZM701.599 648.843C696.687 649.173 691.458 649.771 686 650.624L686.462 653.588C691.845 652.747 696.986 652.16 701.8 651.837L701.599 648.843ZM670.608 653.568C665.635 654.684 660.548 655.978 655.401 657.441L656.221 660.326C661.316 658.878 666.349 657.598 671.265 656.495L670.608 653.568ZM640.446 662.119C635.542 663.794 630.628 665.612 625.751 667.567L626.867 670.351C631.695 668.417 636.56 666.616 641.415 664.958L640.446 662.119ZM611.365 673.788C606.598 676.009 601.91 678.36 597.346 680.836L598.776 683.473C603.284 681.028 607.917 678.704 612.632 676.508L611.365 673.788ZM583.828 688.782C579.322 691.657 575.002 694.665 570.924 697.798L572.751 700.177C576.754 697.102 581.002 694.144 585.442 691.311L583.828 688.782ZM558.966 708.042C555.059 711.807 551.515 715.721 548.412 719.773L550.794 721.597C553.794 717.679 557.235 713.876 561.048 710.202L558.966 708.042ZM540.05 733.261C538.89 735.691 537.893 738.163 537.074 740.673L539.926 741.604C540.702 739.224 541.65 736.873 542.757 734.554L540.05 733.261ZM537.074 740.673C536.205 743.336 535.7 745.898 535.553 748.355L538.547 748.534C538.678 746.363 539.127 744.054 539.926 741.604L537.074 740.673ZM539.854 763.169C542.613 766.956 546.593 770.172 551.555 772.858L552.983 770.219C548.298 767.684 544.707 764.736 542.278 761.402L539.854 763.169ZM565.669 778.439C570.098 779.713 574.942 780.765 580.15 781.601L580.625 778.638C575.517 777.819 570.793 776.791 566.498 775.556L565.669 778.439ZM594.901 783.321C599.638 783.691 604.592 783.919 609.735 784.01L609.788 781.01C604.699 780.921 599.806 780.695 595.134 780.33L594.901 783.321ZM624.588 783.902C629.412 783.755 634.366 783.502 639.433 783.143L639.221 780.151C634.193 780.507 629.278 780.758 624.496 780.904L624.588 783.902ZM654.122 781.841C658.929 781.331 663.816 780.735 668.77 780.052L668.361 777.08C663.437 777.759 658.581 778.352 653.806 778.857L654.122 781.841ZM683.399 777.815C688.218 777.007 693.086 776.121 697.99 775.158L697.412 772.214C692.535 773.172 687.694 774.053 682.903 774.856L683.399 777.815ZM712.452 772.118C717.22 771.05 722.012 769.912 726.818 768.703L726.086 765.794C721.306 766.996 716.539 768.129 711.796 769.191L712.452 772.118ZM741.124 764.908C745.858 763.587 750.595 762.198 755.326 760.743L754.444 757.876C749.738 759.323 745.026 760.704 740.317 762.019L741.124 764.908ZM769.389 756.214C774.059 754.641 778.714 753.003 783.344 751.301L782.309 748.485C777.705 750.178 773.076 751.807 768.431 753.371L769.389 756.214ZM797.146 746.003C801.735 744.165 806.29 742.262 810.801 740.296L809.602 737.546C805.119 739.5 800.592 741.391 796.031 743.218L797.146 746.003ZM824.278 734.164C828.75 732.041 833.168 729.852 837.522 727.598L836.143 724.934C831.821 727.171 827.434 729.345 822.991 731.454L824.278 734.164ZM850.535 720.554C854.871 718.099 859.128 715.576 863.295 712.984L861.711 710.437C857.58 713.005 853.359 715.508 849.057 717.943L850.535 720.554ZM875.695 704.885C879.797 702.068 883.792 699.18 887.668 696.219L885.847 693.835C882.013 696.764 878.059 699.623 873.997 702.412L875.695 704.885ZM899.21 686.881C903.015 683.614 906.676 680.267 910.179 676.843L908.081 674.698C904.628 678.075 901.015 681.378 897.256 684.605L899.21 686.881ZM920.417 666.082C923.73 662.325 926.854 658.482 929.772 654.554L927.364 652.765C924.499 656.623 921.428 660.4 918.167 664.097L920.417 666.082ZM938.063 642.227C940.653 637.942 942.998 633.563 945.082 629.092L942.362 627.825C940.326 632.194 938.032 636.478 935.496 640.676L938.063 642.227ZM950.586 615.223C952.138 610.508 953.401 605.7 954.355 600.801L951.41 600.227C950.48 605 949.25 609.686 947.736 614.285L950.586 615.223ZM956.259 586.031C956.419 583.542 956.5 581.031 956.5 578.5H953.5C953.5 580.967 953.421 583.414 953.265 585.839L956.259 586.031ZM956.5 578.5C956.5 575.801 956.439 573.159 956.319 570.568L953.322 570.706C953.44 573.25 953.5 575.847 953.5 578.5H956.5ZM954.818 554.787C954.031 549.395 952.988 544.227 951.731 539.236L948.822 539.969C950.055 544.864 951.078 549.932 951.849 555.22L954.818 554.787ZM947.117 524.07C945.33 519.045 943.346 514.172 941.219 509.393L938.478 510.612C940.579 515.332 942.533 520.134 944.29 525.075L947.117 524.07ZM934.402 495.159C932.035 490.499 929.576 485.872 927.081 481.224L924.437 482.642C926.93 487.285 929.376 491.889 931.727 496.517L934.402 495.159ZM919.661 467.391C917.248 462.84 914.847 458.214 912.502 453.46L909.811 454.787C912.174 459.577 914.59 464.23 917.011 468.796L919.661 467.391ZM905.906 439.284C903.877 434.617 901.933 429.798 900.11 424.785L897.291 425.811C899.137 430.886 901.104 435.763 903.154 440.479L905.906 439.284ZM895.273 409.957C893.874 405.114 892.598 400.083 891.47 394.837L888.537 395.467C889.68 400.783 890.973 405.881 892.39 410.789L895.273 409.957ZM888.706 379.468C887.98 374.491 887.386 369.326 886.942 363.953L883.952 364.201C884.402 369.635 885.002 374.862 885.737 379.901L888.706 379.468ZM886.102 348.371C886.034 345.793 886 343.17 886 340.5H883C883 343.196 883.035 345.845 883.103 348.449L886.102 348.371ZM886 340.5C886 338.098 886.173 335.614 886.504 333.053L883.529 332.668C883.183 335.342 883 337.954 883 340.5H886ZM889.781 318.371C891.181 313.743 892.926 308.941 894.941 303.982L892.161 302.852C890.12 307.875 888.342 312.766 886.91 317.503L889.781 318.371ZM901.073 290.033C903.18 285.528 905.434 280.926 907.784 276.238L905.103 274.893C902.744 279.597 900.478 284.225 898.356 288.762L901.073 290.033ZM914.768 262.532C917.08 258.039 919.436 253.478 921.791 248.871L919.12 247.505C916.767 252.108 914.415 256.66 912.1 261.159L914.768 262.532ZM928.709 235.127C930.976 230.531 933.207 225.895 935.363 221.228L932.639 219.97C930.496 224.609 928.277 229.222 926.018 233.8L928.709 235.127ZM941.582 207.111C943.574 202.335 945.451 197.535 947.173 192.723L944.348 191.713C942.646 196.469 940.788 201.221 938.813 205.957L941.582 207.111ZM951.906 178.005C953.329 172.976 954.54 167.943 955.493 162.917L952.546 162.358C951.611 167.287 950.421 172.234 949.02 177.188L951.906 178.005ZM957.562 147.532C957.958 142.327 958.023 137.141 957.707 131.988L954.713 132.172C955.02 137.177 954.957 142.225 954.571 147.305L957.562 147.532ZM955.543 116.565C954.422 111.562 952.878 106.608 950.865 101.717L948.09 102.86C950.038 107.589 951.53 112.38 952.615 117.221L955.543 116.565ZM943.75 87.8634C941.103 83.6078 938.046 79.4166 934.545 75.2983L932.259 77.2416C935.668 81.2507 938.637 85.3223 941.202 89.4475L943.75 87.8634ZM923.736 64.1319C920.091 60.7971 916.114 57.5197 911.784 54.3044L909.995 56.713C914.248 59.8708 918.146 63.0834 921.71 66.3452L923.736 64.1319ZM899.024 45.6543C894.831 43.0507 890.375 40.4938 885.646 37.9864L884.241 40.6369C888.913 43.1143 893.309 45.6374 897.442 48.203L899.024 45.6543ZM871.723 31.1165C867.195 29.0344 862.454 26.991 857.494 24.988L856.371 27.7698C861.289 29.756 865.986 31.7808 870.47 33.8422L871.723 31.1165ZM843.263 19.5723C838.525 17.8718 833.609 16.2041 828.512 14.5704L827.596 17.4273C832.662 19.0509 837.545 20.7076 842.25 22.396L843.263 19.5723ZM813.904 10.1277C809.091 8.7384 804.132 7.37668 799.022 6.04341L798.265 8.94622C803.351 10.2732 808.285 11.6282 813.072 13.01L813.904 10.1277ZM784.1 2.33311C781.545 1.72774 778.955 1.12893 776.33 0.536777L775.67 3.46322C778.284 4.05306 780.864 4.64945 783.408 5.25231L784.1 2.33311Z" fill="#E1AB5D"/>
</svg>
