<svg width="478" height="452" viewBox="0 0 478 452" fill="none" xmlns="http://www.w3.org/2000/svg">
<path d="M294 368L294.277 369.474L294 368ZM0.5 440L13.4831 451.465L16.9203 434.489L0.5 440ZM22.0624 445.579C27.1099 446.412 32.0172 447.138 36.787 447.759L37.1745 444.784C32.4399 444.167 27.5663 443.447 22.551 442.619L22.0624 445.579ZM51.2683 449.368C56.3646 449.832 61.2872 450.167 66.04 450.379L66.1734 447.382C61.4692 447.172 56.5928 446.841 51.5404 446.38L51.2683 449.368ZM80.8984 450.639C86.0412 450.581 90.9572 450.362 95.6526 449.991L95.4162 447C90.7923 447.366 85.9439 447.582 80.8647 447.639L80.8984 450.639ZM110.317 448.232C115.46 447.385 120.286 446.327 124.806 445.072L124.003 442.181C119.595 443.405 114.874 444.441 109.83 445.272L110.317 448.232ZM138.856 440.14C143.68 438.041 148.041 435.66 151.959 433.03L150.287 430.539C146.529 433.062 142.328 435.357 137.659 437.389L138.856 440.14ZM163.374 423.414C166.929 419.637 169.868 415.558 172.228 411.236L169.595 409.798C167.357 413.895 164.569 417.767 161.189 421.358L163.374 423.414ZM177.699 397.256C178.922 392.465 179.594 387.499 179.76 382.422L176.762 382.324C176.602 387.2 175.957 391.949 174.792 396.514L177.699 397.256ZM178.873 367.489C178.169 362.681 177.075 357.826 175.625 352.971L172.75 353.83C174.162 358.556 175.223 363.269 175.905 367.924L178.873 367.489ZM170.476 338.997C168.52 334.529 166.284 330.096 163.793 325.736L161.188 327.224C163.629 331.496 165.817 335.833 167.728 340.2L170.476 338.997ZM155.812 313.238C152.974 309.231 149.924 305.322 146.684 301.543L144.407 303.496C147.587 307.205 150.58 311.041 153.364 314.972L155.812 313.238ZM136.524 290.733C132.979 287.29 129.268 284.004 125.414 280.906L123.535 283.244C127.314 286.283 130.955 289.507 134.435 292.885L136.524 290.733ZM113.406 272.182C109.243 269.464 104.954 266.969 100.559 264.73L99.1973 267.403C103.492 269.592 107.689 272.032 111.766 274.694L113.406 272.182ZM86.9517 258.762C82.2773 257.038 77.5157 255.614 72.6899 254.525L72.0292 257.451C76.7208 258.51 81.3565 259.896 85.9138 261.577L86.9517 258.762ZM57.9626 252.289C55.4842 252.098 52.9957 252 50.5 252V255C52.9172 255 55.3287 255.095 57.7316 255.28L57.9626 252.289ZM50.5 252C47.5947 252 44.9768 252.227 42.6441 252.67L43.204 255.617C45.3201 255.215 47.7468 255 50.5 255V252ZM29.6094 261.573C27.7155 265.978 28.2381 271.437 30.5747 277.354L33.365 276.252C31.1712 270.696 30.9142 266.133 32.3654 262.758L29.6094 261.573ZM38.2021 290.658C40.9538 294.419 44.2601 298.314 48.0828 302.27L50.2402 300.185C46.4986 296.313 43.2834 292.523 40.6235 288.886L38.2021 290.658ZM59.2091 312.692C62.8658 315.818 66.82 318.947 71.0555 322.048L72.8277 319.628C68.6502 316.569 64.7553 313.486 61.1584 310.411L59.2091 312.692ZM83.6045 330.608C87.7333 333.234 92.0646 335.815 96.5879 338.33L98.0456 335.708C93.5735 333.222 89.293 330.67 85.2145 328.076L83.6045 330.608ZM109.993 345.299C114.437 347.456 119.033 349.541 123.773 351.537L124.937 348.773C120.247 346.797 115.7 344.734 111.303 342.6L109.993 345.299ZM137.866 357.044C142.536 358.731 147.324 360.326 152.224 361.817L153.097 358.947C148.247 357.471 143.507 355.892 138.885 354.223L137.866 357.044ZM166.804 365.849C171.632 367.053 176.554 368.152 181.566 369.134L182.143 366.19C177.182 365.218 172.309 364.13 167.53 362.938L166.804 365.849ZM196.471 371.664C201.4 372.373 206.405 372.966 211.482 373.433L211.757 370.446C206.732 369.983 201.777 369.396 196.898 368.695L196.471 371.664ZM226.56 374.435C231.536 374.639 236.572 374.72 241.666 374.669L241.636 371.669C236.594 371.72 231.608 371.64 226.682 371.438L226.56 374.435ZM256.762 374.135C261.731 373.833 266.748 373.404 271.81 372.839L271.477 369.857C266.466 370.417 261.499 370.842 256.58 371.141L256.762 374.135ZM286.776 370.789C289.267 370.384 291.767 369.946 294.277 369.474L293.723 366.526C291.237 366.993 288.761 367.427 286.295 367.828L286.776 370.789ZM294.277 369.474C296.768 369.005 299.255 368.484 301.736 367.911L301.061 364.988C298.619 365.552 296.173 366.065 293.723 366.526L294.277 369.474ZM316.462 363.89C321.291 362.369 326.086 360.657 330.836 358.766L329.727 355.979C325.043 357.844 320.317 359.53 315.561 361.029L316.462 363.89ZM344.802 352.628C349.364 350.432 353.872 348.072 358.315 345.557L356.837 342.947C352.451 345.429 348.002 347.758 343.501 349.925L344.802 352.628ZM371.335 337.623C375.576 334.85 379.743 331.935 383.826 328.888L382.032 326.483C377.998 329.495 373.881 332.374 369.693 335.112L371.335 337.623ZM395.754 319.402C399.628 316.126 403.408 312.726 407.085 309.213L405.012 307.044C401.379 310.515 397.644 313.874 393.817 317.112L395.754 319.402ZM417.779 298.356C421.234 294.63 424.576 290.798 427.795 286.869L425.474 284.968C422.295 288.849 418.993 292.635 415.579 296.317L417.779 298.356ZM437.083 274.783C440.057 270.652 442.895 266.432 445.589 262.131L443.047 260.538C440.388 264.784 437.585 268.951 434.648 273.03L437.083 274.783ZM453.251 248.947C455.662 244.458 457.915 239.896 460 235.269L457.265 234.036C455.209 238.599 452.987 243.099 450.608 247.527L453.251 248.947ZM465.761 221.142C467.511 216.356 469.079 211.512 470.454 206.621L467.566 205.809C466.212 210.625 464.668 215.396 462.944 220.112L465.761 221.142ZM473.997 191.773C474.977 186.779 475.752 181.745 476.311 176.681L473.329 176.352C472.78 181.331 472.018 186.281 471.053 191.195L473.997 191.773ZM477.327 161.442C477.442 156.369 477.334 151.276 476.992 146.17L473.998 146.371C474.335 151.386 474.441 156.389 474.328 161.374L477.327 161.442ZM475.276 130.989C474.48 126.002 473.452 121.013 472.182 116.029L469.275 116.769C470.523 121.664 471.532 126.564 472.314 131.462L475.276 130.989ZM467.745 101.413C466.073 96.6789 464.171 91.9574 462.032 87.256L459.302 88.4983C461.404 93.1205 463.273 97.761 464.917 102.413L467.745 101.413ZM455.135 73.6468C452.695 69.2884 450.04 64.954 447.162 60.6494L444.668 62.3165C447.502 66.5565 450.116 70.8238 452.518 75.1125L455.135 73.6468ZM438.225 48.2987C435.157 44.3682 431.894 40.4683 428.429 36.6034L426.195 38.606C429.615 42.4211 432.835 46.2689 435.86 50.1446L438.225 48.2987ZM417.865 25.5505C414.318 22.063 410.597 18.6088 406.697 15.1917L404.72 17.448C408.578 20.8282 412.256 24.2432 415.761 27.6895L417.865 25.5505ZM395.045 5.51655C393.038 3.93483 390.989 2.36213 388.898 0.798803L387.102 3.2012C389.172 4.74971 391.201 6.30718 393.189 7.87321L395.045 5.51655Z" fill="#00BBC5"/>
</svg>
