<svg width="290" height="115" viewBox="0 0 290 115" fill="none" xmlns="http://www.w3.org/2000/svg">
<path d="M183.852 41.715C183.446 40.1723 182.82 38.6651 182.107 37.2342C181.56 36.1388 181.348 35.1069 181.382 33.8717C181.425 32.2451 181.295 30.5448 180.858 28.9817C179.189 22.9963 175.252 18.5993 170.339 15.0411C165.745 11.7167 160.324 10.423 154.833 9.65294C146.547 8.49397 138.349 9.1497 130.25 10.8144C129.463 10.4815 128.732 10.0545 128.045 9.48519C126.933 8.56768 125.738 7.7925 124.601 6.90548C122.735 5.4517 121.026 3.78696 118.995 2.55683C118.596 2.31538 118.175 2.11206 117.741 1.93161C117.217 1.6317 116.639 1.40804 116.07 1.20979C114.493 0.663354 113.096 0.132163 111.402 0.0838727C111.335 0.0813311 111.274 0.0864151 111.218 0.0965814C111.085 0.0355834 110.934 0 110.763 0C110.6 0 110.459 0.0305 110.341 0.0864149C109.555 0.111831 109.337 0.88193 109.593 1.46141C109.562 1.62153 109.578 1.80198 109.649 1.9926C110.6 4.50877 111.9 6.78349 112.23 9.50298C112.411 10.9873 112.393 12.4716 112.633 13.9609C112.715 14.4743 112.761 14.9852 112.787 15.4935C107.861 17.2599 103.448 19.9896 99.5392 23.3877C91.9178 30.011 84.5366 36.9089 77.0762 43.7152C75.4615 45.1868 75.1191 45.2656 73.2387 44.0863C71.6929 43.118 70.2034 42.0327 68.5759 41.227C65.6888 39.8012 62.7583 38.3678 59.35 39.1353L59 39.5064C59.7767 40.0681 60.6479 40.5357 61.3097 41.2092C63.5095 43.4382 65.6173 45.7587 67.8043 48.0054C68.3332 48.5493 69.0409 48.9204 69.6337 49.4109C69.8534 49.5939 70.0297 49.8735 70.1344 50.1455C70.3644 50.7402 70.4231 51.4239 70.7502 51.9551C72.4466 54.7178 75.022 57.0128 74.833 60.7184C74.764 62.0579 75.9469 62.3705 77.1247 61.547C79.2019 60.0907 79.81 57.9557 79.6413 55.6302C79.4446 52.9463 78.9924 50.2827 78.6373 47.4946C78.903 47.3599 79.3118 47.1413 79.7282 46.9431C91.5473 41.3516 104.205 38.6956 117.007 36.7335C123.676 35.7118 130.446 35.3382 137.171 34.6723C138.607 34.53 140.048 34.2936 141.481 34.3165C142.074 34.3266 142.659 34.9036 143.247 35.2238C142.96 35.6788 142.766 36.243 142.373 36.5632C141.32 37.4172 140.196 38.1873 139.074 38.9523C137.672 39.9054 136.226 40.7975 134.838 41.7709C134.537 41.9819 134.409 42.4343 134.199 42.7749C134.542 42.9807 134.866 43.3035 135.234 43.3645C135.942 43.484 136.673 43.484 137.396 43.4814C145.135 43.4484 151.949 41.039 157.46 35.5136C158.499 34.4715 159.56 34.014 160.955 34.1589C161.716 34.2377 162.49 34.2758 163.231 34.4512C169.033 35.8313 174.608 37.6536 178.796 42.2615C179.455 42.9883 180.365 43.611 181.282 43.9618C183.346 44.7573 184.412 43.8372 183.852 41.715Z" fill="#DFAB5E"/>
<path d="M289.853 94.715C289.45 93.1723 288.829 91.6651 288.122 90.2342C287.58 89.1388 287.37 88.1069 287.402 86.8717C287.446 85.2451 287.316 83.5448 286.883 81.9817C285.228 75.9963 281.322 71.5993 276.448 68.0411C271.891 64.7167 266.513 63.423 261.066 62.6529C252.847 61.494 244.714 62.1497 236.68 63.8144C235.899 63.4815 235.174 63.0545 234.492 62.4852C233.39 61.5677 232.204 60.7925 231.076 59.9055C229.226 58.4517 227.53 56.787 225.515 55.5568C225.12 55.3154 224.702 55.1121 224.271 54.9316C223.751 54.6317 223.178 54.408 222.613 54.2098C221.049 53.6634 219.663 53.1322 217.983 53.0839C217.917 53.0813 217.856 53.0864 217.8 53.0966C217.668 53.0356 217.519 53 217.349 53C217.187 53 217.047 53.0305 216.931 53.0864C216.15 53.1118 215.935 53.8819 216.188 54.4614C216.158 54.6215 216.173 54.802 216.244 54.9926C217.187 57.5088 218.477 59.7835 218.804 62.503C218.984 63.9873 218.966 65.4716 219.204 66.9609C219.285 67.4743 219.331 67.9852 219.356 68.4935C214.47 70.2599 210.093 72.9896 206.215 76.3877C198.654 83.011 191.332 89.9089 183.932 96.7152C182.33 98.1868 181.99 98.2656 180.125 97.0863C178.591 96.118 177.114 95.0327 175.499 94.227C172.635 92.8012 169.728 91.3678 166.347 92.1353L166 92.5064C166.77 93.0681 167.635 93.5357 168.291 94.2092C170.473 96.4382 172.564 98.7587 174.734 101.005C175.259 101.549 175.961 101.92 176.549 102.411C176.767 102.594 176.941 102.874 177.045 103.145C177.273 103.74 177.332 104.424 177.656 104.955C179.339 107.718 181.894 110.013 181.706 113.718C181.638 115.058 182.811 115.37 183.98 114.547C186.04 113.091 186.643 110.956 186.476 108.63C186.281 105.946 185.832 103.283 185.48 100.495C185.744 100.36 186.149 100.141 186.562 99.9431C198.287 94.3516 210.843 91.6956 223.543 89.7335C230.158 88.7118 236.875 88.3382 243.546 87.6723C244.97 87.53 246.399 87.2936 247.821 87.3165C248.409 87.3266 248.99 87.9036 249.573 88.2238C249.289 88.6788 249.096 89.243 248.706 89.5632C247.662 90.4172 246.546 91.1873 245.434 91.9523C244.042 92.9054 242.608 93.7975 241.232 94.7709C240.932 94.9819 240.806 95.4343 240.598 95.7749C240.938 95.9807 241.259 96.3035 241.624 96.3645C242.326 96.484 243.051 96.484 243.769 96.4814C251.446 96.4484 258.205 94.039 263.672 88.5136C264.703 87.4715 265.755 87.014 267.139 87.1589C267.894 87.2377 268.662 87.2758 269.397 87.4512C275.153 88.8313 280.684 90.6536 284.838 95.2615C285.491 95.9883 286.394 96.611 287.304 96.9618C289.351 97.7573 290.408 96.8372 289.853 94.715Z" fill="#00BBC5"/>
<path d="M82.6289 6.55346C79.7737 6.97844 75.8309 7.20824 75.7772 7.21138C75.2776 6.79271 74.8033 6.30792 74.3069 5.89554C73.9085 5.56186 73.1497 5.07393 72.707 4.83469C68.1508 2.35096 63.9772 0.0624029 58.6242 0.00259196C50.1031 -0.0949943 42.2965 2.57131 34.9642 6.59124C29.8578 9.38976 25.8834 13.586 22.4908 18.2638C21.7983 19.2176 21.0553 19.8378 20.0973 20.1557C20.0973 20.1557 4.99317 19.5734 0.822714 26.1589C-3.34775 32.7444 9.6221 28.8881 11.0449 37.6142C10.3746 40.0161 9.8877 42.4747 9.6474 45.0213C8.27516 59.4263 10.9849 73.2741 14.9593 86.9897C15.7403 89.6812 16.3473 92.4231 17.0493 95.1398C17.2643 95.974 17.0935 96.5784 16.3125 97.082C14.915 97.9824 13.6123 99.0275 12.2116 99.9183C8.23722 102.449 5.24612 105.859 3.12137 110.017C2.52062 111.194 2.13804 112.491 1.74913 113.763C1.64163 114.112 1.75546 114.811 1.97678 114.915C2.31826 115.079 2.90004 114.988 3.27314 114.796C4.24698 114.295 5.1323 113.615 6.1093 113.124C10.1312 111.097 14.4439 110.052 18.8831 109.441C19.3131 109.381 19.9107 109.113 20.0656 108.774C20.5715 107.669 21.2324 107.722 22.1525 108.188C22.6046 108.415 23.1959 108.641 23.6512 108.541C27.145 107.769 30.604 106.847 34.1105 106.139C35.078 105.944 36.1815 106.192 37.1775 106.428C38.4991 106.74 39.7765 107.237 41.076 107.656C41.4776 107.716 41.4049 107.59 41.3954 107.351C41.0602 106.605 40.8357 105.783 40.3741 105.125C38.1007 101.902 35.3531 99.2636 31.3755 98.209C29.2033 97.6329 27.0754 96.8176 24.8748 96.4273C22.3928 95.9834 20.9604 94.5102 20.1162 92.3633C19.5977 91.0443 19.1677 89.6403 19.0064 88.2363C18.3804 82.7904 18.6333 77.3759 20.4103 72.144C23.4204 63.2952 26.9173 54.6698 33.6868 47.8702C37.5949 43.9447 41.6357 40.1452 45.686 36.3645C47.0962 35.0455 48.7119 33.9469 50.2643 32.7223C50.3623 33.0151 50.4951 33.3173 50.5679 33.6352C51.1718 36.2354 51.88 38.8042 50.7607 41.4893C50.5109 42.0875 50.3813 43.1452 51.1307 43.7464C52.0128 43.9101 52.7622 43.3183 53.1701 42.7926C54.6846 40.8377 56.2054 38.8482 57.3879 36.6887C59.2534 33.2858 60.0376 29.672 58.6875 25.8031C58.3966 24.9752 58.463 23.886 58.7254 23.0267C59.6455 20.0267 61.8904 18.1316 64.7013 17.0676C68.584 15.6007 72.5806 14.4296 76.5139 13.0949C77.551 12.7423 78.2592 12.4181 79.2141 12.0246C89.8663 8.35409 85.503 6.12534 82.6289 6.55346Z" fill="#00BBC5"/>
</svg>
