<svg width="261" height="130" viewBox="0 0 261 130" fill="none" xmlns="http://www.w3.org/2000/svg">
<path d="M0.308716 87.467C1.15693 84.2322 2.46395 81.072 3.95233 78.0717C5.09396 75.7749 5.53673 73.6112 5.46738 71.0213C5.37669 67.6106 5.64878 64.0455 6.56102 60.768C10.0446 48.2179 18.2654 38.9986 28.524 31.5378C38.1158 24.5673 49.4361 21.8548 60.9004 20.24C78.2008 17.8099 95.3199 19.1849 112.231 22.6754C113.874 21.9773 115.4 21.082 116.835 19.8883C119.155 17.9645 121.652 16.3391 124.026 14.4792C127.92 11.431 131.489 7.9404 135.73 5.3611C136.563 4.85484 137.443 4.42851 138.35 4.05014C139.443 3.4213 140.649 2.95234 141.839 2.53667C145.13 1.3909 148.048 0.277116 151.585 0.175862C151.724 0.170533 151.852 0.181193 151.969 0.202509C152.247 0.0746104 152.561 0 152.919 0C153.26 0 153.554 0.0639516 153.799 0.181192C155.442 0.234484 155.896 1.84921 155.362 3.06425C155.426 3.39998 155.394 3.77835 155.245 4.17804C153.26 9.45387 150.545 14.2234 149.857 19.9256C149.478 23.0378 149.515 26.15 149.014 29.2729C148.843 30.3494 148.747 31.4205 148.694 32.4864C158.979 36.1901 168.192 41.9136 176.354 49.0386C192.268 62.9263 207.68 77.3896 223.257 91.661C226.628 94.7466 227.343 94.9118 231.27 92.4391C234.497 90.4087 237.607 88.1331 241.006 86.4438C247.034 83.4541 253.153 80.4485 260.269 82.0579L261 82.836C259.378 84.0137 257.559 84.9943 256.177 86.4065C251.584 91.0801 247.183 95.9456 242.617 100.657C241.512 101.797 240.035 102.575 238.797 103.604C238.338 103.987 237.97 104.573 237.751 105.144C237.271 106.391 237.149 107.824 236.466 108.938C232.923 114.731 227.546 119.543 227.941 127.313C228.085 130.121 225.615 130.777 223.156 129.05C218.818 125.997 217.549 121.52 217.901 116.644C218.312 111.016 219.256 105.431 219.997 99.5854C219.443 99.303 218.589 98.8447 217.72 98.429C193.041 86.7049 166.613 81.136 139.881 77.0219C125.957 74.8796 111.82 74.0962 97.7792 72.7C94.7811 72.4015 91.7723 71.9059 88.7796 71.9539C87.5419 71.9752 86.3202 73.1849 85.0933 73.8564C85.6907 74.8103 86.0962 75.9934 86.9177 76.6648C89.1156 78.4554 91.4629 80.0701 93.8049 81.6742C96.7336 83.6726 99.753 85.5432 102.65 87.5842C103.279 88.0265 103.546 88.9751 103.983 89.6892C103.269 90.1209 102.591 90.7977 101.823 90.9256C100.345 91.1761 98.8195 91.1761 97.3098 91.1707C81.1509 91.1014 66.9232 86.0494 55.4163 74.4639C53.245 72.279 51.0311 71.3197 48.1184 71.6235C46.5286 71.7887 44.9122 71.8686 43.3652 72.2363C31.25 75.13 19.6097 78.951 10.8661 88.6127C9.48975 90.1369 7.59061 91.4425 5.67545 92.1779C1.365 93.8459 -0.859586 91.9168 0.308716 87.467Z" fill="#00BBC5"/>
</svg>
