<svg width="181" height="243" viewBox="0 0 181 243" fill="none" xmlns="http://www.w3.org/2000/svg">
<path d="M7.09506 13.8478C13.1041 14.7457 21.4024 15.2313 21.5155 15.238C22.5669 14.3533 23.5651 13.3289 24.6099 12.4575C25.4483 11.7525 27.0454 10.7214 27.9771 10.2159C37.5663 4.96768 46.3503 0.13186 57.6165 0.00547692C75.5505 -0.200727 91.9806 5.4333 107.413 13.9276C118.16 19.841 126.524 28.7077 133.665 38.5922C135.122 40.6077 136.686 41.9181 138.702 42.5899C138.702 42.5899 170.491 41.3594 179.268 55.2748C188.046 69.1903 160.749 61.0419 157.754 79.4805C159.165 84.5558 160.19 89.7508 160.696 95.1321C163.584 125.57 157.881 154.831 149.516 183.813C147.872 189.5 146.595 195.294 145.117 201.034C144.665 202.797 145.024 204.074 146.668 205.139C149.609 207.041 152.351 209.249 155.299 211.132C163.664 216.48 169.959 223.684 174.431 232.471C175.695 234.958 176.5 237.699 177.319 240.386C177.545 241.125 177.305 242.601 176.84 242.821C176.121 243.167 174.896 242.974 174.111 242.568C172.062 241.51 170.198 240.074 168.142 239.036C159.677 234.752 150.601 232.544 141.258 231.253C140.353 231.127 139.095 230.562 138.769 229.843C137.704 227.508 136.313 227.621 134.377 228.606C133.425 229.085 132.181 229.564 131.223 229.351C123.869 227.721 116.589 225.772 109.209 224.276C107.173 223.863 104.851 224.389 102.754 224.888C99.9727 225.546 97.2843 226.597 94.5493 227.482C93.7041 227.608 93.8572 227.342 93.8772 226.837C94.5826 225.26 95.055 223.524 96.0266 222.134C100.811 215.322 106.594 209.748 114.965 207.52C119.537 206.303 124.016 204.58 128.647 203.755C133.871 202.817 136.886 199.704 138.662 195.168C139.754 192.381 140.659 189.414 140.998 186.447C142.316 174.94 141.783 163.499 138.043 152.443C131.708 133.745 124.348 115.52 110.101 101.152C101.876 92.8572 93.3714 84.8285 84.8469 76.8398C81.879 74.0527 78.4785 71.7312 75.2111 69.1437C75.0048 69.7623 74.7253 70.4009 74.5723 71.0727C73.3013 76.567 71.8107 81.9949 74.1664 87.6688C74.6921 88.9326 74.9649 91.1676 73.3878 92.4381C71.5312 92.784 69.954 91.5335 69.0956 90.4226C65.9081 86.2919 62.7072 82.088 60.2184 77.5249C56.2922 70.3344 54.6419 62.6982 57.4834 54.5232C58.0956 52.7738 57.9559 50.4722 57.4035 48.6563C55.4671 42.3172 50.7423 38.3129 44.8264 36.0646C36.6546 32.9649 28.2432 30.4904 19.965 27.6701C17.7823 26.9251 16.2917 26.24 14.282 25.4085C-8.13724 17.6526 1.04607 12.9431 7.09506 13.8478Z" fill="#DFAB5E"/>
</svg>
