<svg width="333" height="66" viewBox="0 0 333 66" fill="none" xmlns="http://www.w3.org/2000/svg">
<path fill-rule="evenodd" clip-rule="evenodd" d="M12.924 56.631C27.9727 45.1271 38.7703 38.7876 52.2308 33.5495C70.1463 26.5775 84.9966 23.4948 106.611 22.2596C133.644 20.715 162.421 23.8692 209.225 33.5069C248.06 41.5031 252.953 42.1898 271.112 42.1898C288.006 42.1898 291.761 41.5783 304.332 36.7789C313.179 33.4013 321.496 27.5988 326.488 21.3221C329.694 17.2897 333 12.0126 333 10.9255C333 10.7224 329.81 12.9768 325.911 15.9352C322.013 18.8928 316.791 22.1078 314.307 23.0778C310.124 24.7127 308.82 24.8392 296.596 24.7908C279.921 24.725 266.141 22.7279 217.416 13.3165C178.619 5.82336 173.433 4.9083 158.259 2.88305C127.34 -1.24263 98.8084 -0.931854 77.7139 3.76049C68.8858 5.72503 58.4987 9.31585 50.8575 13.0462C40.9937 17.8614 27.0526 28.5565 20.0465 36.685C14.9563 42.5902 -0.683075 65.4838 0.0231934 65.9969C0.2052 66.1299 6.01083 61.9146 12.924 56.631Z" fill="#E1AB5D"/>
</svg>
