<svg width="631" height="76" viewBox="0 0 631 76" fill="none" xmlns="http://www.w3.org/2000/svg">
<path fill-rule="evenodd" clip-rule="evenodd" d="M320.076 9.36895C305.027 20.8729 294.23 27.2124 280.769 32.4505C262.854 39.4225 248.003 42.5052 226.389 43.7404C199.356 45.285 170.579 42.1308 123.775 32.4931C84.9397 24.4969 80.047 23.8102 61.8875 23.8102C44.9941 23.8102 41.2389 24.4217 28.6685 29.2211C19.8213 32.5987 11.5038 38.4012 6.51184 44.6779C3.30552 48.7103 0 53.9874 0 55.0745C0 55.2776 3.18994 53.0232 7.08886 50.0648C10.9869 47.1072 16.2091 43.8922 18.6928 42.9222C22.8756 41.2873 24.1798 41.1608 36.4044 41.2092C53.0786 41.275 66.8595 43.2721 115.584 52.6835C154.381 60.1766 159.567 61.0917 174.741 63.117C205.66 67.2426 234.192 66.9319 255.286 62.2395C264.114 60.275 274.501 56.6842 282.143 52.9538C292.006 48.1386 305.947 37.4435 312.953 29.315C318.044 23.4098 333.683 0.516242 332.977 0.00306254C332.795 -0.129931 326.989 4.08537 320.076 9.36895Z" fill="#22C2D1"/>
<path fill-rule="evenodd" clip-rule="evenodd" d="M310.924 66.631C325.973 55.1271 336.77 48.7876 350.231 43.5495C368.146 36.5775 382.997 33.4948 404.611 32.2596C431.644 30.715 460.421 33.8692 507.225 43.5069C546.06 51.5031 550.953 52.1898 569.112 52.1898C586.006 52.1898 589.761 51.5783 602.332 46.7789C611.179 43.4013 619.496 37.5988 624.488 31.3221C627.694 27.2897 631 22.0126 631 20.9255C631 20.7224 627.81 22.9768 623.911 25.9352C620.013 28.8928 614.791 32.1078 612.307 33.0778C608.124 34.7127 606.82 34.8392 594.596 34.7908C577.921 34.725 564.141 32.7279 515.416 23.3165C476.619 15.8234 471.433 14.9083 456.259 12.883C425.34 8.75737 396.808 9.06815 375.714 13.7605C366.886 15.725 356.499 19.3158 348.857 23.0462C338.994 27.8614 325.053 38.5565 318.047 46.685C312.956 52.5902 297.317 75.4838 298.023 75.9969C298.205 76.1299 304.011 71.9146 310.924 66.631Z" fill="#E1AB5D"/>
</svg>
