<svg width="189" height="174" viewBox="0 0 189 174" fill="none" xmlns="http://www.w3.org/2000/svg">
<path fill-rule="evenodd" clip-rule="evenodd" d="M53.24 36.8048C50.3288 37.4381 46.775 38.9533 46.775 39.5615C46.775 39.7575 48.3233 41.4392 50.2157 43.2981C52.108 45.1571 54.5231 47.749 55.5824 49.0579C57.4602 51.3777 59.5571 54.9895 59.3581 55.5612C59.3036 55.718 57.5079 54.4655 55.3678 52.7778C45.8531 45.2745 39.6867 42.3285 31.3871 41.3211C24.1792 40.4463 18.7288 42.4613 13.0235 48.1102C9.02251 52.0719 6.4411 56.0997 5.4304 59.9586C5.16451 60.9731 5.06755 61.9224 5.21444 62.0685C5.48682 62.3393 11.7647 59.906 13.1911 58.9764C13.6234 58.6949 14.1662 57.9442 14.3974 57.3086C14.7424 56.3596 14.9353 56.191 15.4752 56.3667C17.3585 56.9788 18.2839 56.9146 19.1555 56.1117C19.9752 55.3568 20.3517 55.291 25.8605 54.9431C34.2431 54.4139 34.8936 54.4397 36.3602 55.3603C37.473 56.0588 37.6579 56.0901 38.0972 55.6535C38.5363 55.2168 38.6362 55.312 39.034 56.547C39.4069 57.7043 39.6579 57.9748 40.5771 58.2093C41.2899 58.3908 41.7964 58.3686 42.0201 58.1461C42.5963 57.5731 42.8379 57.7536 42.9445 58.8368C43.0383 59.7903 43.2072 59.9276 45.1184 60.6061C47.3489 61.3984 49.4005 62.4996 50.678 63.5914L51.4767 64.2738L46.4507 64.0435C35.2153 63.5289 27.1607 63.8781 22.2937 65.0905C14.0919 67.134 8.10389 71.886 4.32306 79.3526C2.86877 82.2237 1.18102 87.4108 0.527321 91.0162C-0.354006 95.876 -0.0868211 105.853 1.003 108.782C1.22642 109.383 1.32045 109.363 2.84899 108.367C4.65834 107.189 16.5407 95.8144 17.2187 94.6116C17.5271 94.0651 17.5903 93.3102 17.4331 92.0578C17.2288 90.4339 17.2599 90.2994 17.7914 90.5022C18.1114 90.6244 18.9678 90.8053 19.6944 90.9043C20.8734 91.0649 21.1714 90.9546 22.4652 89.8789C23.2625 89.2156 24.2431 88.5243 24.6445 88.3417C25.0459 88.1596 25.3741 87.8871 25.3741 87.7365C25.3741 87.5856 24.6435 86.3028 23.7505 84.886C22.7946 83.3691 22.3018 82.3098 22.5518 82.3098C22.7852 82.3098 24.1678 82.8829 25.6241 83.5832C27.0803 84.2836 28.7872 84.9527 29.4169 85.0701L30.5622 85.2839V83.4742C30.5622 82.4791 30.641 81.6649 30.7373 81.6649C30.8339 81.6649 31.3404 81.9793 31.8631 82.3637C33.2561 83.3878 34.2619 83.2414 38.2013 81.4405C41.6388 79.8688 44.3097 79.0504 47.5046 78.5893C48.3518 78.4671 49.0448 78.2562 49.0448 78.1208C49.0448 77.985 48.824 77.3485 48.5542 76.7062C48.2841 76.0638 48.1469 75.5382 48.2487 75.5382C48.3509 75.5382 49.0072 75.9961 49.7072 76.5556L50.9803 77.5729L53.1742 76.5785C55.5503 75.5011 58.7235 74.4141 58.9197 74.6102C59.2241 74.9146 59.2391 105.133 58.9346 104.934C58.7562 104.816 57.7348 104.148 56.6648 103.448C54.0185 101.717 50.0564 100.376 47.5856 100.376C43.915 100.375 41.0142 101.516 37.6841 104.272C36.3751 105.356 35.7435 105.721 35.8621 105.326C35.962 104.993 36.1436 104.285 36.2655 103.753C36.3874 103.221 36.9085 101.93 37.4231 100.884C38.2954 99.1112 38.3226 98.9436 37.8268 98.3986C36.4769 96.9153 31.2963 96.2833 27.5781 97.1484C25.4224 97.6502 22.6931 98.9461 21.7988 99.8926L21.116 100.616L22.0291 101.254C22.5313 101.606 23.4529 102.151 24.0771 102.467C25.686 103.281 28.8725 105.765 29.2807 106.523C29.6173 107.149 29.5978 107.151 28.3913 106.637C20.7298 103.377 17.0381 102.688 12.6804 103.708C8.84222 104.607 5.82048 107.405 4.10419 111.65C3.2835 113.679 2.6619 117.458 3.14861 117.458C4.01664 117.458 7.21575 114.621 7.21575 113.85C7.21575 113.444 7.45926 113.266 8.01374 113.266C8.45278 113.266 9.08865 112.971 9.42685 112.609C10.2556 111.725 16.4253 109.771 18.0537 109.878C18.7531 109.925 19.484 110.177 19.6776 110.44C19.9282 110.781 20.2424 110.841 20.7687 110.647C21.2946 110.454 21.5573 110.503 21.6789 110.819C21.7778 111.075 22.5777 111.352 23.5758 111.477C24.5249 111.595 25.5618 111.88 25.8796 112.111C26.3864 112.48 26.1416 112.599 23.8893 113.077C11.0896 115.793 6.39279 119.222 4.92423 126.923C4.51988 129.043 4.54194 132.385 4.97547 134.731C5.3756 136.896 7.12658 141.642 7.52509 141.642C8.24007 141.642 13.8335 132.479 13.6026 131.686C13.519 131.398 13.3452 130.908 13.2164 130.598C13.0248 130.135 13.1564 130.034 13.9518 130.034C14.6827 130.034 15.1389 129.75 15.8072 128.878L16.6938 127.722L15.6779 126.68C15.1192 126.107 14.745 125.556 14.8461 125.455C14.9476 125.355 15.5702 125.397 16.2301 125.549C16.8899 125.701 17.7764 125.83 18.1999 125.834C18.8796 125.841 18.9477 125.731 18.78 124.897C18.5968 123.986 18.6279 123.957 19.6312 124.11C20.4989 124.243 20.9412 124.046 22.2868 122.928C23.1747 122.19 24.6338 121.22 25.5294 120.773C27.556 119.761 27.4386 119.893 27.0116 119.1C26.6737 118.473 26.7016 118.453 27.4509 118.792C28.1536 119.111 28.4471 119.012 29.8556 117.984C30.7379 117.34 31.5936 116.813 31.7571 116.813C31.9205 116.813 32.3874 118.155 32.7944 119.796C33.2013 121.436 35.0372 128.002 36.8745 134.387C38.7117 140.772 40.5366 147.388 40.9296 149.091L41.6443 152.187L45.5879 152.403C47.7565 152.521 50.5526 152.819 51.8009 153.063C53.0493 153.308 54.1236 153.458 54.1881 153.397C54.3444 153.249 49.3074 145.834 49.0506 145.834C48.9404 145.834 47.9092 146.512 46.7588 147.341L44.6673 148.849L46.559 146.697C47.5992 145.513 48.4018 144.436 48.3424 144.303C47.7072 142.881 45.3466 139.063 45.1028 139.063C44.9287 139.063 44.2487 139.455 43.5918 139.935L42.3975 140.807L43.2244 139.854C44.9611 137.853 44.9627 138.149 43.1949 134.422L41.5603 130.976L40.5279 131.707L39.4954 132.438L40.3975 131.262L41.2996 130.086L40.2928 127.25C39.7393 125.69 39.2328 124.361 39.1676 124.296C39.1024 124.231 38.6352 124.442 38.1293 124.765L37.2094 125.353L38.0736 124.204L38.9377 123.054L38.3203 120.84C37.9808 119.623 37.5752 117.928 37.4195 117.074C37.0778 115.205 37.1002 115.2 40.4984 116.334C43.0528 117.187 43.5324 117.161 43.5324 116.168C43.5324 115.156 44.0966 115.141 44.4484 116.144C44.8518 117.296 45.8651 117.973 47.596 118.249C48.3603 118.371 49.4952 118.924 50.3266 119.578C51.1093 120.194 52.1259 120.791 52.586 120.905C53.0458 121.018 54.1242 121.849 54.9825 122.751L56.5429 124.391L57.3178 123.504C57.7442 123.016 58.1771 122.617 58.2802 122.617C58.3833 122.617 58.4268 123.378 58.3769 124.308C58.2955 125.821 58.3665 126.032 59.0526 126.323L59.8195 126.648L59.6204 138.095C59.5108 144.391 59.2913 150.631 59.1327 151.961C58.9738 153.291 58.8801 154.419 58.9242 154.468C59.2345 154.81 73.9129 158.449 78.7142 159.375C80.6759 159.752 82.9357 160.188 83.7359 160.342C84.5362 160.496 85.2314 160.582 85.2807 160.533C85.33 160.484 84.3468 157.802 83.0955 154.573C81.8446 151.345 79.9214 146.063 78.8225 142.835C77.7233 139.608 76.7807 136.912 76.7278 136.845C76.6749 136.778 74.4373 137.6 71.7553 138.672C69.0731 139.744 66.8853 140.524 66.8934 140.406C66.9016 140.288 68.908 138.954 71.352 137.442C75.1801 135.073 75.7913 134.582 75.7631 133.895C75.7307 133.102 73.0773 122.572 72.8484 122.328C72.7352 122.207 71.5433 122.631 67.6084 124.19C66.6723 124.561 65.9061 124.81 65.9061 124.743C65.9061 124.675 67.3652 123.711 69.1486 122.601C71.2307 121.305 72.3912 120.383 72.3912 120.023C72.3912 119.715 72.1175 118.105 71.7832 116.445C71.4489 114.785 70.9171 111.758 70.6016 109.719C70.2861 107.679 69.9962 105.97 69.9573 105.921C69.9184 105.871 68.7453 106.268 67.3506 106.802C65.9557 107.336 64.7751 107.734 64.7271 107.686C64.6788 107.639 65.8127 106.879 67.2466 105.999L69.8536 104.398L69.6733 102.786C69.5741 101.899 69.3312 99.1432 69.1337 96.6615C68.9363 94.1799 68.7141 92.089 68.6399 92.0152C68.5656 91.9414 67.3163 92.3435 65.8639 92.9091C64.4113 93.4743 63.1778 93.8922 63.123 93.8377C63.0682 93.7832 64.3283 92.9448 65.9233 91.9746L68.8231 90.2101L68.8237 84.5338C68.8241 81.4118 68.9165 77.9808 69.029 76.9096L69.2339 74.9617L70.2916 75.4012C71.9888 76.1064 75.174 78.0418 77.4214 79.7334L79.5034 81.3005L80.7064 79.3313C81.7188 77.6738 81.948 77.4604 82.1532 77.9818C82.2878 78.3226 82.4084 79.1094 82.4214 79.7302C82.448 80.971 83.4535 82.8448 84.4979 83.5997C84.866 83.8657 86.1957 84.5912 87.4532 85.212C89.3851 86.1658 89.9983 86.6879 91.4137 88.5839C93.2794 91.0826 94.6572 92.3261 96.4672 93.1441C97.4276 93.5785 97.6832 93.8735 97.6832 94.5491C97.6832 95.7519 99.0924 98.4244 100.383 99.6678L101.471 100.717L103.057 99.4137C103.929 98.6969 104.758 98.1103 104.898 98.1103C105.246 98.1103 104.906 99.4834 103.952 101.925C103.208 103.828 103.189 104.018 103.669 104.747C103.952 105.176 104.771 105.914 105.488 106.386C106.447 107.017 106.727 107.379 106.547 107.756C105.926 109.059 106.328 110.562 108.104 113.588C109.093 115.273 110.847 118.311 112.001 120.34C113.155 122.368 114.252 124.079 114.44 124.141C114.871 124.284 116.037 121.119 116.478 118.608C117.894 110.552 114.393 95.1511 109.038 85.8769C103.538 76.3511 96.9987 71.7251 81.9568 66.7186L76.7687 64.9919L81.887 64.7487L87.0054 64.5056L87.7551 63.0387L88.5048 61.5719L89.7703 63.3709C90.4665 64.3602 91.3278 65.2514 91.6844 65.3514C92.0411 65.4514 93.6261 65.5352 95.2065 65.5375C97.6906 65.5413 98.4902 65.6948 101.11 66.6706C104.97 68.1084 105.924 68.131 106.616 66.8018C107.22 65.6394 107.253 65.6603 108.539 68.0375C109.078 69.0332 109.922 70.1422 110.414 70.5014C111.189 71.0673 111.482 71.1092 112.597 70.8132L113.884 70.4717L114.093 71.5807C114.281 72.5764 114.538 72.8008 116.612 73.7773C117.883 74.3754 119.717 75.3025 120.688 75.8371C121.659 76.3718 122.514 76.749 122.588 76.6758C122.773 76.4914 120.163 72.8067 116.49 68.0684C107.073 55.9201 99.214 51.0313 89.1001 51.0313C83.59 51.0313 78.2972 52.6204 72.9885 55.8689C72.1198 56.4006 71.3354 56.8356 71.2459 56.8356C70.9638 56.8356 72.7479 53.5414 74.2939 51.2077C75.1107 49.9746 76.6334 48.0573 77.6776 46.9474C79.0573 45.4805 79.5235 44.7634 79.3831 44.3235C78.9765 43.0492 75.8228 40.3915 73.2193 39.1291C69.315 37.2359 65.933 36.4891 60.5559 36.333C56.9498 36.2282 55.4453 36.3253 53.24 36.8048ZM56.4141 107.16C57.1379 107.792 57.7381 108.074 58.0782 107.942C58.371 107.829 58.7562 107.711 58.9346 107.68C59.2712 107.621 59.9485 116.074 59.6324 116.388C59.5374 116.482 58.9041 116.015 58.2245 115.349C54.5523 111.753 48.9368 109.747 42.4786 109.725C41.4533 109.722 40.6141 109.602 40.6141 109.459C40.6141 109.315 41.5262 108.909 42.6407 108.555C44.2328 108.049 44.6897 107.76 44.7711 107.203C44.8982 106.332 44.9828 106.329 46.1479 107.154C46.978 107.742 47.2312 107.773 48.4676 107.438C49.2309 107.232 50.9157 107.086 52.2118 107.113C54.0659 107.153 54.6087 107.058 54.7595 106.668C55.0185 105.996 55.1129 106.024 56.4141 107.16ZM136.169 148.582C130.807 153.714 126.96 156.542 122.164 158.879C115.782 161.989 110.491 163.365 102.79 163.916C93.1585 164.605 82.9058 163.198 66.2303 158.898C52.394 155.331 50.6508 155.024 44.1809 155.024C38.1621 155.024 36.8242 155.297 32.3456 157.438C29.1935 158.945 26.2301 161.534 24.4516 164.334C23.3092 166.133 22.1315 168.487 22.1315 168.972C22.1315 169.063 23.268 168.057 24.6572 166.737C26.0459 165.418 27.9065 163.983 28.7914 163.551C30.2817 162.821 30.7464 162.765 35.1018 162.787C41.0425 162.816 45.9523 163.707 63.312 167.906C77.1347 171.248 78.9823 171.657 84.3887 172.56C95.4046 174.401 105.57 174.262 113.085 172.169C116.231 171.292 119.931 169.69 122.654 168.026C126.168 165.878 131.135 161.107 133.631 157.48C135.445 154.846 141.017 144.632 140.765 144.403C140.7 144.344 138.632 146.224 136.169 148.582Z" fill="#E1AB5D"/>
<path fill-rule="evenodd" clip-rule="evenodd" d="M152.432 0.320086C146.928 0.898577 141.011 3.25608 136.412 6.70284C133.918 8.57084 130.796 11.599 130.796 12.1488C130.796 12.3007 136.012 12.7593 142.388 13.1678C159.667 14.2751 159.618 14.231 144.577 15.0887C137.265 15.5056 130.498 15.9384 129.54 16.0503L127.798 16.2534L126.704 18.3494C125.437 20.7759 124.523 23.5333 124.877 23.8625C125.089 24.0598 133.375 24.6644 145.156 25.3422C147.08 25.4528 148.73 25.666 148.823 25.8159C148.916 25.9659 148.51 26.0878 147.92 26.0868C145.875 26.0839 123.824 27.4437 123.68 27.5814C123.6 27.6575 123.473 29.4568 123.397 31.5799L123.258 35.4397L124.19 35.4465C124.702 35.4504 128.259 35.6648 132.093 35.9234C135.927 36.182 139.547 36.3965 140.138 36.4003C140.728 36.4039 141.137 36.5261 141.046 36.6715C140.956 36.8169 137.162 37.1297 132.615 37.3664C128.069 37.6031 124.194 37.892 124.004 38.0091C123.589 38.2635 124.495 42.0308 125.673 44.9523C126.429 46.8277 126.497 46.8944 127.895 47.1256C128.688 47.2569 130.942 47.4681 132.904 47.5945C136.374 47.8186 136.418 47.8308 134.525 48.0466C133.455 48.1685 131.448 48.2839 130.066 48.3029C128.664 48.3226 127.553 48.4777 127.553 48.6544C127.553 49.3577 130.018 52.7322 132.203 55.0201C135.132 58.0876 137.539 59.9327 140.931 61.7117C149.997 66.4654 161.419 66.6576 170.389 62.2064C174.441 60.1958 178.011 57.6233 177.62 56.9951C177.527 56.8448 177.732 56.722 178.077 56.722C179.12 56.722 182.854 52.3008 184.916 48.6247L185.931 46.8157L183.574 46.6181C182.278 46.5094 179.05 46.3224 176.4 46.2024C173.751 46.0825 171.781 45.88 172.023 45.7526C172.265 45.6255 175.6 45.3437 179.434 45.127C183.269 44.91 186.574 44.5946 186.779 44.4263C187.169 44.1061 188.314 40.1115 188.673 37.8146L188.882 36.4809L184.888 36.263C182.691 36.143 177.568 35.836 173.504 35.581C169.439 35.3259 165.5 35.0995 164.749 35.0779C163.429 35.0399 163.443 35.0302 165.167 34.7825C166.148 34.642 170.744 34.2843 175.381 33.9883C180.018 33.6923 184.979 33.3537 186.406 33.2357L189 33.0213L188.934 31.2478C188.837 28.6381 188.525 26.3067 188.204 25.7901C187.902 25.3042 187.377 25.2591 171.166 24.3242C157.164 23.5168 155.583 23.4114 155.926 23.3069C156.227 23.2153 159.192 23.0138 179.248 21.7243C183.337 21.4611 186.738 21.1896 186.807 21.1209C186.993 20.9358 184.368 15.8355 183.223 14.1574C181.78 12.0428 177.97 8.20872 175.543 6.42778C172.745 4.37469 168.736 2.41123 165.348 1.43451C162.94 0.740898 157.028 -0.112007 155.486 0.0121396C155.193 0.0356791 153.819 0.174335 152.432 0.320086Z" fill="#E1AB5D"/>
<path fill-rule="evenodd" clip-rule="evenodd" d="M136.034 148.735C130.672 153.867 126.825 156.696 122.03 159.032C115.647 162.143 110.356 163.518 102.655 164.069C93.0236 164.758 82.7709 163.351 66.0954 159.051C52.2591 155.484 50.5159 155.178 44.046 155.178C38.0272 155.178 36.6893 155.451 32.2106 157.592C29.0586 159.099 26.0952 161.687 24.3166 164.487C23.1743 166.286 21.9966 168.641 21.9966 169.126C21.9966 169.216 23.1331 168.211 24.5222 166.891C25.911 165.571 27.7716 164.137 28.6565 163.704C30.1468 162.975 30.6114 162.918 34.9668 162.94C40.9075 162.969 45.8174 163.86 63.1771 168.059C76.9998 171.402 78.8474 171.81 84.2537 172.714C95.2697 174.554 105.435 174.416 112.95 172.322C116.096 171.446 119.796 169.844 122.519 168.18C126.033 166.031 131 161.26 133.496 157.634C135.31 154.999 140.882 144.786 140.63 144.557C140.565 144.497 138.497 146.378 136.034 148.735Z" fill="#22C2D1"/>
</svg>
