<svg width="119" height="119" viewBox="0 0 119 119" fill="none" xmlns="http://www.w3.org/2000/svg">
<path fill-rule="evenodd" clip-rule="evenodd" d="M3.58409 1.29066C1.43787 3.45328 0.510188 8.22088 0.112288 19.1328C-0.113986 25.3353 -0.024109 27.3013 0.620389 30.2826C2.61757 39.5147 9.14294 55.9456 13.3672 62.3775C14.2181 63.6731 14.3861 64.2953 14.0546 64.9251C13.2394 66.4756 7.5816 82.8978 5.34189 90.2153C0.355272 106.505 -0.558857 117.937 3.04844 118.888C5.1513 119.442 5.99633 118.06 7.2099 112.082C7.98221 108.277 8.54812 106.866 11.0959 102.394C16.3106 93.2417 25.035 80.5495 26.1117 80.5495C26.9676 80.5495 32.4483 85.2607 35.309 88.4559C38.7402 92.2883 42.2522 94.6512 46.3003 95.8513L49.0476 96.6659L50.0706 99.5398C51.0538 102.303 54.8951 108.777 55.9352 109.425C56.5567 109.811 58.6722 105.4 58.6785 103.704C58.6812 103.047 59.099 101.562 59.6076 100.404L60.5321 98.2983L64.0111 98.291C65.9247 98.2874 68.6386 98.0116 70.0428 97.6785C72.4722 97.1023 72.7775 97.1351 76.3659 98.3588C80.3358 99.7123 85.0469 100.092 86.7149 99.1926C87.946 98.5286 87.7997 97.1674 86.3508 95.8135C85.6702 95.1777 85.2362 94.6575 85.3857 94.6575C85.5352 94.6575 87.3142 94.242 89.3385 93.7346C92.0452 93.0556 93.2506 92.9359 93.892 93.2818C97.5873 95.2747 119.95 98.5177 118.969 96.9185C118.811 96.6604 116.302 95.2474 113.395 93.7792C108.134 91.1214 108.1 91.0946 106.264 87.9908C105.249 86.276 104.278 84.1562 104.105 83.2801C103.374 79.5711 101.467 76.2042 99.4002 74.9741L98.0995 74.2L95.1394 78.68L92.1789 83.1604L88.4659 84.1698C81.7057 86.008 80.7184 85.9588 76.0922 83.5582C73.8678 82.404 71.9194 81.4597 71.7627 81.4597C71.6055 81.4597 70.5419 82.1942 69.3983 83.0917L67.3194 84.7241L64.0892 84.219C52.5402 82.4136 45.3094 75.7437 44.7728 66.4015L44.5736 62.9304L46.0957 61.7768C48.0662 60.2831 54.7614 56.9454 59.3605 55.1633C62.8047 53.8289 63.4492 53.7411 73.1357 53.2819C86.8955 52.6293 91.4296 51.4975 91.1157 48.7928C90.9224 47.1249 88.7852 45.7901 83.6577 44.1354C80.0138 42.9589 78.2406 42.6927 71.1918 42.2626C62.2194 41.7151 47.6552 42.0292 43.9142 42.8506C40.8205 43.5296 39.7564 42.8411 38.4136 39.2908C37.8608 37.8286 35.6437 32.5367 33.4862 27.5307C29.6702 18.6754 29.4778 18.3418 26.3962 15.2216C19.3989 8.13714 8.34443 0.00955943 5.69282 2.38918e-06C5.23892 -0.0013629 4.29001 0.579342 3.58409 1.29066Z" fill="#22C2D1"/>
</svg>
